<?xml version="1.0" encoding="UTF-8" standalone="no"?>
<!DOCTYPE svg PUBLIC "-//W3C//DTD SVG 1.1//EN" "http://www.w3.org/Graphics/SVG/1.1/DTD/svg11.dtd">
<svg width="100%" height="100%" viewBox="0 0 1903 470" version="1.1" xmlns="http://www.w3.org/2000/svg" xmlns:xlink="http://www.w3.org/1999/xlink" xml:space="preserve" xmlns:serif="http://www.serif.com/" style="fill-rule:evenodd;clip-rule:evenodd;stroke-linejoin:round;stroke-miterlimit:2;">
    <rect id="Artboard1" x="0" y="0" width="1903" height="470" style="fill:none;"/>
    <g>
        <path d="M249.964,158.881C245.398,134.909 237.407,111.508 218.002,94.956C179.762,62.994 117.55,67.56 83.875,110.937C32.508,177.715 16.527,253.625 46.206,334.672C69.036,399.738 159.785,420.856 207.728,359.214C243.115,312.984 251.676,260.474 255.101,205.682C253.959,190.272 252.818,173.72 249.964,158.881ZM107.276,135.48C135.814,99.522 200.879,97.239 218.002,153.173C233.983,201.687 224.28,246.776 208.299,291.866C200.879,313.554 191.177,333.531 174.625,350.082C142.663,380.332 103.281,374.054 83.875,335.243C71.889,311.271 69.036,285.587 69.606,265.611C69.606,214.814 77.026,171.437 107.276,135.48Z" style="fill:white;fill-rule:nonzero;stroke:white;stroke-width:13.32px;"/>
        <path d="M345.85,82.4C350.416,148.607 353.841,213.673 359.548,279.88C364.685,327.823 368.11,376.908 374.959,424.28C377.242,440.261 382.378,444.256 396.076,440.261C420.619,433.983 443.449,425.422 463.996,411.153C546.755,354.078 586.137,276.455 570.156,175.432C560.453,118.357 535.911,70.985 481.118,44.159C441.166,25.325 400.072,27.037 357.836,31.032C346.992,32.174 342.997,37.31 343.567,48.725C344.709,57.287 345.28,79.546 345.85,82.4ZM378.954,58.999C389.798,55.004 400.072,56.145 409.204,57.287C465.708,65.848 512.51,92.103 532.486,149.749C548.467,193.696 544.472,239.357 529.062,283.304C511.368,330.677 479.406,367.776 434.317,391.747C427.468,395.172 420.619,398.026 410.345,402.021C390.369,286.729 383.52,172.579 378.954,58.999Z" style="fill:white;fill-rule:nonzero;stroke:white;stroke-width:13.32px;"/>
        <path d="M664.33,82.4C668.896,148.607 672.32,213.673 678.028,279.88C683.165,327.823 686.589,376.908 693.438,424.28C695.721,440.261 700.858,444.256 714.556,440.261C739.098,433.983 761.928,425.422 782.475,411.153C865.234,354.078 904.616,276.455 888.635,175.432C878.932,118.357 854.39,70.985 799.598,44.159C759.645,25.325 718.551,27.037 676.316,31.032C665.471,32.174 661.476,37.31 662.047,48.725C663.188,57.287 663.759,79.546 664.33,82.4ZM697.433,58.999C708.278,55.004 718.551,56.145 727.683,57.287C784.188,65.848 830.989,92.103 850.966,149.749C866.947,193.696 862.951,239.357 847.541,283.304C829.848,330.677 797.886,367.776 752.796,391.747C745.947,395.172 739.098,398.026 728.825,402.021C708.848,286.729 701.999,172.579 697.433,58.999Z" style="fill:white;fill-rule:nonzero;stroke:white;stroke-width:13.32px;"/>
        <path d="M984.521,314.696C981.668,331.818 984.521,347.799 988.517,363.21C999.932,411.724 1034.18,441.973 1076.41,443.115C1122.64,444.827 1162.6,418.573 1174.58,374.625C1188.28,324.969 1174.01,279.88 1139.77,241.64C1110.66,209.677 1072.99,186.847 1038.74,160.022C1019.91,145.183 1011.92,124.065 1016.48,100.093C1020.48,76.692 1036.46,61.853 1059.29,56.145C1083.26,50.438 1104.95,55.574 1122.64,75.551C1131.2,85.254 1133.49,98.952 1142.62,108.654C1163.74,102.947 1166.59,97.81 1158.03,79.546C1143.76,48.725 1119.22,31.603 1085.54,27.608C1030.18,20.188 977.102,65.277 977.672,121.782C978.243,150.89 993.653,172.579 1015.91,190.843C1046.16,215.385 1080.41,233.649 1107.23,263.328C1131.2,289.583 1148.9,317.55 1147.76,355.219C1145.47,399.167 1098.67,427.134 1059.86,407.158C1033.61,393.459 1012.49,351.224 1017.62,320.974C1018.77,314.125 1020.48,306.705 1018.77,299.285C994.795,286.729 989.087,289.583 984.521,314.696Z" style="fill:white;fill-rule:nonzero;stroke:white;stroke-width:13.32px;"/>
        <path d="M1328.68,295.861C1327.54,336.384 1324.12,374.625 1325.26,407.728C1325.83,417.431 1338.96,424.851 1349.8,424.28C1360.65,423.139 1366.35,419.143 1365.78,406.016C1362.93,378.049 1362.36,349.512 1362.36,320.403C1362.36,259.333 1363.5,198.262 1363.5,137.192C1364.07,123.494 1363.5,109.225 1363.5,95.527C1384.05,89.82 1402.31,85.254 1420.58,79.546C1439.41,74.98 1442.84,64.136 1434.27,45.872L1428.57,45.872C1390.33,52.15 1353.8,64.707 1316.7,76.122C1297.29,82.4 1277.32,89.82 1257.34,97.239C1245.93,101.805 1246.5,111.508 1249.35,119.499C1252.78,129.201 1260.19,123.494 1265.9,121.782C1285.31,114.933 1310.99,106.371 1330.97,102.376C1333.25,170.866 1330.4,225.088 1328.68,295.861Z" style="fill:white;fill-rule:nonzero;stroke:white;stroke-width:13.32px;"/>
        <path d="M1515.32,82.4C1514.75,183.994 1518.17,285.587 1525.59,386.61C1527.31,414.577 1528.45,416.29 1559.84,410.582C1551.85,293.007 1550.71,175.432 1546.71,56.716C1521.6,56.145 1515.89,61.853 1515.32,82.4Z" style="fill:white;fill-rule:nonzero;stroke:white;stroke-width:13.32px;"/>
        <path d="M1766.45,306.705C1784.14,342.663 1797.27,372.912 1817.25,412.865C1826.95,427.705 1830.95,423.139 1841.22,419.714C1850.92,416.86 1848.64,408.299 1845.22,400.879C1825.24,350.653 1800.13,302.71 1775.58,253.625C1771.59,246.776 1772.73,241.64 1776.15,234.791C1804.12,186.277 1834.37,140.616 1866.33,96.098C1869.76,90.961 1873.75,86.966 1870.33,79.546C1857.2,74.409 1846.36,74.98 1836.65,88.107C1817.82,113.22 1798.41,138.904 1781.86,166.3C1773.87,180.569 1764.17,194.267 1755.04,209.677C1752.18,205.111 1751.04,202.828 1749.9,199.404C1724.79,152.032 1700.82,104.088 1675.7,56.145C1669.42,43.589 1663.72,38.452 1649.45,45.872C1636.32,52.15 1643.74,63.565 1647.16,70.985C1675.7,132.626 1705.38,180.569 1735.06,243.352C1709.38,290.153 1675.13,347.799 1653.44,395.172C1658.58,404.875 1666,406.587 1675.13,404.875C1695.68,364.922 1724.79,316.408 1749.33,276.455C1754.47,286.158 1762.46,298.715 1766.45,306.705Z" style="fill:white;fill-rule:nonzero;stroke:white;stroke-width:13.32px;"/>
    </g>
</svg>
