<?xml version="1.0" encoding="UTF-8" standalone="no"?>
<!DOCTYPE svg PUBLIC "-//W3C//DTD SVG 1.1//EN" "http://www.w3.org/Graphics/SVG/1.1/DTD/svg11.dtd">
<svg width="100%" height="100%" viewBox="0 0 2000 2000" version="1.1" xmlns="http://www.w3.org/2000/svg" xmlns:xlink="http://www.w3.org/1999/xlink" xml:space="preserve" xmlns:serif="http://www.serif.com/" style="fill-rule:evenodd;clip-rule:evenodd;stroke-linejoin:round;stroke-miterlimit:2;">
    <rect id="Artboard1" x="0" y="0" width="2000" height="2000" style="fill:none;"/>
    <g id="Artboard11" serif:id="Artboard1">
        <g>
            <path d="M298.464,852.881C293.898,828.909 285.907,805.508 266.502,788.956C228.262,756.994 166.05,761.56 132.375,804.937C81.008,871.715 65.027,947.625 94.706,1028.67C117.536,1093.74 208.285,1114.86 256.228,1053.21C291.615,1006.98 300.176,954.474 303.601,899.682C302.459,884.272 301.318,867.72 298.464,852.881ZM155.776,829.48C184.314,793.522 249.379,791.239 266.502,847.173C282.483,895.687 272.78,940.776 256.799,985.866C249.379,1007.55 239.677,1027.53 223.125,1044.08C191.163,1074.33 151.781,1068.05 132.375,1029.24C120.389,1005.27 117.536,979.587 118.106,959.611C118.106,908.814 125.526,865.437 155.776,829.48Z" style="fill:white;fill-rule:nonzero;stroke:white;stroke-width:13.32px;"/>
            <path d="M394.35,776.4C398.916,842.607 402.341,907.673 408.048,973.88C413.185,1021.82 416.61,1070.91 423.459,1118.28C425.742,1134.26 430.878,1138.26 444.576,1134.26C469.119,1127.98 491.949,1119.42 512.496,1105.15C595.255,1048.08 634.637,970.455 618.656,869.432C608.953,812.357 584.411,764.985 529.618,738.159C489.666,719.325 448.572,721.037 406.336,725.032C395.492,726.174 391.497,731.31 392.067,742.725C393.209,751.287 393.78,773.546 394.35,776.4ZM427.454,752.999C438.298,749.004 448.572,750.145 457.704,751.287C514.208,759.848 561.01,786.103 580.986,843.749C596.967,887.696 592.972,933.357 577.562,977.304C559.868,1024.68 527.906,1061.78 482.817,1085.75C475.968,1089.17 469.119,1092.03 458.845,1096.02C438.869,980.729 432.02,866.579 427.454,752.999Z" style="fill:white;fill-rule:nonzero;stroke:white;stroke-width:13.32px;"/>
            <path d="M712.83,776.4C717.396,842.607 720.82,907.673 726.528,973.88C731.665,1021.82 735.089,1070.91 741.938,1118.28C744.221,1134.26 749.358,1138.26 763.056,1134.26C787.598,1127.98 810.428,1119.42 830.975,1105.15C913.734,1048.08 953.116,970.455 937.135,869.432C927.432,812.357 902.89,764.985 848.098,738.159C808.145,719.325 767.051,721.037 724.816,725.032C713.971,726.174 709.976,731.31 710.547,742.725C711.688,751.287 712.259,773.546 712.83,776.4ZM745.933,752.999C756.778,749.004 767.051,750.145 776.183,751.287C832.688,759.848 879.489,786.103 899.466,843.749C915.447,887.696 911.451,933.357 896.041,977.304C878.348,1024.68 846.386,1061.78 801.296,1085.75C794.447,1089.17 787.598,1092.03 777.325,1096.02C757.348,980.729 750.499,866.579 745.933,752.999Z" style="fill:white;fill-rule:nonzero;stroke:white;stroke-width:13.32px;"/>
            <path d="M1033.02,1008.7C1030.17,1025.82 1033.02,1041.8 1037.02,1057.21C1048.43,1105.72 1082.68,1135.97 1124.91,1137.12C1171.14,1138.83 1211.1,1112.57 1223.08,1068.62C1236.78,1018.97 1222.51,973.88 1188.27,935.64C1159.16,903.677 1121.49,880.847 1087.24,854.022C1068.41,839.183 1060.42,818.065 1064.98,794.093C1068.98,770.692 1084.96,755.853 1107.79,750.145C1131.76,744.438 1153.45,749.574 1171.14,769.551C1179.7,779.254 1181.99,792.952 1191.12,802.654C1212.24,796.947 1215.09,791.81 1206.53,773.546C1192.26,742.725 1167.72,725.603 1134.04,721.608C1078.68,714.188 1025.6,759.277 1026.17,815.782C1026.74,844.89 1042.15,866.579 1064.41,884.843C1094.66,909.385 1128.91,927.649 1155.73,957.328C1179.7,983.583 1197.4,1011.55 1196.26,1049.22C1193.97,1093.17 1147.17,1121.13 1108.36,1101.16C1082.11,1087.46 1060.99,1045.22 1066.12,1014.97C1067.27,1008.12 1068.98,1000.71 1067.27,993.285C1043.3,980.729 1037.59,983.583 1033.02,1008.7Z" style="fill:white;fill-rule:nonzero;stroke:white;stroke-width:13.32px;"/>
            <path d="M1377.18,989.861C1376.04,1030.38 1372.62,1068.62 1373.76,1101.73C1374.33,1111.43 1387.46,1118.85 1398.3,1118.28C1409.15,1117.14 1414.85,1113.14 1414.28,1100.02C1411.43,1072.05 1410.86,1043.51 1410.86,1014.4C1410.86,953.333 1412,892.262 1412,831.192C1412.57,817.494 1412,803.225 1412,789.527C1432.55,783.82 1450.81,779.254 1469.08,773.546C1487.91,768.98 1491.34,758.136 1482.77,739.872L1477.07,739.872C1438.83,746.15 1402.3,758.707 1365.2,770.122C1345.79,776.4 1325.82,783.82 1305.84,791.239C1294.43,795.805 1295,805.508 1297.85,813.499C1301.28,823.201 1308.69,817.494 1314.4,815.782C1333.81,808.933 1359.49,800.371 1379.47,796.376C1381.75,864.866 1378.9,919.088 1377.18,989.861Z" style="fill:white;fill-rule:nonzero;stroke:white;stroke-width:13.32px;"/>
            <path d="M1563.82,776.4C1563.25,877.994 1566.67,979.587 1574.09,1080.61C1575.81,1108.58 1576.95,1110.29 1608.34,1104.58C1600.35,987.007 1599.21,869.432 1595.21,750.716C1570.1,750.145 1564.39,755.853 1563.82,776.4Z" style="fill:white;fill-rule:nonzero;stroke:white;stroke-width:13.32px;"/>
            <path d="M1814.95,1000.71C1832.64,1036.66 1845.77,1066.91 1865.75,1106.87C1875.45,1121.7 1879.45,1117.14 1889.72,1113.71C1899.42,1110.86 1897.14,1102.3 1893.72,1094.88C1873.74,1044.65 1848.63,996.71 1824.08,947.625C1820.09,940.776 1821.23,935.64 1824.65,928.791C1852.62,880.277 1882.87,834.616 1914.83,790.098C1918.26,784.961 1922.25,780.966 1918.83,773.546C1905.7,768.409 1894.86,768.98 1885.15,782.107C1866.32,807.22 1846.91,832.904 1830.36,860.3C1822.37,874.569 1812.67,888.267 1803.54,903.677C1800.68,899.111 1799.54,896.828 1798.4,893.404C1773.29,846.032 1749.32,798.088 1724.2,750.145C1717.92,737.589 1712.22,732.452 1697.95,739.872C1684.82,746.15 1692.24,757.565 1695.66,764.985C1724.2,826.626 1753.88,874.569 1783.56,937.352C1757.88,984.153 1723.63,1041.8 1701.94,1089.17C1707.08,1098.88 1714.5,1100.59 1723.63,1098.88C1744.18,1058.92 1773.29,1010.41 1797.83,970.455C1802.97,980.158 1810.96,992.715 1814.95,1000.71Z" style="fill:white;fill-rule:nonzero;stroke:white;stroke-width:13.32px;"/>
        </g>
    </g>
</svg>
