<svg xmlns="http://www.w3.org/2000/svg" xmlns:xlink="http://www.w3.org/1999/xlink" width="2000" zoomAndPan="magnify" viewBox="0 0 1500 1499.999933" height="2000" preserveAspectRatio="xMidYMid meet" version="1.0"><path stroke-linecap="round" transform="matrix(0.993527, 0, 0, 0.99352, -173.367638, -458.417621)" fill-opacity="1" fill="#ffffff" fill-rule="evenodd" stroke-linejoin="round" d="M 787.405845 1726.530542 C 761.912705 1724.320912 735.397324 1722.189917 707.663116 1721.269893 C 694.098752 1720.809881 685.783208 1709.191631 684.312752 1687.779452 C 681.690309 1649.578804 698.970128 1576.948033 717.873739 1504.089222 L 715.459676 1504.171789 C 713.395533 1504.230765 711.417889 1503.338263 710.104701 1501.749846 C 708.791513 1500.161428 708.288256 1498.050092 708.744333 1496.029185 L 717.20535 1458.689584 C 717.885534 1455.681814 720.543363 1453.53116 723.629747 1453.491843 L 731.135362 1453.409277 C 745.218709 1399.501384 757.635016 1350.150362 759.824973 1320.811824 C 760.273187 1314.839532 760.292845 1309.759742 759.742407 1305.741519 C 759.384623 1303.119058 759.015043 1301.070628 757.89844 1299.918633 C 709.888457 1250.709152 540.864696 1133.791422 540.864696 1133.791422 C 539.040387 1132.521475 537.963102 1130.429796 537.994555 1128.208371 L 538.368067 1101.661359 C 533.516349 1096.97081 528.9831 1092.610526 524.780113 1088.659141 C 521.65048 1110.29936 513.99153 1123.368417 504.917167 1130.728608 C 490.491762 1142.429424 471.454473 1141.139818 455.157578 1133.96835 C 439.304966 1126.981673 426.644894 1114.470921 423.46808 1105.958735 C 418.463027 1092.571209 416.048963 1076.101209 419.04885 1062.898474 C 421.419665 1052.4794 426.998746 1043.939692 436.415167 1039.15085 C 449.558838 1032.459053 472.543554 1033.280783 509.096564 1053.391561 C 513.48434 1055.809572 518.163063 1059.171198 523.120936 1063.378144 C 527.728888 1067.278416 532.934458 1072.051532 538.714056 1077.520562 L 539.095431 1050.470289 C 539.134748 1047.89894 540.648452 1045.571358 542.987814 1044.501929 C 545.331106 1043.428568 548.079364 1043.809945 550.049146 1045.46127 C 550.049146 1045.46127 605.584401 1092.158377 677.727156 1149.18806 C 730.463041 1190.880081 782.506947 1209.040722 814.978854 1216.841266 C 835.266423 1221.720538 847.788886 1222.518678 847.788886 1222.518678 C 850.470305 1222.679879 852.793939 1224.449156 853.67464 1226.989051 C 853.67464 1226.989051 861.074099 1248.330458 870.317524 1272.730749 L 873.804942 1253.650083 C 873.962209 1237.71873 874.111614 1220.690426 874.257087 1202.478672 C 874.26495 1201.660873 874.382901 1200.870596 874.595213 1200.119636 C 788.506721 1194.689923 702.335663 1154.680681 658.170882 1049.459835 C 658.084385 1049.251454 658.005751 1049.050936 657.93498 1048.838622 C 632.241324 971.839704 626.363433 907.473421 634.250422 853.958701 C 632.080124 855.220785 629.909826 856.494664 627.731665 857.780338 C 625.950605 858.830109 623.780307 859.003105 621.857706 858.24035 C 619.931173 857.477595 618.468581 855.869519 617.890621 853.880066 C 609.315584 824.368532 616.321873 784.756395 638.127078 750.668332 C 638.496658 750.086437 638.956667 749.567449 639.487446 749.127095 C 646.957675 742.914969 655.269288 736.989858 664.327924 731.383217 C 715.333861 643.446237 811.817767 584.053587 922.357499 584.053587 C 938.992519 584.053587 955.309072 585.398237 971.201002 587.985313 C 970.847149 583.487419 970.784241 578.659259 971.189207 573.646309 C 971.086982 568.900716 969.801317 564.233757 967.768628 559.814498 L 960.687637 548.487195 C 956.115071 542.703627 950.732574 537.804696 946.010603 534.336914 C 943.639788 532.59516 943.128667 529.261056 944.866478 526.890226 C 946.608221 524.519395 949.946234 524.008271 952.313117 525.746093 C 960.41635 531.698726 969.852429 541.335386 975.836475 552.521146 C 982.728745 534.289734 998.14887 516.152682 1029.850163 504.294597 C 1031.521135 503.669453 1036.730637 501.939494 1044.318817 500.256715 L 1044.330612 500.256715 C 1063.108409 496.100881 1096.590762 492.306765 1126.959209 506.126782 C 1138.589176 511.422816 1149.778793 519.274473 1159.549066 530.645024 C 1168.308893 540.851784 1175.948185 553.912977 1181.680603 570.571699 C 1191.958065 558.890542 1187.059168 562.452686 1212.898297 542.833374 C 1215.249453 541.056234 1218.591398 541.512314 1220.368526 543.855622 C 1222.141722 546.198931 1221.689577 549.54483 1219.350216 551.32197 C 1191.619939 572.368498 1200.611736 565.755335 1185.278108 582.496624 C 1186.748564 588.09147 1188.030298 594.040171 1189.091856 600.362386 C 1189.398529 602.202434 1189.591182 604.938915 1189.528275 608.371311 C 1217.958394 598.125234 1244.721473 608.713371 1249.581053 610.655644 C 1252.309653 611.748664 1253.638567 614.850795 1252.549486 617.579413 C 1251.460406 620.311963 1248.358295 621.640886 1245.621832 620.551798 C 1243.711026 619.785111 1237.86852 617.433939 1229.761356 615.912361 L 1199.601289 616.439213 C 1195.929082 617.331714 1192.201831 618.589867 1188.470648 620.300167 C 1186.390779 630.766422 1179.478851 643.591711 1169.079506 654.152327 C 1160.241045 663.124525 1148.961 670.437535 1136.269474 673.453169 C 1162.910669 700.644984 1184.220481 732.900863 1198.520072 768.59307 C 1206.371676 775.123666 1213.798656 781.92162 1220.749901 788.955478 C 1221.268885 789.474466 1221.689577 790.079951 1222.01984 790.73655 C 1238.301007 824.246649 1238.481866 855.228648 1233.060052 885.361395 C 1232.611838 887.806928 1230.8583 889.808177 1228.491417 890.559136 C 1226.120602 891.310096 1223.529612 890.692815 1221.760348 888.95106 C 1221.229568 888.424209 1220.698789 887.905221 1220.160146 887.382302 C 1220.718447 972.869816 1185.911112 1064.459369 1095.15176 1139.500288 C 1062.911824 1166.161321 1001.160552 1191.729334 932.819751 1198.818235 C 919.349749 1200.221861 905.632049 1200.909913 891.843579 1200.760508 C 891.965462 1201.35813 892.028369 1201.979343 892.024437 1202.620214 C 891.82392 1227.291794 891.619472 1249.789129 891.399297 1270.340259 C 905.734273 1238.481485 917.077226 1219.168848 917.077226 1219.168848 C 918.07981 1217.470342 919.786167 1216.290825 921.73629 1215.968423 C 921.73629 1215.968423 937.510269 1213.349894 963.557778 1207.078791 C 1029.810846 1191.119916 1162.309119 1151.621799 1271.079586 1071.379206 C 1272.679788 1070.199689 1274.739998 1069.790789 1276.670463 1070.278323 C 1278.608791 1070.781584 1280.220788 1072.110507 1281.070035 1073.919101 C 1284.52993 1081.298951 1287.250666 1088.238447 1289.381647 1094.678614 C 1291.410404 1092.260602 1293.329074 1089.929089 1295.141587 1087.688005 C 1313.258858 1062.709751 1349.760757 1057.751845 1377.640438 1060.468667 C 1391.448566 1061.829044 1405.209515 1066.48814 1416.108186 1071.961102 C 1420.731864 1073.05019 1424.620315 1074.438089 1427.781402 1076.160185 C 1436.108741 1080.689533 1440.531903 1087.208335 1441.239609 1096.090103 C 1441.620984 1100.89074 1440.280274 1106.281136 1437.048417 1111.691191 C 1433.250396 1118.060587 1426.680526 1124.709135 1418.109421 1130.398343 C 1399.111449 1143.011319 1370.209526 1150.961269 1343.041482 1141.839665 C 1327.86119 1136.74808 1313.089795 1126.399777 1300.968366 1108.329566 C 1298.978926 1110.668942 1296.899057 1113.071227 1294.728759 1115.528556 C 1297.87805 1133.001145 1296.368277 1144.15152 1295.88861 1146.919454 L 1295.629118 1148.610097 L 1294.779871 1150.548437 C 1293.989599 1151.92061 1292.031613 1154.169557 1288.799756 1156.941424 C 1257.990959 1183.280055 1088.499325 1286.660853 989.75076 1299.018268 C 979.264917 1354.121405 976.520591 1378.930595 988.697064 1450.4998 L 998.302206 1450.389711 C 1001.459361 1450.358257 1004.211551 1452.540365 1004.891735 1455.618907 L 1011.72896 1486.750312 C 1012.149652 1488.688652 1011.701438 1490.70956 1010.47868 1492.278318 C 1009.259853 1493.839213 1007.419817 1494.778896 1005.430377 1494.849667 L 996.957565 1495.120956 C 1006.200991 1542.309529 1019.741764 1605.551339 1038.539219 1695.261527 C 1039.140769 1698.13955 1037.780401 1701.080481 1035.189411 1702.488039 C 1011.418356 1715.391963 987.242336 1723.38123 962.378268 1728.001007 C 972.396238 1780.159282 980.892641 1829.211493 986.522835 1862.308761 C 1009.90072 1856.049454 1038.000576 1850.631536 1063.698164 1850.309134 C 1084.430016 1850.04964 1103.640299 1853.179294 1118.108954 1861.219673 C 1129.381136 1867.478981 1133.879 1875.20089 1134.519867 1882.588603 C 1135.148939 1889.909476 1131.838448 1897.788655 1124.67096 1905.038757 C 1109.561439 1920.360693 1075.611214 1934.098143 1045.309606 1935.828102 C 1023.48081 1937.070528 1003.739747 1931.860991 992.825349 1918.768344 C 985.03272 1909.4187 974.063279 1895.138672 970.658427 1875.008236 C 966.380738 1849.750829 959.928819 1811.829334 952.128327 1769.339173 L 942.09463 1731.028436 C 923.768979 1733.151568 905.038362 1733.709873 885.792693 1733.320632 C 885.710128 1733.320632 885.62363 1733.320632 885.541065 1733.320632 C 872.25192 1733.04148 858.715079 1732.310179 844.895155 1731.339043 C 831.983454 1730.419019 818.820124 1729.290614 805.377643 1728.111096 C 790.767448 1784.838036 778.62636 1834.609753 773.334292 1852.750736 C 773.314634 1852.82937 773.291044 1852.900141 773.267453 1852.978776 C 763.721287 1885.568851 751.320707 1904.720288 733.97798 1916.008272 C 716.847566 1927.158647 694.452605 1930.681473 663.620218 1930.618565 C 641.99587 1930.591043 622.691226 1915.768437 616.070244 1898.508161 C 611.210663 1885.851935 612.669324 1871.980807 623.697741 1860.810774 C 636.530808 1847.828215 655.497327 1840.770767 676.756026 1837.841631 C 703.448334 1834.149741 733.801054 1836.850837 758.346654 1840.401185 C 764.157706 1819.059777 774.608163 1776.809452 786.989085 1728.799148 Z M 787.405845 1726.530542 " stroke="#fdf6ed" stroke-width="23.26" stroke-opacity="1" stroke-miterlimit="1.5"/><path fill="#ffffff" d="M 1120.375 627.558594 C 1123.910156 624.707031 1127.277344 622.363281 1130.476562 620.605469 C 1160.542969 604.054688 1182.507812 611.890625 1200.828125 612.160156 C 1231.777344 612.605469 1248.648438 616.9375 1249.789062 631.265625 C 1251.917969 657.824219 1162.351562 707.796875 1120.375 627.558594 Z M 1120.375 627.558594 " fill-opacity="1" fill-rule="evenodd"/><path fill="#ffffff" d="M 340.691406 604.769531 C 338.457031 701.25 263.144531 657.554688 255.578125 637.304688 C 243.382812 604.660156 247.367188 551.355469 328.203125 595.835938 C 332.117188 597.992188 336.269531 601.023438 340.691406 604.769531 Z M 340.691406 604.769531 " fill-opacity="1" fill-rule="evenodd"/><path stroke-linecap="round" transform="matrix(0.993527, 0, 0, 0.99352, -244.90159, -330.253468)" fill="none" stroke-linejoin="round" d="M 900.625784 1145.24838 C 773.502144 1120.679025 673.920059 1021.800053 617.118796 966.893502 C 606.294827 956.435111 597.02388 947.56907 589.408178 941.117108 C 584.957494 937.346582 580.778097 934.299495 576.838534 932.133114 C 495.475945 887.362552 491.465611 941.010951 503.740377 973.868384 C 511.356079 994.25045 587.159246 1038.230735 589.408178 941.117108 " stroke="#000000" stroke-width="17.67" stroke-opacity="1" stroke-miterlimit="1.5"/><path stroke-linecap="round" transform="matrix(-0.993527, 0, 0, 0.99352, 1703.584111, -305.491957)" fill="none" stroke-linejoin="round" d="M 961.349802 1127.599072 C 780.192816 1125.880908 659.049291 1020.99819 602.189052 957.02508 C 596.480225 950.60064 591.416196 944.585099 587.008761 939.131795 C 570.762978 916.500782 537.540117 912.883594 512.396899 915.344854 C 499.418359 916.614802 486.498794 921.089106 476.3786 926.259325 C 464.929491 932.113665 457.06216 938.860506 456.743693 942.870867 C 454.60878 969.60267 544.758718 1019.889444 587.008761 939.131795 " stroke="#000000" stroke-width="17.67" stroke-opacity="1" stroke-miterlimit="1.5"/><path stroke-linecap="round" transform="matrix(2.162998, 0, 0, 2.357743, -1411.540861, -1910.010671)" fill="none" stroke-linejoin="round" d="M 1128.619205 983.315317 C 1130.869409 1020.130511 1115.889116 1060.350377 1072.880594 1092.970618 C 1036.949562 1120.229534 918.595311 1144.110287 878.490745 1056.46027 C 865.766074 1021.480782 863.772313 992.825204 869.040248 969.512725 C 870.318855 963.853182 872.025471 958.51174 874.109529 953.466861 C 876.363345 948.014415 879.057811 942.913205 882.131525 938.145007 C 885.718127 932.578243 889.823035 927.465436 894.345115 922.776763 C 896.57726 920.460592 898.912343 918.248798 901.337724 916.134753 C 935.401412 886.463572 987.168755 876.562685 1023.329143 876.887413 C 1035.519255 876.99676 1045.930514 878.26585 1053.300565 880.331848 C 1054.060867 880.545572 1054.810333 880.770893 1055.570635 881.009469 C 1061.329786 882.820324 1066.960715 885.340278 1072.389378 888.486494 C 1090.880424 899.205827 1106.940671 917.161953 1117.149664 938.880615 C 1117.790773 940.245797 1118.410212 941.627548 1119.009785 943.022552 C 1124.169363 955.126949 1127.530222 968.286712 1128.519878 981.935223 " stroke="#000000" stroke-width="7.76" stroke-opacity="1" stroke-miterlimit="1.5"/><path stroke-linecap="round" transform="matrix(0.912922, 0, 0, 0.912916, -143.603654, -495.589369)" fill="none" stroke-linejoin="round" d="M 928.515204 1349.439577 C 926.303043 1620.167967 923.829872 1650.218471 907.754264 1681.000663 C 874.161079 1745.342032 813.932104 2005.779739 799.700677 2054.451887 C 780.62988 2119.670424 752.017266 2132.250303 689.631755 2132.139052 C 657.270875 2132.079148 630.549509 2095.387837 653.039101 2072.619969 C 684.509981 2040.76806 754.451926 2047.2805 799.700677 2054.451887 " stroke="#000000" stroke-width="19.33" stroke-opacity="1" stroke-miterlimit="1.5"/><path stroke-linecap="round" transform="matrix(0.912922, 0, 0, 0.912916, -143.603654, -495.589369)" fill="none" stroke-linejoin="round" d="M 920.757664 1650.000249 C 957.174885 1635.161128 1014.519921 1968.78035 1033.291199 2079.671547 C 1036.65009 2099.508389 1047.629597 2113.500294 1055.310118 2122.708422 C 1091.61181 2166.250204 1236.069783 2106.140637 1179.542006 2074.720894 C 1143.390073 2054.631599 1077.380383 2066.740801 1033.291199 2079.671547 " stroke="#000000" stroke-width="19.33" stroke-opacity="1" stroke-miterlimit="1.5"/><path stroke-linecap="round" transform="matrix(0.993527, 0, 0, 0.99352, -173.367638, -458.417621)" fill-opacity="1" fill="#000000" fill-rule="evenodd" stroke-linejoin="round" d="M 979.414322 1873.529907 C 1019.930485 1861.648231 1080.580882 1850.529311 1113.799811 1868.988763 C 1165.741493 1897.859426 1033.01125 1953.088378 999.650779 1913.079137 C 992.589447 1904.618063 985.77188 1890.900271 979.414322 1873.529907 Z M 979.414322 1873.529907 " stroke="#000000" stroke-width="17.67" stroke-opacity="1" stroke-miterlimit="1.5"/><path stroke-linecap="round" transform="matrix(0.993527, 0, 0, 0.99352, -173.367638, -458.417621)" fill-opacity="1" fill="#000000" fill-rule="evenodd" stroke-linejoin="round" d="M 764.778914 1850.360246 C 747.25533 1910.291543 720.964055 1921.850817 663.639876 1921.740729 C 633.904433 1921.689616 609.350969 1887.978999 630.015982 1867.058286 C 658.933632 1837.790519 723.205124 1843.770674 764.778914 1850.360246 Z M 764.778914 1850.360246 " stroke="#000000" stroke-width="17.67" stroke-opacity="1" stroke-miterlimit="1.5"/><path stroke-linecap="round" transform="matrix(0.655911, 0, 0, 0.613719, -25104.132924, -6808.570714)" fill-opacity="1" fill="#6a3fa0" fill-rule="evenodd" stroke-linejoin="round" d="M 39006.395739 11568.401274 C 39076.60463 11410.596689 39229.397851 11301.101578 39406.501252 11301.101578 C 39434.998116 11301.101578 39462.798193 11303.902128 39489.800238 11309.29955 C 39506.499341 11312.698398 39522.900672 11317.00106 39538.897031 11322.296644 C 39550.998521 11326.300157 39562.802238 11330.80013 39574.302227 11335.80293 C 39443.103494 11352.89901 39202.395806 11433.70122 39006.395739 11568.401274 Z M 39006.395739 11568.401274 " stroke="#000000" stroke-width="16.67" stroke-opacity="1" stroke-miterlimit="1.5"/><path stroke-linecap="round" transform="matrix(0.655911, 0, 0, 0.613719, -25104.132924, -6808.570714)" fill-opacity="1" fill="#6a3fa0" fill-rule="evenodd" stroke-linejoin="round" d="M 38998.600045 11586.897629 C 39001.101337 11580.602758 39003.697917 11574.498834 39006.395739 11568.401274 C 39202.395806 11433.70122 39443.103494 11352.89901 39574.302227 11335.80293 C 39585.397244 11340.500214 39596.200445 11345.802163 39606.801159 11351.403262 C 39611.196287 11353.700985 39615.502083 11356.202385 39619.801923 11358.601946 C 39426.600921 11443.299466 39294.199186 11582.601332 38998.600045 11586.897629 Z M 38998.600045 11586.897629 " stroke="#000000" stroke-width="16.67" stroke-opacity="1" stroke-miterlimit="1.5"/><path stroke-linecap="round" transform="matrix(0.655911, 0, 0, 0.613719, -25104.132924, -6808.570714)" fill-opacity="1" fill="#6a3fa0" fill-rule="evenodd" stroke-linejoin="round" d="M 39004.198175 11644.697147 C 38996.700254 11642.399423 38989.196377 11639.999862 38981.799699 11637.6003 C 38986.498555 11620.300544 38992.102641 11603.299937 38998.600045 11586.897629 C 39009.498533 11586.700318 39020.20049 11586.401168 39030.699962 11585.898342 C 39214.997555 11576.802922 39333.99951 11513.796929 39448.898155 11448.703254 C 39499.19795 11420.2013 39548.699714 11391.298359 39602.602562 11366.39893 C 39608.301935 11363.700219 39614.001308 11361.198819 39619.801923 11358.601946 C 39635.196781 11367.601893 39650.002049 11377.499289 39664.301103 11388.19866 C 39662.198826 11390.502748 39660.197793 11392.800472 39658.101472 11395.098195 C 39650.198579 11403.798992 39641.801384 11412.798939 39632.897975 11422.002562 C 39617.199388 11438.099356 39599.696298 11454.902651 39580.400615 11471.699582 C 39570.800418 11480.101229 39560.801204 11488.502877 39550.301732 11496.89816 C 39519.303575 11521.498439 39484.196152 11545.901407 39444.199299 11568.700424 C 39328.103607 11563.799463 39025.298362 11651.10022 39004.198175 11644.697147 Z M 39004.198175 11644.697147 " stroke="#000000" stroke-width="16.67" stroke-opacity="1" stroke-miterlimit="1.5"/><path stroke-linecap="round" transform="matrix(0.655911, 0, 0, 0.613719, -25104.132924, -6808.570714)" fill-opacity="1" fill="#6a3fa0" fill-rule="evenodd" stroke-linejoin="round" d="M 39847.699422 11759.997032 C 39846.299889 11759.799721 39844.900357 11759.602409 39843.500824 11759.398733 C 39843.399581 11757.59747 39843.298339 11755.898046 39843.197096 11754.096784 C 39765.895255 11678.69836 39725.10037 11597.902515 39636.798799 11568.401274 C 39612.399289 11528.302501 39557.001622 11518.69789 39550.301732 11496.89816 C 39560.801204 11488.502877 39570.800418 11480.101229 39580.400615 11471.699582 C 39599.696298 11454.902651 39617.199388 11438.099356 39632.897975 11422.002562 C 39637.102528 11426.801685 39640.997397 11431.600808 39644.701692 11436.298093 C 39660.400278 11456.302926 39671.799024 11474.799281 39683.698029 11492.697336 C 39690.201388 11502.39742 39696.800035 11511.798355 39704.399199 11521.301128 C 39726.303373 11548.49828 39755.896042 11575.198971 39811.799923 11604.598373 C 39815.397019 11606.501474 39819.101314 11608.398209 39823.002139 11610.30131 C 39838.49824 11656.796792 39847.199163 11706.602015 39847.699422 11758.501284 C 39847.699422 11758.997745 39847.699422 11759.500571 39847.699422 11759.997032 Z M 39847.699422 11759.997032 " stroke="#000000" stroke-width="16.67" stroke-opacity="1" stroke-miterlimit="1.5"/><path stroke-linecap="round" transform="matrix(0.655911, 0, 0, 0.613719, -25104.132924, -6808.570714)" fill-opacity="1" fill="#6a3fa0" fill-rule="evenodd" stroke-linejoin="round" d="M 39713.100123 11431.002509 C 39762.000386 11480.502217 39800.002161 11541.700583 39823.002139 11610.30131 C 39739.196939 11568.299436 39710.104528 11532.102337 39683.698029 11492.697336 C 39671.799024 11474.799281 39660.400278 11456.302926 39644.701692 11436.298093 C 39640.997397 11431.600808 39637.102528 11426.801685 39632.897975 11422.002562 C 39644.201433 11410.29754 39654.599662 11398.999869 39664.301103 11388.19866 C 39668.803429 11391.597508 39673.198557 11395.098195 39677.59964 11398.70072 C 39689.998903 11408.801792 39701.80262 11419.596636 39713.100123 11431.002509 Z M 39713.100123 11431.002509 " stroke="#000000" stroke-width="16.67" stroke-opacity="1" stroke-miterlimit="1.5"/><path stroke-linecap="round" transform="matrix(0.655911, 0, 0, 0.613719, -25104.132924, -6808.570714)" fill-opacity="1" fill="#6a3fa0" fill-rule="evenodd" stroke-linejoin="round" d="M 39759.701579 11211.700409 C 39774.602134 11230.203128 39787.197927 11255.000719 39795.803564 11287.601658 C 39798.501386 11297.70273 39800.69895 11308.599413 39802.604696 11320.298071 C 39803.301485 11325.097194 39803.498015 11334.001667 39802.300968 11345.401176 C 39798.900402 11377.798439 39761.303597 11429.901384 39713.100123 11431.002509 C 39701.80262 11419.596636 39689.998903 11408.801792 39677.59964 11398.70072 C 39696.895323 11374.800578 39714.201883 11349.099174 39728.101921 11320.100759 C 39743.300249 11288.499107 39754.395267 11252.900307 39759.701579 11211.700409 Z M 39759.701579 11211.700409 " stroke="#000000" stroke-width="16.67" stroke-opacity="1" stroke-miterlimit="1.5"/><path stroke-linecap="round" transform="matrix(0.655911, 0, 0, 0.613719, -25104.132924, -6808.570714)" fill-opacity="1" fill="#6a3fa0" fill-rule="evenodd" stroke-linejoin="round" d="M 39593.002364 11165.3004 C 39620.302182 11158.801852 39668.999959 11152.697928 39713.100123 11174.198508 C 39729.697984 11182.301007 39745.700298 11194.298814 39759.701579 11211.700409 C 39754.395267 11252.900307 39743.300249 11288.499107 39728.101921 11320.100759 C 39714.201883 11349.099174 39696.895323 11374.800578 39677.59964 11398.70072 C 39673.198557 11395.098195 39668.803429 11391.597508 39664.301103 11388.19866 C 39650.002049 11377.499289 39635.196781 11367.601893 39619.801923 11358.601946 C 39615.502083 11356.202385 39611.196287 11353.700985 39606.801159 11351.403262 C 39596.200445 11345.802163 39585.397244 11340.500214 39574.302227 11335.80293 C 39562.802238 11330.80013 39550.998521 11326.300157 39538.897031 11322.296644 C 39542.39884 11250.500746 39560.896492 11202.401312 39593.002364 11165.3004 Z M 39593.002364 11165.3004 " stroke="#000000" stroke-width="16.67" stroke-opacity="1" stroke-miterlimit="1.5"/><path stroke-linecap="round" transform="matrix(0.655911, 0, 0, 0.613719, -25104.132924, -6808.570714)" fill-opacity="1" fill="#6a3fa0" fill-rule="evenodd" stroke-linejoin="round" d="M 39489.800238 11309.29955 C 39488.400705 11299.497628 39487.602674 11288.098119 39488.603191 11275.903 C 39491.396301 11239.400387 39509.697422 11196.399226 39572.19995 11171.499797 C 39574.6 11170.50051 39582.103876 11167.801799 39593.002364 11165.3004 C 39560.896492 11202.401312 39542.39884 11250.500746 39538.897031 11322.296644 C 39522.900672 11317.00106 39506.499341 11312.698398 39489.800238 11309.29955 Z M 39489.800238 11309.29955 " stroke="#000000" stroke-width="16.67" stroke-opacity="1" stroke-miterlimit="1.5"/><path stroke-linecap="round" transform="matrix(0.655911, 0, 0, 0.613719, -25069.799727, -6843.780871)" fill="none" stroke-linejoin="round" d="M 39611.897254 11445.602283 C 39609.89622 11447.798168 39607.895186 11450.102256 39605.798865 11452.501818 C 39597.895973 11461.202615 39589.498777 11470.100724 39580.601324 11479.297982 C 39564.801494 11495.502979 39547.399647 11512.198071 39528.103964 11529.09684 C 39518.497811 11537.498487 39508.498598 11545.900135 39497.999126 11554.199945 C 39467.000969 11578.800224 39431.798258 11603.298665 39391.896692 11626.097682 M 39069.104931 11663.796894 C 39045.699982 11659.799746 38973.001711 11708.497478 38951.895569 11702.100769 C 38944.397647 11699.796681 38936.899726 11697.403484 38929.497092 11694.997558 " stroke="#000000" stroke-width="16.67" stroke-opacity="1" stroke-miterlimit="1.5"/><path stroke-linecap="round" transform="matrix(0.655911, 0, 0, 0.613719, -25069.799727, -6843.780871)" fill="none" stroke-linejoin="round" d="M 38946.303394 11644.199414 C 39241.89658 11639.99859 39374.298315 11500.703089 39567.398074 11415.999204 " stroke="#000000" stroke-width="16.67" stroke-opacity="1" stroke-miterlimit="1.5"/><path stroke-linecap="round" transform="matrix(0.655911, 0, 0, 0.613719, -25069.799727, -6843.780871)" fill="none" stroke-linejoin="round" d="M 39521.99962 11393.098349 C 39390.800888 11410.200794 39150.099155 11491.098478 38953.997845 11625.703059 " stroke="#000000" stroke-width="16.67" stroke-opacity="1" stroke-miterlimit="1.5"/><path stroke-linecap="round" transform="matrix(0.655911, 0, 0, 0.613719, -25069.799727, -6843.780871)" fill="none" stroke-linejoin="round" d="M 39795.301528 11817.400655 C 39793.997283 11817.203343 39792.603706 11816.999667 39791.198218 11816.802356 " stroke="#000000" stroke-width="16.67" stroke-opacity="1" stroke-miterlimit="1.5"/><path stroke-linecap="round" transform="matrix(0.655911, 0, 0, 0.613719, -25069.799727, -6843.780871)" fill="none" stroke-linejoin="round" d="M 39580.601324 11479.297982 C 39584.799921 11484.198943 39588.700746 11488.902593 39592.399085 11493.599878 C 39608.002384 11513.598346 39619.502373 11532.202903 39631.395422 11550.100959 C 39657.801921 11589.499595 39686.900287 11625.703059 39770.604245 11667.698568 " stroke="#000000" stroke-width="16.67" stroke-opacity="1" stroke-miterlimit="1.5"/><path stroke-linecap="round" transform="matrix(0.655911, 0, 0, 0.613719, -25069.799727, -6843.780871)" fill="none" stroke-linejoin="round" d="M 39437.396389 11366.703173 C 39431.798258 11327.202699 39436.6996 11262.102658 39519.802056 11228.801582 C 39522.303348 11227.897768 39529.80127 11225.199057 39540.699757 11222.602184 C 39567.999575 11216.19911 39616.602065 11210.101551 39660.803472 11231.602131 C 39677.395377 11239.698264 39693.397692 11251.702437 39707.303685 11269.002193 C 39722.299528 11287.600386 39734.895321 11312.302504 39743.500957 11344.998916 C 39746.103492 11355.099988 39748.396343 11366.003035 39750.30209 11377.701693 C 39750.998878 11382.500816 39751.201364 11391.398925 39749.998361 11402.70296 C 39746.603751 11435.202061 39708.899748 11487.203169 39660.803472 11488.399767 " stroke="#000000" stroke-width="16.67" stroke-opacity="1" stroke-miterlimit="1.5"/><path stroke-linecap="round" transform="matrix(0.655911, 0, 0, 0.613719, -25069.799727, -6843.780871)" fill="none" stroke-linejoin="round" d="M 39486.60038 11379.700267 C 39490.102189 11307.898003 39508.59984 11259.703097 39540.699757 11222.602184 " stroke="#000000" stroke-width="16.67" stroke-opacity="1" stroke-miterlimit="1.5"/><path stroke-linecap="round" transform="matrix(0.655911, 0, 0, 0.613719, -25069.799727, -6843.780871)" fill="none" stroke-linejoin="round" d="M 39554.498553 11408.80052 C 39554.897568 11324.497623 39582.000856 11285.398136 39666.300359 11234.899141 " stroke="#000000" stroke-width="16.67" stroke-opacity="1" stroke-miterlimit="1.5"/><path stroke-linecap="round" transform="matrix(0.655911, 0, 0, 0.613719, -25069.799727, -6843.780871)" fill="none" stroke-linejoin="round" d="M 39625.302989 11456.097978 C 39644.604627 11432.197836 39661.899276 11406.502796 39675.799314 11377.498017 C 39690.997642 11345.800892 39702.104571 11310.297565 39707.303685 11269.002193 " stroke="#000000" stroke-width="16.67" stroke-opacity="1" stroke-miterlimit="1.5"/><path stroke-linecap="round" transform="matrix(0.655911, 0, 0, 0.613719, -25069.799727, -6843.780871)" fill="none" stroke-linejoin="round" d="M 39743.500957 11344.998916 C 39771.497564 11312.798965 39754.60193 11326.101574 39799.196397 11289.999948 " stroke="#000000" stroke-width="16.67" stroke-opacity="1" stroke-miterlimit="1.5"/><path stroke-linecap="round" transform="matrix(0.655911, 0, 0, 0.613719, -25069.799727, -6843.780871)" fill="none" stroke-linejoin="round" d="M 39749.998361 11402.70296 C 39794.396298 11378.497304 39839.300449 11397.700161 39846.79837 11400.901698 " stroke="#000000" stroke-width="16.67" stroke-opacity="1" stroke-miterlimit="1.5"/><path stroke-linecap="round" transform="matrix(0.655911, 0, 0, 0.613719, -25069.799727, -6843.780871)" fill="none" stroke-linejoin="round" d="M 39436.199342 11333.300258 C 39435.895613 11304.301844 39412.699106 11276.500028 39394.802955 11262.401808 " stroke="#000000" stroke-width="16.67" stroke-opacity="1" stroke-miterlimit="1.5"/><path stroke-linecap="round" transform="matrix(0.655911, 0, 0, 0.613719, -25074.408447, -6788.735915)" fill="none" stroke-linejoin="round" d="M 39153.302192 11717.799703 C 39160.103325 11740.29957 39209.396648 11764.6007 39248.601426 11749.102206 C 39264.603741 11742.699132 39296.298686 11712.796904 39290.30154 11701.397395 " stroke="#000000" stroke-width="20.959999" stroke-opacity="1" stroke-miterlimit="1.5"/><path stroke-linecap="round" transform="matrix(0.653141, 0.0602107, -0.0563384, 0.611128, -24323.525312, -9136.009873)" fill="none" stroke-linejoin="round" d="M 39393.104549 11710.700847 C 39441.696619 11767.403185 39535.801249 11747.898232 39535.600752 11710.698106 " stroke="#000000" stroke-width="20.959999" stroke-opacity="1" stroke-miterlimit="1.5"/><path fill="#2ca6a4" d="M 785.480469 747.257812 C 851.855469 731.28125 984.527344 691.746094 1093.386719 611.335938 C 1113.160156 653.546875 1107.5 680.375 1107.5 680.375 C 1111.101562 687.882812 911.171875 815.925781 804.367188 826.179688 C 792.757812 886.671875 789.59375 910.75 803.339844 989.375 L 696.90625 990.566406 C 699.847656 968.492188 703.890625 947.460938 708.742188 927.695312 C 728.292969 847.210938 760.929688 785.902344 785.480469 747.257812 Z M 785.480469 747.257812 " fill-opacity="1" fill-rule="evenodd"/><path fill="#2ca6a4" d="M 694.847656 990.640625 L 818.554688 989.226562 L 825.316406 1020.140625 L 704.332031 1024.007812 C 701.757812 1020.511719 698.890625 1017.390625 695.878906 1014.71875 C 698.523438 1006.839844 698.449219 998.886719 698.304688 998.292969 C 698.15625 997.773438 696.980469 994.355469 694.847656 990.640625 Z M 694.847656 990.640625 " fill-opacity="1" fill-rule="evenodd"/><path fill="#2ca6a4" d="M 809.148438 1020.664062 C 818.335938 1068.296875 832.226562 1133.101562 851.925781 1227.257812 C 805.839844 1252.300781 758.136719 1258.097656 706.683594 1257.058594 C 693.746094 1194.113281 689.117188 1111.996094 692.128906 1045.78125 C 694.40625 1050.164062 697.273438 1055.738281 701.242188 1064.136719 C 718.957031 1102.257812 719.621094 1106.347656 722.78125 1103.449219 C 731.601562 1095.648438 723.957031 1050.089844 704.332031 1024.007812 Z M 809.148438 1020.664062 " fill-opacity="1" fill-rule="evenodd"/><path fill="#2ca6a4" d="M 706.683594 1257.058594 C 693.597656 1256.761719 680.222656 1256.089844 666.550781 1255.125 C 662.433594 1217.074219 654.570312 1139.195312 658.683594 1055.21875 C 664.050781 1044.664062 666.695312 1040.503906 670.003906 1031.066406 C 673.605469 1031.882812 677.871094 1031.660156 682.648438 1030.027344 C 683.234375 1029.878906 683.898438 1029.65625 684.410156 1029.355469 C 686.761719 1035.675781 688.894531 1039.613281 692.128906 1045.78125 C 689.117188 1111.996094 693.746094 1194.113281 706.683594 1257.058594 Z M 706.683594 1257.058594 " fill-opacity="1" fill-rule="evenodd"/><path fill="#2ca6a4" d="M 666.550781 1255.125 C 624.066406 1252.078125 578.933594 1246.726562 529.90625 1245.09375 C 494.625 1243.90625 520.792969 1135.328125 548.503906 1029.058594 L 650.96875 1025.714844 C 630.164062 1051.429688 621.859375 1099.214844 630.898438 1107.238281 C 634.136719 1110.136719 634.722656 1106.125 652.511719 1068 C 654.863281 1062.800781 656.921875 1058.710938 658.683594 1055.21875 C 654.570312 1139.195312 662.433594 1217.074219 666.550781 1255.125 Z M 666.550781 1255.125 " fill-opacity="1" fill-rule="evenodd"/><path fill="#2ca6a4" d="M 558.132812 992.125 C 579.078125 912.238281 596.796875 841.191406 584.371094 828.484375 C 536.449219 779.363281 367.757812 662.613281 367.757812 662.613281 L 368.859375 585.328125 C 368.859375 585.328125 424.136719 631.773438 495.875 688.550781 C 549.238281 730.761719 601.941406 749.117188 634.796875 756.992188 C 643.027344 788.875 657.730469 838.367188 686.324219 890.761719 C 679.339844 913.5 673.019531 938.097656 668.535156 963.738281 C 667.066406 972.136719 665.742188 980.605469 664.566406 989.152344 C 663.976562 989.75 663.464844 990.34375 662.875 990.9375 Z M 558.132812 992.125 " fill-opacity="1" fill-rule="evenodd"/><path fill="#2ca6a4" d="M 634.796875 756.992188 C 655.671875 761.972656 668.535156 762.789062 668.535156 762.789062 C 668.535156 762.789062 686.175781 813.769531 701.023438 848.101562 C 696.027344 861.332031 691.027344 875.675781 686.324219 890.761719 C 657.730469 838.367188 643.027344 788.875 634.796875 756.992188 Z M 634.796875 756.992188 " fill-opacity="1" fill-rule="evenodd"/><path fill="#2ca6a4" d="M 701.023438 848.101562 C 722.042969 792.8125 743.507812 756.25 743.507812 756.25 C 743.507812 756.25 759.3125 753.574219 785.480469 747.257812 C 760.929688 785.902344 728.292969 847.210938 708.742188 927.695312 C 703.890625 947.460938 699.847656 968.492188 696.90625 990.566406 L 694.847656 990.640625 C 691.539062 984.917969 685.808594 978.601562 677.355469 981.351562 C 672.136719 983.132812 667.875 985.808594 664.566406 989.152344 C 665.742188 980.605469 667.066406 972.136719 668.535156 963.738281 C 673.019531 938.097656 679.339844 913.5 686.324219 890.761719 C 691.027344 875.675781 696.027344 861.332031 701.023438 848.101562 Z M 701.023438 848.101562 " fill-opacity="1" fill-rule="evenodd"/><path fill="#2ca6a4" d="M 664.566406 989.152344 C 667.875 985.808594 672.136719 983.132812 677.355469 981.351562 C 685.808594 978.601562 691.539062 984.917969 694.847656 990.640625 C 696.980469 994.355469 698.15625 997.773438 698.304688 998.292969 C 698.449219 998.886719 698.523438 1006.839844 695.878906 1014.71875 C 693.894531 1020.664062 690.4375 1026.609375 684.410156 1029.355469 C 683.898438 1029.65625 683.234375 1029.878906 682.648438 1030.027344 C 677.871094 1031.660156 673.605469 1031.882812 670.003906 1031.066406 C 663.683594 1029.65625 659.347656 1024.972656 657.214844 1019.027344 C 654.203125 1010.554688 655.890625 999.332031 662.875 990.9375 C 663.464844 990.34375 663.976562 989.75 664.566406 989.152344 Z M 664.566406 989.152344 " fill-opacity="1" fill-rule="evenodd"/><path fill="#2ca6a4" d="M 695.878906 1014.71875 C 698.890625 1017.390625 701.757812 1020.511719 704.332031 1024.007812 C 723.957031 1050.089844 731.601562 1095.648438 722.78125 1103.449219 C 719.621094 1106.347656 718.957031 1102.257812 701.242188 1064.136719 C 697.273438 1055.738281 694.40625 1050.164062 692.128906 1045.78125 C 688.894531 1039.613281 686.761719 1035.675781 684.410156 1029.355469 C 690.4375 1026.609375 693.894531 1020.664062 695.878906 1014.71875 Z M 695.878906 1014.71875 " fill-opacity="1" fill-rule="evenodd"/><path fill="#2ca6a4" d="M 658.683594 1055.21875 C 656.921875 1058.710938 654.863281 1062.800781 652.511719 1068 C 634.722656 1106.125 634.136719 1110.136719 630.898438 1107.238281 C 621.859375 1099.214844 630.164062 1051.429688 650.96875 1025.714844 C 652.953125 1023.261719 655.011719 1021.035156 657.214844 1019.027344 C 659.347656 1024.972656 663.683594 1029.65625 670.003906 1031.066406 C 666.695312 1040.503906 664.050781 1044.664062 658.683594 1055.21875 Z M 658.683594 1055.21875 " fill-opacity="1" fill-rule="evenodd"/><path fill="#2ca6a4" d="M 650.96875 1025.714844 L 537.257812 1029.429688 L 545.636719 992.273438 L 662.875 990.9375 C 655.890625 999.332031 654.203125 1010.554688 657.214844 1019.027344 C 655.011719 1021.035156 652.953125 1023.261719 650.96875 1025.714844 Z M 650.96875 1025.714844 " fill-opacity="1" fill-rule="evenodd"/><path stroke-linecap="round" transform="matrix(0.735037, 0, 0, 0.743147, -13348.554017, -11849.452519)" fill="none" stroke-linejoin="round" d="M 19261.201356 17318.402228 C 19273.700721 17382.498322 19292.59857 17469.701389 19319.398866 17596.400771 C 19256.700097 17630.099316 19191.801184 17637.899759 19121.80049 17636.501567 C 19103.997398 17636.102083 19085.801044 17635.197988 19067.200799 17633.899667 C 19061.599468 17582.697432 19050.901669 17477.901316 19056.497686 17364.900018 M 19064.501106 17275.999145 C 19066.100727 17264.498222 19067.902294 17253.102426 19069.900491 17241.801245 C 19076.001372 17207.298476 19084.599999 17174.199156 19094.102067 17143.601865 C 19100.500552 17123.30179 19107.302927 17104.000424 19114.099988 17086.197122 C 19142.696537 17011.798555 19171.898922 16962.598995 19171.898922 16962.598995 C 19171.898922 16962.598995 19193.400805 16958.998386 19229.001674 16950.498846 C 19319.303208 16929.00032 19499.799987 16875.800667 19647.900454 16767.598428 C 19674.801723 16824.39869 19667.101221 16860.499394 19667.101221 16860.499394 C 19672.001057 16870.602124 19400.0017 17042.900457 19254.696585 17056.698411 C 19238.902319 17138.098453 19234.597691 17170.498677 19253.298909 17276.298757 M 19067.200799 17633.899667 C 19009.401865 17629.799703 18947.999799 17622.598486 18881.299319 17620.401326 C 18833.300058 17618.803391 18868.900927 17472.697516 18906.600967 17329.698152 M 18919.700854 17279.999237 C 18948.19643 17172.501351 18972.302347 17076.898615 18955.397382 17059.799665 C 18890.200865 16993.700896 18660.700411 16836.59871 18660.700411 16836.59871 L 18662.199059 16732.601561 C 18662.199059 16732.601561 18737.402508 16795.099721 18835.000652 16871.500962 C 18907.600066 16928.301224 18979.301354 16953.000875 19024.0004 16963.597704 C 19052.400318 16970.299567 19069.900491 16971.398147 19069.900491 16971.398147 C 19069.900491 16971.398147 19093.900122 17039.998944 19114.099988 17086.197122 " stroke="#000000" stroke-width="17.92" stroke-opacity="1" stroke-miterlimit="1.5"/><path stroke-linecap="round" transform="matrix(0.735037, 0, 0, 0.743147, -13348.554017, -11849.452519)" fill="none" stroke-linejoin="round" d="M 19101.9992 17352.200644 C 19097.901832 17441.301258 19104.199343 17551.800528 19121.80049 17636.501567 M 19229.001674 16950.498846 C 19195.600948 17002.500049 19151.199506 17084.998671 19124.601155 17193.300781 C 19118.000725 17219.897979 19112.500367 17248.198239 19108.498657 17277.901948 " stroke="#000000" stroke-width="17.92" stroke-opacity="1" stroke-miterlimit="1.5"/><path stroke-linecap="round" transform="matrix(0.735037, 0, 0, 0.743147, -13348.554017, -11849.452519)" fill="none" stroke-linejoin="round" d="M 19024.0004 16963.597704 C 19035.197748 17006.500141 19055.200983 17073.098264 19094.102067 17143.601865 " stroke="#000000" stroke-width="17.92" stroke-opacity="1" stroke-miterlimit="1.5"/><path stroke-linecap="round" transform="matrix(0.735037, 0, 0, 0.743147, -13348.554017, -11849.452519)" fill="none" stroke-linejoin="round" d="M 19105.697992 17278.001819 L 19273.998325 17276.099016 L 19283.197475 17317.697875 L 19118.601248 17322.901675 M 19046.001833 17325.198705 L 18891.300937 17330.197507 L 18902.70023 17280.198979 L 19062.19999 17278.401303 " stroke="#000000" stroke-width="17.92" stroke-opacity="1" stroke-miterlimit="1.5"/><path stroke-linecap="round" transform="matrix(0.735037, 0, 0, 0.743147, -13348.554017, -11849.452519)" fill="none" stroke-linejoin="round" d="M 19081.900307 17265.502187 C 19037.70081 17279.999237 19046.198465 17344.999426 19089.101259 17331.00173 C 19110.597828 17324.100125 19110.799773 17289.697228 19110.401197 17288.299035 C 19109.800674 17286.60123 19100.80347 17259.299678 19081.900307 17265.502187 Z M 19081.900307 17265.502187 " stroke="#000000" stroke-width="17.92" stroke-opacity="1" stroke-miterlimit="1.5"/><path stroke-linecap="round" transform="matrix(0.735037, 0, 0, 0.743147, -13348.554017, -11849.452519)" fill="none" stroke-linejoin="round" d="M 19054.499488 17316.199811 C 19051.502192 17318.901582 19048.701526 17321.897709 19046.001833 17325.198705 C 19017.697574 17359.801345 19006.399254 17424.102438 19018.696673 17434.899008 C 19023.102274 17438.799229 19023.899428 17433.400944 19048.101004 17382.098838 C 19051.300246 17375.102619 19054.100912 17369.599206 19056.497686 17364.900018 C 19063.799611 17350.697324 19067.39743 17345.099297 19071.898689 17332.399923 " stroke="#000000" stroke-width="17.92" stroke-opacity="1" stroke-miterlimit="1.5"/><path stroke-linecap="round" transform="matrix(-0.735037, 0, 0, 0.743147, 14702.237487, -11853.317719)" fill="none" stroke-linejoin="round" d="M 19055.301788 17315.597911 C 19051.199105 17319.098649 19047.298368 17323.398354 19043.801522 17328.097543 C 19017.197857 17363.199537 19006.69669 17424.399375 19018.696505 17434.901589 C 19023.102106 17438.801811 19023.899259 17433.398269 19048.100836 17382.10142 C 19053.399248 17370.800239 19057.299986 17363.299408 19060.398255 17357.301898 C 19064.798542 17349.101971 19067.70018 17343.698429 19070.899422 17335.298761 " stroke="#000000" stroke-width="17.92" stroke-opacity="1" stroke-miterlimit="1.5"/><path stroke-linecap="round" transform="matrix(0.743152, 0, 0, 0.743147, -17668.899725, -43.699223)" fill-opacity="1" fill="#5a5454" fill-rule="evenodd" stroke-linejoin="round" d="M 24449.602005 615.409767 C 24463.499736 585.38542 24465.901878 585.001705 24480.698442 570.173505 C 24506.002406 544.764244 24515.400721 547.939088 24547.301376 533.746907 C 24563.800991 526.403767 24613.199963 504.968318 24644.801008 500.342718 C 24697.001603 492.689453 24713.700958 523.454947 24754.999928 491.538309 C 24793.802143 461.556013 24812.998253 483.585432 24876.100473 493.031116 C 24988.102314 509.804172 24989.600367 578.767659 25066.9998 591.603698 C 25067.29941 591.645749 25138.901113 631.888466 25077.501943 757.888751 C 25075.299542 762.467044 25046.000769 802.588865 25035.498625 829.969262 C 24977.60017 980.511507 24931.602042 935.81665 24813.902342 992.448708 C 24791.499871 1003.240022 24770.301099 1007.460882 24741.901158 1009.957654 C 24718.999336 1011.991867 24693.401018 1019.072188 24642.398866 978.634985 C 24547.800728 903.64245 24492.698639 934.597173 24481.60253 786.751442 C 24479.100518 752.77431 24414.400375 698.339411 24449.602005 615.409767 Z M 24564.100601 634.248573 C 24620.001651 705.950625 24733.901027 656.151839 24737.00226 603.682821 C 24742.70012 509.220715 24651.59744 563.923689 24638.19906 560.896023 C 24579.801254 547.692039 24541.997741 605.864211 24564.100601 634.248573 Z M 24759.898826 626.44813 C 24836.299556 714.786572 24960.601205 638.763789 24941.000357 596.145196 C 24910.802752 530.219887 24862.302611 535.050485 24832.499231 527.244785 C 24757.696424 507.628037 24739.499016 602.915392 24759.898826 626.44813 Z M 24754.600447 853.03944 C 24661.400492 854.9475 24666.698871 756.80594 24630.89802 734.513704 C 24578.697425 702.018866 24553.498587 745.43117 24553.803454 781.221748 C 24554.097809 824.576233 24669.101013 950.592287 24754.600447 935.380372 C 24858.302546 916.909511 24943.602239 871.12133 24964.701141 766.57752 C 24970.09939 739.428403 24926.697888 697.761211 24884.000734 722.608041 C 24834.601762 751.407655 24885.898269 850.353438 24754.600447 853.03944 Z M 24754.600447 853.03944 " stroke="#000000" stroke-width="17.92" stroke-opacity="1" stroke-miterlimit="1.5"/><path stroke-linecap="round" transform="matrix(0.743152, 0, 0, 0.743147, -17668.899725, -43.699223)" fill-opacity="1" fill="#2ca6a4" fill-rule="evenodd" stroke-linejoin="round" d="M 24402.999399 450.34419 C 24375.39842 493.519958 24366.099975 543.618357 24377.0016 581.001613 C 24697.600824 391.583304 24964.900881 410.301214 25181.997748 623.998665 C 25188.899307 585.469522 25188.799436 545.841799 25168.000146 503.002438 C 25101.602208 435.862909 25002.199786 385.217848 24900.400478 364.087268 C 24711.698297 324.901079 24501.497733 368.392229 24402.999399 450.34419 Z M 24402.999399 450.34419 " stroke="#000000" stroke-width="17.92" stroke-opacity="1" stroke-miterlimit="1.5"/><path stroke-linecap="round" transform="matrix(0.961765, 0.111248, -0.111249, 0.961758, -104.967205, -396.995026)" fill="none" stroke-linejoin="round" d="M 841.476135 855.370253 C 886.04448 1006.398599 1084.178291 958.781689 1083.471062 820.047125 " stroke="#000000" stroke-width="13.75" stroke-opacity="1" stroke-miterlimit="1.5"/></svg>