<svg xmlns="http://www.w3.org/2000/svg" xmlns:xlink="http://www.w3.org/1999/xlink" width="2000" zoomAndPan="magnify" viewBox="0 0 1500 1499.999933" height="2000" preserveAspectRatio="xMidYMid meet" version="1.0"><defs><clipPath id="d894fd7db9"><path d="M 207.265625 0 L 1292.515625 0 L 1292.515625 1500 L 207.265625 1500 Z M 207.265625 0 " clip-rule="nonzero"/></clipPath></defs><path fill="#fdf6ed" d="M 376.984375 1076.195312 C 388.167969 1091.777344 410.554688 1125.074219 414.425781 1150.171875 C 416.261719 1160.496094 414.765625 1169.761719 409.683594 1176.644531 C 406.121094 1181.328125 400.746094 1185.0625 392.933594 1187.148438 C 368.960938 1193.699219 349.425781 1182.964844 335.890625 1169.355469 C 329.992188 1163.519531 325.15625 1157.097656 321.792969 1151.601562 C 317.851562 1159.21875 312.238281 1168.859375 304.859375 1176.890625 C 295.808594 1186.949219 284.203125 1194.527344 270.386719 1194.710938 C 261.171875 1194.890625 250.972656 1192.042969 239.773438 1184.027344 C 228.574219 1176.007812 222.371094 1167.191406 219.925781 1158.304688 C 216.089844 1144.882812 219.980469 1130.683594 228.582031 1117.304688 C 241.972656 1096.371094 266.652344 1077.210938 282.21875 1066.625 C 263.273438 1059.710938 250.96875 1048 243.945312 1033.863281 C 240.976562 1027.570312 238.875 1021.011719 237.671875 1013.855469 C 234.824219 996.0625 237.597656 975.867188 244.4375 955.953125 C 245.71875 952.261719 247.167969 948.582031 248.785156 944.914062 C 249.410156 943.3125 250.03125 941.710938 250.824219 940.121094 C 250.824219 940.121094 250.835938 939.957031 250.835938 939.957031 C 252.253906 936.769531 253.824219 933.753906 255.410156 930.578125 C 265.65625 910.738281 279.5625 892.140625 294.703125 877.90625 C 306.933594 866.261719 320.144531 857.644531 333.070312 853.121094 L 338.339844 716.519531 C 337.683594 716.144531 337.015625 715.933594 336.363281 715.558594 C 321.644531 709.105469 309.664062 697.582031 306.808594 689.652344 C 302.070312 676.992188 299.742188 661.535156 302.644531 649.242188 C 304.84375 639.695312 309.824219 631.820312 318.476562 627.492188 C 325.546875 623.875 335.519531 622.597656 349.265625 625.855469 L 459.265625 165.398438 C 459.71875 163.785156 460.671875 162.371094 461.925781 161.472656 C 462.1875 160.171875 462.933594 159.238281 463.851562 158.316406 C 621.886719 15.765625 780.539062 -18.378906 913.992188 35.164062 C 994.238281 67.238281 1065.460938 130.910156 1122.304688 222.355469 C 1189.394531 330.628906 1236.21875 477.777344 1253.378906 656.886719 C 1260.816406 660.203125 1267.199219 663.9375 1271.722656 667.539062 C 1277.859375 672.410156 1280.734375 677.542969 1281.019531 680.851562 C 1281.398438 685.152344 1280.210938 690 1277.3125 694.898438 C 1273.65625 700.890625 1267.601562 707.046875 1259.558594 712.402344 C 1258.859375 712.683594 1258.316406 713.136719 1257.601562 713.582031 C 1259.210938 741.8125 1260.269531 770.664062 1260.417969 800.269531 C 1261.585938 983.855469 1192.066406 1333.027344 1113.507812 1484.414062 C 1112.308594 1486.960938 1109.652344 1488.421875 1106.9375 1488.230469 L 1073.1875 1485.875 C 1070.984375 1485.722656 1068.859375 1484.421875 1067.796875 1482.539062 C 1066.566406 1480.644531 1066.386719 1478.328125 1067.382812 1476.261719 C 1176.082031 1225.03125 1220.996094 959.8125 1211.179688 726.785156 C 1203.683594 726.757812 1196.269531 725.582031 1188.941406 723.097656 C 1174.125 718.117188 1159.667969 707.898438 1148.148438 689.828125 C 1103.566406 742.625 1005.738281 835.609375 858.339844 859.851562 L 857.714844 881.019531 C 857.664062 884.140625 855.433594 886.78125 852.484375 887.5625 L 828.929688 892.988281 L 914.117188 1061.886719 C 915.164062 1063.933594 914.980469 1066.550781 913.828125 1068.441406 C 912.492188 1070.484375 910.355469 1071.816406 907.96875 1071.816406 L 875.417969 1071.847656 L 933.058594 1293.578125 C 933.601562 1295.585938 933.101562 1297.855469 931.789062 1299.570312 C 930.472656 1301.289062 928.359375 1302.292969 926.152344 1302.140625 L 823.042969 1297.410156 C 831.996094 1344.898438 839.667969 1388.84375 844.734375 1418.792969 C 867.320312 1412.640625 894.96875 1407.171875 920.21875 1406.796875 C 939.664062 1406.507812 957.863281 1409.421875 971.476562 1417.113281 C 981.644531 1422.757812 985.9375 1429.636719 986.5 1436.25 C 987.058594 1442.867188 984 1450.054688 977.417969 1456.5 C 963.109375 1471.121094 931.019531 1484.011719 902.277344 1485.621094 C 881.914062 1486.832031 863.5 1482.09375 853.277344 1469.871094 C 846.054688 1460.980469 835.570312 1447.585938 832.464844 1428.625 C 827.238281 1398.5 818.890625 1349.574219 808.941406 1296.753906 L 744.394531 1293.730469 C 741.5 1293.691406 738.914062 1291.703125 738.089844 1288.847656 L 718.660156 1222.871094 L 698.710938 1286.59375 C 697.632812 1289.808594 694.25 1291.875 690.882812 1291.308594 L 670.351562 1287.574219 C 656.332031 1342.007812 644.640625 1389.867188 639.6875 1407.117188 C 630.546875 1438.046875 619.058594 1456.15625 602.632812 1466.847656 C 586.386719 1477.390625 565.195312 1480.679688 535.890625 1480.605469 C 515.785156 1480.519531 497.988281 1466.945312 491.78125 1450.890625 C 487.3125 1439.234375 488.699219 1426.667969 498.789062 1416.355469 C 510.882812 1404.210938 528.730469 1397.5625 548.691406 1394.84375 C 574.675781 1391.230469 604.476562 1393.96875 628.09375 1397.425781 C 633.78125 1376.941406 644.292969 1333.769531 656.886719 1285.15625 L 544.464844 1264.8125 C 542.445312 1264.507812 540.828125 1263.242188 539.757812 1261.523438 C 538.683594 1259.804688 538.492188 1257.652344 539.308594 1255.738281 L 604.40625 1072.5 L 570.488281 1072.601562 C 568.101562 1072.597656 565.808594 1071.285156 564.589844 1069.226562 C 563.367188 1067.171875 563.199219 1064.691406 564.378906 1062.472656 L 658.785156 879.304688 L 632.40625 881.246094 C 630.347656 881.429688 628.53125 880.648438 627.09375 879.234375 C 625.65625 877.816406 624.933594 875.957031 625.082031 873.832031 L 627.527344 838.8125 C 588.597656 822.777344 553.144531 800.898438 521.714844 777.492188 C 469.074219 738.136719 427.949219 694.984375 401.382812 670.273438 C 398.824219 692.292969 391.429688 705.425781 382.402344 712.6875 C 373.546875 719.960938 362.679688 721.835938 351.882812 720.257812 L 346.957031 851.953125 C 359.605469 856.289062 372.242188 865.722656 383.605469 878.683594 C 385.808594 881.304688 387.851562 883.746094 390.042969 886.53125 C 390.96875 887.910156 392.066406 889.304688 392.992188 890.683594 C 397.5 896.917969 401.632812 903.617188 405.40625 910.625 C 412.949219 924.632812 419.046875 939.859375 423.253906 955.277344 C 423.242188 955.445312 423.410156 955.457031 423.398438 955.617188 C 425.28125 962.820312 426.828125 970 427.863281 977.140625 C 428.625 983.277344 429.234375 989.242188 429.332031 995.167969 C 429.453125 1000.765625 429.234375 1006.339844 428.6875 1011.730469 C 425.351562 1042.410156 409.800781 1067.46875 376.984375 1076.195312 Z M 1206.554688 661.183594 C 1206.554688 661.183594 1206.386719 661.171875 1206.386719 661.171875 C 1206.042969 661.148438 1205.707031 661.125 1205.195312 661.089844 C 1205.707031 661.125 1206.042969 661.148438 1206.554688 661.183594 Z M 485.570312 159.667969 C 581.046875 154.164062 683.269531 103.25 755.417969 48.597656 C 678.773438 50.484375 596.324219 81.726562 485.570312 159.667969 Z M 1035.488281 181.929688 C 1053.089844 269.15625 1087.957031 343.445312 1147.210938 380.796875 C 1118.738281 302.84375 1081.1875 235.273438 1035.488281 181.929688 Z M 787.226562 49.503906 C 833.050781 96.113281 922.402344 144.277344 1010.609375 155.035156 C 962.460938 107.445312 906.503906 74.105469 842.996094 58.65625 C 824.386719 54.234375 805.867188 50.96875 787.226562 49.503906 Z M 1166.019531 438.511719 C 1167.796875 491.253906 1171.039062 539.984375 1180.886719 579.644531 C 1186.492188 601.902344 1193.996094 621.335938 1204.492188 637.03125 C 1196.972656 566.460938 1184.070312 499.789062 1166.019531 438.511719 Z M 556.507812 359.304688 C 553.273438 364.175781 550.375 369.074219 547.625 374.308594 C 515.125 434.6875 507.449219 517.847656 544.945312 630.140625 C 593.917969 746.523438 700.066406 773.660156 792.753906 764.179688 C 854.898438 757.664062 911.199219 734.792969 940.5 710.527344 C 1069.625 603.777344 1075.179688 460.617188 1027.25 358.613281 C 871.636719 380.96875 702.152344 377.363281 556.507812 359.304688 Z M 705.550781 387.300781 C 712.605469 381.378906 719.492188 380.378906 725.519531 381.953125 C 733.050781 383.957031 740.214844 391.199219 744.75 401.875 C 750.15625 414.75 752.136719 432.808594 749.109375 446.90625 C 746.78125 458.253906 741.054688 467.0625 732.761719 471.085938 C 722.878906 475.988281 711.835938 473.078125 702.90625 464.234375 C 686.152344 447.9375 677.898438 409.871094 705.550781 387.300781 Z M 646.855469 576.414062 C 646.085938 572.742188 648.558594 569.132812 652.183594 568.398438 C 655.996094 567.511719 659.582031 569.902344 660.332031 573.734375 C 668.832031 615.601562 691.144531 642.644531 718.644531 656.402344 C 782.707031 688.335938 874.125 648.179688 881.261719 560.542969 C 881.523438 556.777344 884.796875 553.882812 888.515625 554.308594 C 892.417969 554.578125 895.25 557.898438 894.816406 561.652344 C 886.941406 659.925781 784.3125 704.398438 712.507812 668.636719 C 681.703125 653.332031 656.355469 623.445312 646.855469 576.414062 Z M 809.199219 384.339844 C 817.328125 380.136719 824.28125 380.625 829.71875 383.304688 C 836.796875 386.921875 842.160156 395.519531 844.4375 406.859375 C 846.882812 420.679688 845.117188 438.644531 839.261719 451.71875 C 834.597656 462.40625 827.085938 469.941406 818.242188 472.121094 C 807.484375 474.820312 797.28125 469.667969 790.34375 459.15625 C 777.558594 439.683594 777.382812 400.699219 809.199219 384.339844 Z M 1195.539062 648.082031 C 1182.957031 630.597656 1173.921875 608.589844 1167.699219 582.996094 C 1155.195312 532.632812 1152.703125 468.164062 1151.394531 399.011719 C 1078.921875 360.574219 1037.484375 273 1019.292969 169.785156 C 920.898438 160.941406 819.296875 105.179688 771.789062 53.359375 C 693.71875 114.667969 577.351562 172.980469 471.292969 173.800781 L 362.445312 629.902344 C 369.761719 632.546875 377.851562 636.238281 386.714844 641.132812 C 390.816406 643.390625 395.203125 646.492188 399.867188 650.4375 C 425.453125 672.117188 470.214844 721.773438 529.988281 766.398438 C 559.300781 788.339844 592.292969 808.890625 628.542969 824.25 L 629.183594 812.617188 C 629.410156 809.34375 631.808594 806.71875 634.910156 806.277344 L 706.691406 793.527344 C 710.308594 792.957031 713.738281 795.167969 714.683594 798.6875 C 714.683594 798.6875 716.789062 807.550781 722.496094 816.171875 C 726.1875 821.855469 731.769531 827.34375 739.46875 829.359375 C 739.625 814.898438 739.679688 799.445312 739.816406 782.847656 C 739.90625 781.539062 740.339844 780.253906 740.925781 779.144531 C 658.085938 774.515625 574.671875 736.628906 532.140625 635.328125 C 532.152344 635.167969 531.996094 634.992188 532.007812 634.828125 C 492.820312 517.484375 501.59375 430.78125 535.460938 367.867188 C 537.421875 364.222656 539.367188 360.738281 541.476562 357.433594 C 530 355.8125 518.851562 354.375 507.730469 352.613281 C 505.023438 352.257812 502.789062 350.132812 502.125 347.453125 C 501.460938 344.777344 502.511719 341.890625 504.671875 340.230469 L 556.21875 302.390625 C 589.640625 221.523438 697.882812 177.117188 802.9375 176.0625 C 908.15625 175.019531 1009.140625 217.582031 1028.484375 306.738281 L 1077.410156 338.269531 C 1079.691406 339.746094 1081.027344 342.632812 1080.324219 345.378906 C 1079.789062 348.140625 1077.59375 350.285156 1074.835938 350.753906 C 1063.785156 352.777344 1052.570312 354.789062 1041.375 356.476562 C 1089.832031 463.121094 1082.769531 610.78125 949.300781 721.171875 C 918.550781 746.652344 859.59375 770.984375 794.195312 777.765625 C 780.625 779.28125 766.613281 779.785156 752.652344 779.632812 C 753.261719 780.664062 753.519531 781.832031 753.609375 782.988281 C 753.488281 799.425781 753.273438 814.699219 753.117188 829.160156 C 776.988281 824.085938 784.859375 804.078125 784.859375 804.078125 C 786.117188 800.714844 789.476562 798.976562 792.832031 799.703125 L 854.027344 814.167969 C 857.042969 814.871094 859.402344 817.667969 859.175781 820.941406 L 858.640625 845.734375 C 1007.472656 820.4375 1103.746094 722.90625 1143.660156 673.566406 C 1155.363281 657.28125 1175.460938 650.132812 1195.539062 648.082031 Z M 1195.539062 648.082031 " fill-opacity="1" fill-rule="evenodd"/><g clip-path="url(#d894fd7db9)"><path stroke-linecap="round" transform="matrix(1.695914, 0.118353, -0.114152, 1.636351, -35001.956952, -24317.544085)" fill="none" stroke-linejoin="round" d="M 21799.700007 13941.799252 C 21806.900339 13950.800895 21821.399771 13970.100433 21824.698679 13985.199403 C 21826.198618 13991.400209 21825.700003 13997.098641 21822.999635 14001.500146 C 21821.100897 14004.499694 21818.099735 14006.998895 21813.60078 14008.599041 C 21799.801882 14013.600363 21787.899325 14007.901298 21779.399856 14000.199139 C 21775.699785 13996.900322 21772.5992 13993.200071 21770.400659 13990.000336 C 21768.399666 13994.800045 21765.500453 14000.901274 21761.4993 14006.09869 C 21756.600086 14012.600001 21750.100254 14017.701227 21742.000361 14018.399268 C 21736.600485 14018.899636 21730.499058 14017.600688 21723.599286 14013.201256 C 21716.699354 14008.799448 21712.698489 14003.700975 21710.899815 13998.400255 C 21708.099481 13990.400478 21709.801242 13981.600029 21714.30094 13973.098518 C 21721.301591 13959.799333 21734.999211 13947.099549 21743.70018 13940.000999 C 21732.300125 13936.600242 21724.600402 13930.000405 21719.900395 13921.701173 C 21717.900744 13918.00007 21716.399082 13914.100622 21715.400154 13909.799575 C 21713.00081 13899.099551 21713.801561 13886.699963 21716.999975 13874.298834 C 21717.600701 13871.999509 21718.300469 13869.700182 21719.09928 13867.400853 C 21719.400468 13866.400329 21719.699364 13865.39997 21720.099594 13864.399444 C 21720.099594 13864.399444 21720.099755 13864.299172 21720.099755 13864.299172 C 21720.801334 13862.300497 21721.599343 13860.399884 21722.399964 13858.401207 C 21727.600189 13845.900649 21734.999028 13834.000192 21743.300802 13824.700897 C 21750.000923 13817.10014 21757.400303 13811.298865 21764.799931 13807.999326 L 21762.300318 13724.700759 C 21761.899883 13724.500553 21761.499287 13724.40062 21761.101144 13724.200248 C 21752.200086 13720.900432 21744.698288 13714.400863 21742.698112 13709.699574 C 21739.399468 13702.201336 21737.400604 13692.899874 21738.600477 13685.300664 C 21739.500171 13679.401347 21742.100327 13674.400749 21747.000315 13671.401361 C 21751.001076 13668.901477 21756.800701 13667.701401 21765.000209 13669.099253 L 21810.699047 13384.401467 C 21810.898899 13383.401111 21811.400305 13382.50069 21812.099314 13381.901083 C 21812.199643 13381.098899 21812.599231 13380.499464 21813.100154 13379.899861 C 21899.999235 13286.499668 21991.698063 13259.001082 22072.199561 13285.899575 C 22120.600581 13301.999919 22165.000128 13337.699502 22202.099092 13390.899899 C 22245.899276 13453.899546 22279.399016 13541.401319 22296.800322 13649.599277 C 22301.300372 13651.300509 22305.198645 13653.300693 22308.000408 13655.29902 C 22311.800806 13658.000949 22313.697954 13661.000476 22314.000719 13663.000511 C 22314.399111 13665.599972 22313.900729 13668.598497 22312.400454 13671.70052 C 22310.500271 13675.499875 22307.199411 13679.500798 22302.699055 13683.099107 C 22302.30027 13683.299827 22302.000206 13683.598441 22301.598968 13683.899599 C 22303.69895 13700.999795 22305.50116 13718.501089 22306.800155 13736.499502 C 22315.00056 13848.098635 22288.500059 14063.399753 22248.599187 14158.800472 C 22247.999746 14160.400264 22246.500873 14161.401475 22244.899979 14161.400292 L 22224.999201 14161.400197 C 22223.70018 14161.401052 22222.399992 14160.700163 22221.699449 14159.600216 C 22220.899863 14158.50027 22220.699601 14157.099162 22221.199517 14155.800191 C 22274.699701 13998.399789 22290.198418 13835.199471 22274.899274 13693.899352 C 22270.499479 13694.200867 22266.100808 13693.800473 22261.698998 13692.600603 C 22252.800919 13690.200535 22243.899292 13684.599527 22236.399976 13674.098881 C 22212.400655 13708.099685 22158.801818 13768.800553 22073.301385 13789.799348 L 22073.801143 13802.69928 C 22073.899106 13804.599544 22072.69837 13806.300117 22070.999761 13806.900407 L 22057.400073 13811.199815 L 22114.301555 13910.30077 C 22114.999645 13911.501156 22114.999047 13913.100604 22114.400249 13914.299304 C 22113.699955 13915.598444 22112.500664 13916.499211 22111.100147 13916.600506 L 22092.000765 13918.00101 L 22134.900524 14050.401154 C 22135.301325 14051.599171 22135.10083 14053.000618 22134.400857 14054.099213 C 22133.698752 14055.20035 22132.499782 14055.900571 22131.198469 14055.901592 L 22070.500683 14057.400834 C 22077.69826 14085.901086 22083.998975 14112.301042 22088.197885 14130.299784 C 22101.199373 14125.599628 22117.199497 14121.100343 22132.00074 14119.800641 C 22143.399335 14118.799561 22154.197846 14119.799363 22162.500908 14123.899164 C 22168.698486 14126.900372 22171.499169 14130.901614 22172.099954 14134.89964 C 22172.698608 14138.900208 22171.198056 14143.401133 22167.599585 14147.600232 C 22159.801874 14157.099399 22141.499364 14166.300833 22124.699449 14168.49944 C 22112.799931 14170.100123 22101.800676 14168.000031 22095.301733 14161.000625 C 22090.699573 14155.900286 22083.999085 14148.199306 22081.400647 14136.799918 C 22077.100563 14118.701072 22070.199428 14089.3009 22062.199082 14057.600222 L 22024.199485 14058.500959 C 22022.499387 14058.600051 22020.90058 14057.500619 22020.300044 14055.799032 L 22006.198051 14016.499679 L 21997.100405 14056.099601 C 21996.599364 14058.100482 21994.698932 14059.500748 21992.699895 14059.299193 L 21980.499379 14057.899488 C 21974.501003 14091.598558 21969.599647 14121.200674 21967.399299 14131.901565 C 21963.301718 14151.099549 21957.301746 14162.600433 21948.100817 14169.799598 C 21938.999251 14176.900863 21926.698861 14179.800514 21909.499956 14180.999108 C 21897.698634 14181.800148 21886.699845 14174.300243 21882.400391 14164.799939 C 21879.301001 14157.900792 21879.600319 14150.199616 21885.098857 14143.499791 C 21891.698285 14135.600759 21901.899062 14130.8 21913.500765 14128.299409 C 21928.600378 14124.999162 21946.199441 14125.399676 21960.19942 14126.499742 C 21962.698298 14113.800682 21967.0993 14087.09936 21972.499286 14057.000455 L 21905.697838 14049.399638 C 21904.500313 14049.300052 21903.499546 14048.598991 21902.801135 14047.599151 C 21902.100431 14046.599476 21901.900009 14045.29864 21902.300721 14044.099944 L 21932.998936 13929.899839 L 21913.100173 13931.401128 C 21911.699497 13931.500048 21910.300265 13930.799162 21909.50084 13929.598943 C 21908.699282 13928.401266 21908.499181 13926.899885 21909.100593 13925.500474 L 21956.999846 13810.099233 L 21941.600286 13812.399465 C 21940.399827 13812.598488 21939.301987 13812.200457 21938.400584 13811.401498 C 21937.499021 13810.600162 21936.998856 13809.500045 21936.998972 13808.201415 L 21937.000355 13786.800331 C 21913.500184 13778.700699 21891.800832 13766.899611 21872.399895 13753.998902 C 21839.899592 13732.298817 21814.001184 13707.800904 21797.400593 13693.900338 C 21796.800585 13707.400216 21792.999094 13715.700835 21787.999144 13720.500218 C 21783.100528 13725.299434 21776.800461 13726.900942 21770.4003 13726.399432 L 21772.900789 13806.699649 C 21780.500329 13808.799754 21788.301664 13814.000522 21795.500142 13821.400508 C 21796.900221 13822.901035 21798.198964 13824.299082 21799.598882 13825.899883 C 21800.198572 13826.69918 21800.899757 13827.500685 21801.499446 13828.299982 C 21804.399814 13831.900131 21807.099162 13835.798892 21809.600262 13839.900579 C 21814.599851 13848.099366 21818.801226 13857.100683 21821.901025 13866.298645 C 21821.901024 13866.401294 21822.000067 13866.401292 21821.999746 13866.499189 C 21823.399431 13870.799896 21824.601029 13875.100607 21825.500755 13879.399281 C 21826.198933 13883.099028 21826.800681 13886.700715 21827.100556 13890.300364 C 21827.400752 13893.699467 21827.50057 13897.09874 21827.40033 13900.400286 C 21826.698681 13919.199872 21818.599316 13935.099377 21799.700007 13941.799252 Z M 22269.49996 13654.199726 C 22269.49996 13654.199726 22269.400917 13654.199728 22269.400917 13654.199728 C 22269.198246 13654.200064 22269.00016 13654.200068 22268.698447 13654.200405 C 22269.00016 13654.200068 22269.198246 13654.200064 22269.49996 13654.199726 Z M 21825.899951 13379.800047 C 21881.699894 13372.400666 21939.599562 13337.098558 21979.69878 13300.799386 C 21934.801325 13305.1997 21887.699363 13327.699048 21825.899951 13379.800047 Z M 22149.500772 13369.999364 C 22163.399893 13422.299598 22186.900816 13465.999052 22223.199735 13486.199775 C 22203.301108 13440.000611 22178.500494 13400.501095 22149.500772 13369.999364 Z M 21998.401026 13300.000527 C 22027.198428 13326.401409 22081.601131 13351.900423 22133.801013 13354.699215 C 22103.599635 13327.800699 22069.399527 13309.899798 22031.501 13303.199636 C 22020.400089 13301.300258 22009.399229 13300.100245 21998.401026 13300.000527 Z M 22236.599082 13520.501083 C 22239.801008 13552.501074 22243.69828 13581.999148 22251.100322 13605.700722 C 22255.300706 13618.999018 22260.499476 13630.499179 22267.301023 13639.598893 C 22259.999815 13597.000345 22249.699577 13557.001105 22236.599082 13520.501083 Z M 21875.697858 13498.19943 C 21873.999337 13501.299081 21872.499062 13504.401104 21871.099642 13507.701129 C 21854.500375 13545.800205 21853.4004 13596.700239 21879.999635 13663.400383 C 21913.500685 13732.100705 21976.898975 13744.098953 22030.899528 13734.399576 C 22067.098961 13727.799569 22099.199799 13711.500918 22115.400067 13695.500093 C 22186.800286 13625.09931 22184.199527 13537.799999 22151.899083 13477.800015 C 22061.500983 13498.000042 21961.900678 13503.000504 21875.697858 13498.19943 Z M 21964.301656 13508.899809 C 21968.198906 13504.998981 21972.199069 13504.098545 21975.800329 13504.800105 C 21980.301664 13505.699154 21984.801963 13509.799474 21987.900184 13516.099526 C 21991.599584 13523.700072 21993.500939 13534.598442 21992.30159 13543.300487 C 21991.39997 13550.300429 21988.400225 13555.900462 21983.698644 13558.699301 C 21978.100128 13562.100125 21971.501034 13560.798978 21965.899114 13555.799595 C 21955.400884 13546.599628 21948.999287 13523.79966 21964.301656 13508.899809 Z M 21937.600801 13626.401102 C 21936.998936 13624.200693 21938.302131 13621.90069 21940.399204 13621.300227 C 21942.600066 13620.599157 21944.802138 13621.900835 21945.399098 13624.199473 C 21952.100686 13649.30046 21966.300564 13664.799804 21983.00062 13671.999549 C 22021.899419 13688.701225 22073.899311 13660.400099 22074.499719 13606.8005 C 22074.49915 13604.499309 22076.301502 13602.600056 22078.501078 13602.701168 C 22080.80199 13602.699465 22082.59973 13604.598534 22082.498965 13606.899893 C 22081.900747 13666.999599 22023.499016 13698.401576 21979.900431 13679.700396 C 21961.197877 13671.700166 21945.100573 13654.600198 21937.600801 13626.401102 Z M 22025.000916 13502.700121 C 22029.59887 13499.798968 22033.698922 13499.800819 22036.999317 13501.199709 C 22041.300799 13503.099115 22044.799893 13508.100197 22046.600422 13514.899926 C 22048.601053 13523.201036 22048.300378 13534.201381 22045.399603 13542.401046 C 22043.100241 13549.098651 22039.000846 13554.000002 22033.900596 13555.70093 C 22027.698449 13557.799049 22021.500388 13555.09866 22016.999198 13549.000343 C 22008.699814 13537.700569 22007.00085 13513.999488 22025.000916 13502.700121 Z M 22262.499728 13646.699464 C 22254.400927 13636.600252 22248.198251 13623.599556 22243.499148 13608.298687 C 22234.1003 13578.200689 22229.998882 13539.099469 22226.400271 13497.099665 C 22182.300192 13476.799545 22154.400012 13425.299511 22139.500297 13363.300957 C 22081.400785 13362.098583 22019.498825 13332.498923 21989.500189 13303.000437 C 21946.198511 13343.598973 21880.301745 13384.000791 21818.100589 13389.000937 L 21772.899651 13671.001016 C 21777.301141 13672.298783 21782.199334 13674.200386 21787.600626 13676.80085 C 21790.099829 13677.999874 21792.800899 13679.699927 21795.699251 13681.901339 C 21811.600424 13694.000048 21839.899079 13722.298996 21876.800593 13746.901047 C 21894.89921 13759.00076 21915.100128 13770.098588 21937.000207 13777.900969 L 21936.899937 13770.799227 C 21936.898885 13768.798854 21938.198825 13767.100655 21940.00074 13766.700577 L 21981.599756 13755.900108 C 21983.698961 13755.399751 21985.801991 13756.598783 21986.500768 13758.699083 C 21986.500768 13758.699083 21988.099064 13763.999973 21991.800828 13769.00072 C 21994.199586 13772.300558 21997.69976 13775.401374 22002.300138 13776.300422 C 22001.79987 13767.499299 22001.199391 13758.099083 22000.600196 13747.999333 C 22000.599349 13747.199692 22000.801172 13746.399716 22001.099586 13745.700176 C 21952.300032 13746.400918 21901.802129 13726.900126 21872.698248 13667.098635 C 21872.698568 13667.000738 21872.599686 13666.900467 21872.599846 13666.800194 C 21844.801349 13597.100178 21846.400393 13543.998884 21863.698144 13504.300014 C 21864.699626 13502.00035 21865.698495 13499.798748 21866.800991 13497.699461 C 21860.000233 13497.200666 21853.399533 13496.799598 21846.801607 13496.200194 C 21845.198582 13496.098904 21843.800473 13494.901404 21843.301112 13493.299923 C 21842.80191 13491.700817 21843.300337 13489.900648 21844.49995 13488.799335 L 21873.198473 13463.599127 C 21889.50001 13413.000875 21951.198309 13381.401048 22012.800783 13376.300973 C 22074.500008 13371.201061 22135.499498 13392.799744 22150.499919 13446.199587 L 22180.500085 13463.298998 C 22181.899155 13464.100157 22182.801245 13465.799031 22182.501065 13467.498923 C 22182.300088 13469.201189 22181.099674 13470.598568 22179.500589 13471.000686 C 22173.098866 13472.70026 22166.600392 13474.39967 22160.100108 13475.901075 C 22192.899957 13538.700897 22194.800145 13628.800898 22121.000059 13701.600101 C 22103.999126 13718.401246 22070.399415 13735.701108 22032.301477 13742.600756 C 22024.400516 13744.098434 22016.199126 13744.999563 22008.000671 13745.499435 C 22008.400463 13746.100732 22008.599557 13746.800097 22008.699608 13747.499463 C 22009.301416 13757.50115 22009.800561 13766.798885 22010.300829 13775.600008 C 22024.100574 13771.500975 22027.900284 13758.999064 22027.900284 13758.999064 C 22028.500688 13756.900285 22030.400799 13755.700564 22032.399515 13756.000016 L 22068.900781 13762.199671 C 22070.699119 13762.499293 22072.19808 13764.100091 22072.199131 13766.100464 L 22072.899998 13781.201145 C 22159.198484 13759.500092 22211.698913 13696.100002 22233.100602 13664.399724 C 22239.301317 13653.999129 22250.801917 13648.798799 22262.499728 13646.699464 Z M 22262.499728 13646.699464 " stroke="#fdf6ed" stroke-width="13.4" stroke-opacity="1" stroke-miterlimit="1.5"/></g><path stroke-linecap="round" transform="matrix(1.695916, 0.118353, -0.114152, 1.636342, -35001.986952, -24317.471125)" fill-opacity="1" fill="#2ca6a4" fill-rule="evenodd" stroke-linejoin="round" d="M 21816.000407 13382.798601 C 21907.099773 13304.099906 21966.999708 13287.600003 22032.20017 13299.100353 C 22256.800533 13338.598688 22358.100774 13765.899457 22225.000602 14157.201325 L 22244.898907 14157.199212 C 22284.600955 14062.199033 22310.899323 13847.899551 22302.801688 13736.800793 C 22272.600793 13326.100054 22029.8011 13153.099384 21816.000407 13382.798601 Z M 21816.000407 13382.798601 " stroke="#000000" stroke-width="8.229999" stroke-opacity="1" stroke-miterlimit="1.5"/><path stroke-linecap="round" transform="matrix(0.853652, 0.0595737, -0.0577688, 0.828104, -15547.317668, -11542.889986)" fill="none" stroke-linejoin="round" d="M 19530.102128 13600.400419 L 19521.998553 13337.09933 L 19620.000932 12729.000763 C 19746.198518 12721.398571 19881.399718 12637.69863 19967.598244 12555.500302 C 20024.599969 12615.401227 20152.899327 12677.399606 20271.500131 12677.900721 C 20300.700198 12802.402342 20355.798893 12906.398836 20445.500447 12944.800625 C 20457.600943 13084.999737 20471.302138 13209.498393 20534.998585 13260.00238 " stroke="#000000" stroke-width="16.309999" stroke-opacity="1" stroke-miterlimit="1.5"/><path stroke-linecap="round" transform="matrix(0.715166, 0.0499093, -0.043471, 0.623148, -12957.241731, -8482.292169)" fill="none" stroke-linejoin="round" d="M 19372.497847 13768.003205 C 19211.500777 13744.301864 19315.000545 13466.100028 19413.000689 13433.402353 C 19507.799078 13456.400394 19612.902327 13736.901086 19465.303146 13772.499328 C 19465.80283 13773.800783 19580.898096 13916.401181 19512.402788 13943.601463 C 19454.101563 13966.700545 19412.997903 13888.400849 19410.502659 13879.699321 C 19408.002498 13889.697348 19378.000197 14006.702391 19307.002353 13956.698737 C 19218.801444 13894.601746 19359.899448 13777.299295 19372.497847 13768.003205 Z M 19372.497847 13768.003205 " stroke="#000000" stroke-width="20.450001" stroke-opacity="1" stroke-miterlimit="1.5"/><path stroke-linecap="round" transform="matrix(0.726317, 0.0506874, -0.0538206, 0.771506, -13033.130444, -10490.230396)" fill="none" stroke-linejoin="round" d="M 19302.300164 13551.002091 C 19358.097854 13582.201057 19461.299422 13590.402641 19522.298483 13555.200993 " stroke="#000000" stroke-width="18.309999" stroke-opacity="1" stroke-miterlimit="1.5"/><path stroke-linecap="round" transform="matrix(0.726317, 0.0506874, -0.0538206, 0.771506, -13033.130444, -10490.230396)" fill-opacity="1" fill="#f5c518" fill-rule="evenodd" stroke-linejoin="round" d="M 19302.300164 13551.002091 C 19323.900418 13496.298404 19367.899075 13445.201494 19410.899583 13433.39943 C 19454.800834 13442.099631 19500.898594 13496.699787 19522.298483 13555.200993 C 19461.299422 13590.402641 19358.097854 13582.201057 19302.300164 13551.002091 Z M 19302.300164 13551.002091 " stroke="#000000" stroke-width="18.309999" stroke-opacity="1" stroke-miterlimit="1.5"/><path stroke-linecap="round" transform="matrix(0.726317, 0.0506874, -0.0538206, 0.771506, -13033.130444, -10490.230396)" fill-opacity="1" fill="#fd739d" fill-rule="evenodd" stroke-linejoin="round" d="M 19522.298483 13555.200993 C 19546.599031 13621.202548 19539.502361 13692.000979 19462.39984 13707.299181 C 19462.900938 13708.400405 19576.196524 13823.500327 19508.803541 13845.502184 C 19451.400346 13864.199693 19410.902195 13800.902768 19408.50102 13793.901233 C 19405.997918 13801.999638 19376.502268 13896.400683 19306.598991 13856.002149 C 19219.697006 13805.900472 19358.600115 13711.202377 19371.100445 13703.601559 C 19283.199563 13693.002366 19275.299786 13619.199431 19302.300164 13551.002091 C 19358.097854 13582.201057 19461.299422 13590.402641 19522.298483 13555.200993 Z M 19522.298483 13555.200993 " stroke="#000000" stroke-width="18.309999" stroke-opacity="1" stroke-miterlimit="1.5"/><path stroke-linecap="round" transform="matrix(0.699077, -0.223044, 0.204265, 0.740299, -16000.161149, -4761.66513)" fill-opacity="1" fill="#000000" fill-rule="evenodd" stroke-linejoin="round" d="M 19385.599847 13506.597986 C 19362.500812 13519.599823 19379.199781 13535.500798 19388.599441 13531.098614 C 19400.998605 13525.399811 19401.19636 13502.099955 19385.599847 13506.597986 Z M 19385.599847 13506.597986 " stroke="#000000" stroke-width="18.68" stroke-opacity="1" stroke-miterlimit="1.5"/><path stroke-linecap="round" transform="matrix(0.726317, 0.0506874, -0.0538206, 0.771506, -13031.013644, -10486.051037)" fill="none" stroke-linejoin="round" d="M 19383.597676 13619.598472 C 19339.599985 13674.700268 19465.898453 13705.297648 19445.6007 13616.598305 " stroke="#000000" stroke-width="18.309999" stroke-opacity="1" stroke-miterlimit="1.5"/><path stroke-linecap="round" transform="matrix(2.09071, 0, 0, 2.279406, -1298.159039, -1775.505347)" fill-opacity="1" fill="#ffffff" fill-rule="evenodd" stroke-linejoin="round" d="M 878.491221 1056.459219 C 817.367038 888.424392 1003.869133 866.473426 1053.300969 880.332233 C 1120.930866 899.296195 1173.269909 1016.819294 1072.879766 1092.969902 C 1036.95074 1120.229955 918.594217 1144.110563 878.491221 1056.459219 Z M 878.491221 1056.459219 " stroke="#000000" stroke-width="6.29" stroke-opacity="1" stroke-miterlimit="1.5"/><path stroke-linecap="round" transform="matrix(0.956815, 0.082029, -0.0820131, 0.957001, -81.371619, -312.610687)" fill="none" stroke-linejoin="round" d="M 841.475528 855.373041 C 886.044084 1006.398528 1084.179689 958.781797 1083.470154 820.046432 " stroke="#000000" stroke-width="14.32" stroke-opacity="1" stroke-miterlimit="1.5"/><path fill="#ffffff" d="M 1149.136719 677.753906 C 1152.558594 674.996094 1155.8125 672.730469 1158.90625 671.027344 C 1187.964844 655.027344 1209.195312 662.605469 1226.90625 662.863281 C 1256.820312 663.296875 1273.125 667.484375 1274.230469 681.335938 C 1276.285156 707.011719 1189.710938 755.324219 1149.136719 677.753906 Z M 1149.136719 677.753906 " fill-opacity="1" fill-rule="evenodd"/><path fill="#ffffff" d="M 395.515625 655.71875 C 393.355469 748.992188 320.558594 706.75 313.246094 687.175781 C 301.457031 655.613281 305.308594 604.082031 383.441406 647.082031 C 387.226562 649.167969 391.238281 652.097656 395.515625 655.71875 Z M 395.515625 655.71875 " fill-opacity="1" fill-rule="evenodd"/><path stroke-linecap="round" transform="matrix(0.960323, 0, 0, 0.96051, -149.850043, -252.649217)" fill-opacity="1" fill="#000000" fill-rule="evenodd" stroke-linejoin="round" d="M 1002.919922 671.575944 C 964.021076 691.544175 981.255669 751.400067 1005.820149 745.31606 C 1034.098386 738.317012 1035.241393 654.979131 1002.919922 671.575944 Z M 1002.919922 671.575944 " stroke="#000000" stroke-width="18.879999" stroke-opacity="1" stroke-miterlimit="1.5"/><path stroke-linecap="round" transform="matrix(0.938993, -0.201317, 0.201278, 0.939175, -365.649516, -34.614414)" fill-opacity="1" fill="#000000" fill-rule="evenodd" stroke-linejoin="round" d="M 1002.919463 671.574706 C 964.019074 691.543953 981.258007 751.397194 1005.819517 745.31985 C 1034.098706 738.317487 1035.239577 654.978061 1002.919463 671.574706 Z M 1002.919463 671.574706 " stroke="#000000" stroke-width="18.879999" stroke-opacity="1" stroke-miterlimit="1.5"/><path stroke-linecap="round" transform="matrix(0.960323, 0, 0, 0.96051, -170.508936, -248.236669)" fill="none" stroke-linejoin="round" d="M 955.140102 1150.872006 C 776.367303 1148.679975 642.521593 986.123931 589.410411 941.116108 C 584.956344 937.346138 580.778878 934.300068 576.837334 932.132437 C 495.476389 887.364557 491.465696 941.01037 503.741835 973.870514 C 511.356458 994.249497 587.161006 1038.228408 589.410411 941.116108 " stroke="#000000" stroke-width="14.32" stroke-opacity="1" stroke-miterlimit="1.5"/><path stroke-linecap="round" transform="matrix(-0.960323, 0, 0, 0.96051, 1712.858214, -224.297857)" fill="none" stroke-linejoin="round" d="M 1006.03204 1125.948986 C 780.851531 1144.530422 638.837999 1003.239935 587.008124 939.130119 C 544.757542 1019.889617 454.606426 969.603022 456.741938 942.87162 C 457.348016 935.315414 484.731372 918.051638 512.399462 915.343116 C 537.53748 912.882672 570.761968 916.502168 587.008124 939.130119 " stroke="#000000" stroke-width="14.32" stroke-opacity="1" stroke-miterlimit="1.5"/><path stroke-linecap="round" transform="matrix(0.882412, 0, 0, 0.882584, -72.596358, -408.079137)" fill="none" stroke-linejoin="round" d="M 928.512299 1349.439158 C 926.303333 1620.168571 923.828761 1650.220603 907.755103 1680.998486 C 874.16023 1745.338159 813.933818 2005.781723 799.701703 2054.449195 C 780.631113 2119.669628 752.016373 2132.248107 689.629689 2132.141885 C 657.274316 2132.079922 630.549814 2095.389003 653.037883 2072.622044 C 684.507899 2040.768661 754.455532 2047.279197 799.701703 2054.449195 " stroke="#000000" stroke-width="15.58" stroke-opacity="1" stroke-miterlimit="1.5"/><path stroke-linecap="round" transform="matrix(0.882412, 0, 0, 0.882584, -72.596358, -408.079137)" fill="none" stroke-linejoin="round" d="M 920.756572 1649.999307 C 957.175733 1635.15918 1014.520309 1968.780989 1033.289878 2079.668117 C 1036.649808 2099.509539 1047.628236 2113.499888 1055.308708 2122.710238 C 1091.608347 2166.248064 1236.072055 2106.139575 1179.542008 2074.719932 C 1143.388453 2054.630658 1077.380659 2066.739989 1033.289878 2079.668117 " stroke="#000000" stroke-width="15.58" stroke-opacity="1" stroke-miterlimit="1.5"/><path fill="#000000" d="M 839.191406 1427.402344 C 878.097656 1415.992188 936.339844 1405.308594 968.242188 1423.042969 C 1018.121094 1450.769531 890.65625 1503.820312 858.621094 1465.390625 C 851.839844 1457.265625 845.292969 1444.085938 839.191406 1427.402344 Z M 839.191406 1427.402344 " fill-opacity="1" fill-rule="evenodd"/><path fill="#000000" d="M 633.070312 1405.148438 C 616.238281 1462.710938 590.992188 1473.8125 535.941406 1473.707031 C 507.390625 1473.660156 483.808594 1441.28125 503.65625 1421.1875 C 531.421875 1393.074219 593.144531 1398.816406 633.070312 1405.148438 Z M 633.070312 1405.148438 " fill-opacity="1" fill-rule="evenodd"/><path fill="#006e00" d="M 561.960938 306.796875 C 625.253906 147.230469 987.878906 134.628906 1022.375 311.003906 C 869.617188 323.867188 717.476562 323.148438 561.960938 306.796875 Z M 561.960938 306.796875 " fill-opacity="1" fill-rule="evenodd"/><path fill="#006e00" d="M 561.960938 306.796875 C 717.476562 323.148438 869.617188 323.867188 1022.375 311.003906 L 1073.699219 344.03125 C 889.082031 377.941406 678.28125 371.351562 508.859375 345.820312 Z M 561.960938 306.796875 " fill-opacity="1" fill-rule="evenodd"/><path stroke-linecap="round" transform="matrix(0.808603, 0.0564302, -0.0587417, 0.842054, -14670.431903, -11647.910617)" fill="none" stroke-linejoin="round" d="M 19773.001752 12871.999695 L 19710.999522 12922.497956 C 19921.700474 12938.698052 20181.70061 12929.10006 20405.99927 12873.797898 L 20339.998566 12838.998554 " stroke="#000000" stroke-width="16.620001" stroke-opacity="1" stroke-miterlimit="1.5"/><path stroke-linecap="round" transform="matrix(0.808603, 0.0564302, -0.0587417, 0.842054, -14670.431903, -11647.910617)" fill="none" stroke-linejoin="round" d="M 20339.998566 12838.998554 C 20153.097747 12866.7998 19965.800046 12878.49799 19773.001752 12871.999695 C 19837.197511 12678.200863 20282.401379 12633.400246 20339.998566 12838.998554 Z M 20339.998566 12838.998554 " stroke="#000000" stroke-width="16.620001" stroke-opacity="1" stroke-miterlimit="1.5"/><path stroke-linecap="round" transform="matrix(0.960322, 0, 0, 0.960509, -105.802486, -377.248788)" fill-opacity="1" fill="#006e00" fill-rule="evenodd" stroke-linejoin="round" d="M 758.983534 1476.230106 L 1009.188405 1488.459135 L 1074.929673 1741.230373 L 885.633708 1732.511039 L 858.775052 1641.258971 L 830.899486 1729.981456 L 678.448243 1702.481389 Z M 758.983534 1476.230106 " stroke="#000000" stroke-width="14.32" stroke-opacity="1" stroke-miterlimit="1.5"/><path stroke-linecap="round" transform="matrix(0.960322, 0, 0, 0.960509, -188.469354, -213.806282)" fill-opacity="1" fill="#2ca6a4" fill-rule="evenodd" stroke-linejoin="round" d="M 976.556615 1093.660013 C 943.494802 1097.531658 933.488397 1055.761002 933.488397 1055.761002 L 858.688485 1068.990478 L 854.287294 1132.848218 L 894.479687 1129.85908 L 790.258504 1332.010187 L 1141.719246 1331.249686 L 1049.009496 1147.399421 L 1082.319436 1139.639864 L 1083.881411 1077.071316 L 1020.239048 1062.129695 C 1020.239048 1062.129695 1009.789269 1089.780235 976.556615 1093.660013 Z M 976.556615 1093.660013 " stroke="#000000" stroke-width="14.32" stroke-opacity="1" stroke-miterlimit="1.5"/></svg>