<svg xmlns="http://www.w3.org/2000/svg" xmlns:xlink="http://www.w3.org/1999/xlink" width="2000" zoomAndPan="magnify" viewBox="0 0 1500 1499.999933" height="2000" preserveAspectRatio="xMidYMid meet" version="1.0"><path stroke-linecap="butt" transform="matrix(0.774112, 0, 0, 0.774112, -2896.507229, -9467.174325)" fill-opacity="1" fill="#fdf6ed" fill-rule="evenodd" stroke-linejoin="round" d="M 4399.437689 13247.800562 C 4364.801249 13248.698768 4332.950257 13234.499038 4304.550798 13209.10201 C 4274.909999 13182.498964 4248.967992 13143.598568 4227.511969 13097.69923 C 4163.97146 12961.701752 4139.618975 12763.798702 4169.698785 12649.499459 C 4181.360325 12605.199735 4201.90805 12573.202406 4231.039194 12560.001805 C 4233.320031 12558.997631 4235.570593 12558.200347 4237.770693 12557.498939 C 4226.507795 12547.199846 4220.452473 12538.702211 4217.722532 12532.197787 C 4214.538442 12524.502482 4215.14902 12518.401745 4217.298659 12513.799701 C 4220.578625 12506.800758 4228.198238 12502.597356 4236.897717 12502.198714 C 4246.561001 12501.69915 4252.187404 12500.30138 4255.088913 12497.001229 C 4256.738988 12495.098849 4257.061938 12492.601029 4257.167906 12490.002287 C 4257.349566 12485.602086 4256.688527 12480.89912 4256.229332 12475.999355 C 4254.841654 12461.300062 4255.421955 12446.398925 4270.277678 12435.802112 C 4276.978901 12430.902347 4284.558145 12429.297687 4292.409879 12428.202683 C 4299.762048 12427.299431 4307.497722 12427.198509 4313.840671 12421.501461 C 4318.089488 12417.701746 4321.520837 12411.399166 4324.230594 12401.301917 C 4328.191783 12386.400779 4330.401976 12373.901586 4333.818186 12365.701671 C 4337.400918 12357.198991 4342.547942 12352.50107 4349.380363 12351.199176 C 4355.269163 12350.099126 4363.630553 12351.900584 4375.302186 12359.399091 C 4376.260945 12359.999577 4381.332277 12365.000263 4388.189929 12369.001822 C 4393.099785 12371.898284 4399.139969 12374.69887 4404.892524 12372.599692 C 4410.180839 12370.702358 4414.359011 12364.702543 4417.830728 12353.399276 C 4420.278088 12345.401206 4422.180468 12333.598374 4425.889352 12323.697924 C 4429.482176 12314.201161 4434.86132 12306.298966 4442.450657 12302.600174 C 4450.140915 12298.699537 4460.682221 12298.401817 4475.109025 12306.601732 C 4479.261967 12308.99863 4482.572209 12309.80096 4485.448487 12309.099552 C 4488.481194 12308.302268 4490.817539 12306.001246 4493.037823 12303.402504 C 4497.508669 12298.300895 4501.227646 12291.801517 4505.188835 12286.699908 C 4510.038139 12280.402374 4515.477836 12276.002173 4521.568481 12274.902123 C 4527.810508 12273.701151 4535.500766 12275.300765 4544.639256 12284.000244 C 4547.571041 12286.699908 4552.869447 12295.601231 4559.489932 12301.202404 C 4561.417543 12302.802018 4563.309831 12304.497508 4565.570485 12304.098866 C 4567.139822 12303.801146 4568.537592 12302.499252 4570.167483 12300.400074 C 4571.762051 12298.497693 4573.972243 12294.001617 4577.21184 12290.297779 C 4580.451438 12286.598986 4584.518595 12283.50068 4589.367899 12282.198786 C 4596.578778 12280.301452 4606.741626 12281.800144 4619.301372 12295.500309 C 4627.117783 12304.098866 4633.889651 12309.80096 4639.950019 12313.297909 C 4644.658031 12315.901697 4648.699959 12317.097623 4652.358382 12316.598059 C 4657.989831 12315.997573 4662.299202 12311.900139 4666.431959 12306.899452 C 4671.881748 12300.198229 4676.660406 12291.599673 4681.60054 12283.298836 C 4687.857705 12272.702023 4694.397453 12262.599728 4702.107896 12255.898505 C 4711.478506 12247.900435 4722.458823 12244.201642 4736.401201 12248.899563 C 4743.798785 12251.402429 4749.748139 12257.901808 4754.28963 12267.297648 C 4759.4417 12277.899507 4763.110215 12292.598801 4767.878781 12305.799402 C 4770.311002 12312.500625 4773.010666 12318.899081 4776.588352 12323.798846 C 4779.288016 12327.497638 4782.451922 12330.399146 4786.720924 12331.297352 C 4790.742666 12332.200604 4795.50114 12331.398274 4801.319295 12329.001376 C 4804.291449 12327.699482 4816.861287 12320.200975 4829.809583 12316.401261 C 4840.779808 12313.297909 4851.941784 12313.202033 4859.939855 12318.399517 L 4863.149175 12321.401947 C 4864.047381 12322.597873 4864.869896 12324.202534 4865.551119 12325.998946 C 4867.039719 12330.000504 4867.831957 12336.298039 4868.831085 12342.600619 C 4869.391203 12346.097568 4871.1422 12351.300098 4871.742686 12353.000634 C 4872.661076 12352.601992 4874.371705 12352.001506 4875.719014 12351.098254 C 4877.429642 12349.998204 4885.417621 12343.998389 4894.152422 12338.997703 C 4900.919244 12335.197989 4908.160399 12332.099682 4913.791849 12331.398274 C 4916.531882 12330.999632 4919.029702 12331.201476 4921.199525 12331.801962 L 4923.868913 12332.700168 L 4926.437379 12334.299783 L 4929.152181 12337.100369 L 4931.009147 12340.400519 C 4931.7812 12342.297853 4932.311041 12344.699798 4932.381686 12347.500384 L 4931.937629 12350.59869 C 4931.150437 12353.60112 4927.058049 12367.699928 4928.29939 12378.099943 C 4928.460865 12379.401837 4928.698032 12380.597763 4929.111812 12381.697813 C 4929.328795 12382.298299 4929.480178 12382.797863 4929.96965 12383.100629 C 4930.792164 12383.600193 4931.87203 12383.398349 4933.259708 12383.100629 C 4937.912213 12380.900529 4957.450718 12371.600564 4970.151755 12371.600564 C 4976.040555 12371.600564 4980.859582 12373.402022 4984.129456 12376.702172 L 4986.021744 12378.902273 L 4987.459883 12381.501015 C 4988.181475 12383.100629 4988.691131 12384.997963 4988.908114 12387.097141 C 4989.680167 12394.797492 4985.870361 12404.798865 4981.702281 12414.699316 C 4979.809993 12419.200438 4977.927797 12423.600639 4976.928669 12427.698073 C 4976.388736 12429.898173 4975.808435 12431.901475 4976.620857 12433.50109 C 4977.322265 12434.89886 4979.159046 12435.201626 4981.798157 12435.802112 C 4987.328684 12436.80124 4995.28134 12436.700318 5006.448362 12435.201626 C 5022.399089 12433.097402 5034.222104 12437.699446 5042.149529 12445.298875 C 5060.300356 12462.697832 5057.969057 12498.398999 5033.989983 12515.999801 C 5020.320095 12526.102096 4999.429235 12530.598172 4971.347681 12520.601846 C 5024.962508 12618.09757 5044.950116 12746.1979 4999.257668 12869.499387 L 5018.09981 12878.097944 L 5112.588059 12878.097944 C 5114.041336 12878.097944 5115.45929 12878.501632 5116.680447 12879.298916 L 5186.029018 12923.699562 L 5253.308688 12901.597638 C 5256.028536 12900.699432 5259.030967 12901.40084 5261.0595 12903.500018 C 5263.07794 12905.498274 5263.78944 12908.500705 5262.881142 12911.200369 L 5217.688258 13046.799205 C 5242.681598 13061.498499 5247.460256 13096.901946 5237.529529 13128.399711 C 5227.25062 13160.997526 5201.858638 13187.398728 5172.490328 13182.398042 L 5167.772223 13196.501895 C 5167.741947 13196.597771 5167.71167 13196.698693 5167.681393 13196.799615 L 5093.069738 13420.599257 C 5079.808584 13463.198445 5069.171402 13514.09847 5060.668721 13534.701702 C 5058.771387 13539.2987 5056.818546 13542.59885 5055.077641 13544.597106 L 5052.741296 13546.701331 L 5050.500827 13547.902303 C 5049.799419 13548.200023 5045.787769 13548.699587 5039.798046 13548.401867 C 5022.752316 13547.801381 4983.342264 13544.798951 4983.342264 13544.798951 C 4982.57021 13544.798951 4981.818341 13544.597106 4981.111887 13544.299386 C 4981.111887 13544.299386 4936.262138 13526.400865 4927.300262 13520.69877 L 4835.370387 13523.701201 C 4834.658887 13523.701201 4833.94234 13523.600279 4833.251024 13523.398435 L 4785.499767 13511.297883 L 4805.159378 13550.299201 C 4806.511733 13552.998865 4806.380535 13556.198094 4804.801105 13558.70096 C 4803.231767 13561.299702 4800.441273 13562.899316 4797.428751 13562.899316 L 4749.939891 13563.000238 L 4832.110606 13878.901323 C 4832.801921 13881.500065 4832.191343 13884.401573 4830.450438 13886.500752 C 4828.709533 13888.700852 4826.06033 13889.901824 4823.310205 13889.69998 L 4675.540172 13882.902881 C 4688.559113 13951.398661 4699.529338 14014.999723 4706.760401 14057.598911 C 4739.060496 14048.702634 4778.652208 14040.80044 4814.741925 14040.401798 C 4842.328961 14040.099031 4867.917741 14044.10059 4887.188802 14054.798325 C 4901.201826 14062.599598 4906.999796 14072.101406 4907.792034 14081.300449 C 4908.579226 14090.39857 4904.279948 14100.097177 4895.35844 14109.200344 C 4875.189173 14129.601732 4829.860044 14147.797973 4789.440772 14150.098995 C 4760.900023 14151.69861 4734.988292 14145.199231 4720.72801 14128.097993 C 4710.388548 14115.699722 4695.780085 14096.802073 4691.258778 14070.098104 C 4683.992392 14027.100274 4672.098731 13957.297554 4657.787987 13882.100551 L 4565.308087 13877.801273 C 4561.609295 13877.700351 4558.430251 13875.202531 4557.380662 13871.599614 L 4528.82982 13774.598407 L 4499.390865 13868.299464 C 4498.078879 13872.49782 4493.87043 13875.000687 4489.571152 13874.299278 L 4459.511526 13868.89995 C 4439.478503 13946.599819 4422.831415 14014.797879 4415.620536 14039.498545 L 4415.610444 14039.498545 C 4402.899314 14083.000985 4386.549946 14108.599858 4363.438802 14123.601917 C 4340.559778 14138.498008 4310.611166 14143.100053 4269.429933 14142.999131 C 4241.408932 14142.999131 4216.390361 14123.798715 4207.811989 14101.399071 C 4201.660791 14085.397884 4203.482434 14067.802128 4217.43995 14053.698275 C 4234.440266 14036.501161 4259.620312 14027.302118 4287.78765 14023.401482 C 4324.952186 14018.198952 4367.34953 14022.301432 4401.032257 14027.302118 C 4409.010143 13998.39805 4424.340199 13936.098882 4442.51121 13865.801644 L 4281.787835 13836.801699 C 4279.279923 13836.302135 4277.100007 13834.798397 4275.818297 13832.598297 C 4274.541634 13830.398196 4274.299421 13827.698532 4275.152212 13825.301634 L 4368.247736 13563.797522 L 4318.412439 13563.898444 C 4315.389824 13563.898444 4312.569054 13562.29883 4310.989624 13559.80101 C 4309.410194 13557.202268 4309.289088 13553.997993 4310.681812 13551.298329 L 4445.619609 13289.501543 L 4406.300387 13292.498928 C 4403.792474 13292.59985 4401.319885 13291.701644 4399.538611 13290.001107 C 4397.752291 13288.199649 4396.828854 13285.701829 4397.000422 13283.198963 Z M 4983.241342 12862.298601 C 5028.060814 12740.001287 5005.827692 12612.900086 4950.19947 12518.497621 C 4945.950653 12520.601846 4943.932212 12524.901124 4941.651374 12528.80176 C 4935.999741 12538.601289 4929.909096 12547.098924 4916.920431 12547.69941 C 4894.187745 12548.698538 4883.58084 12532.601475 4879.700388 12510.802317 C 4876.869525 12494.902051 4877.651671 12475.898433 4877.681947 12461.900548 C 4877.692039 12456.001656 4876.960355 12449.300433 4876.839248 12448.200383 C 4873.438176 12444.198825 4869.482032 12444.501591 4865.379552 12445.798439 C 4860.550433 12447.498975 4855.569931 12450.299561 4850.54906 12452.797381 C 4840.270151 12457.89899 4829.789399 12461.400984 4820.141253 12458.100834 C 4813.480399 12455.900734 4806.728716 12450.597281 4800.920653 12439.399982 L 4799.548113 12434.702062 C 4798.781106 12430.402783 4797.549857 12420.502332 4794.60798 12412.398294 C 4793.840973 12410.299115 4792.957905 12408.300859 4791.857855 12406.701245 C 4791.519766 12406.201681 4790.848635 12405.601195 4790.571099 12405.298429 C 4789.970613 12405.601195 4787.467747 12406.898043 4785.630966 12408.699501 C 4781.740422 12412.398294 4777.330129 12418.398108 4772.157875 12427.097587 C 4767.041128 12435.802112 4757.988422 12438.698574 4747.931542 12436.80124 C 4736.189264 12434.500218 4723.10977 12424.700689 4717.670072 12412.70106 C 4714.329553 12405.298429 4711.352353 12400.201867 4708.521491 12396.997592 C 4707.90082 12396.200308 4707.310426 12395.599822 4706.720032 12395.20118 C 4706.437451 12394.898414 4706.008532 12394.701616 4705.741089 12394.499772 C 4704.98922 12395.302102 4700.669757 12400.100945 4698.540302 12403.799737 C 4694.412591 12411.101446 4690.648199 12419.200438 4687.040237 12423.898359 C 4685.561729 12425.800739 4684.037807 12427.299431 4682.559299 12428.298559 L 4680.389475 12429.600453 L 4677.689811 12430.498659 C 4669.388974 12432.40104 4661.648255 12430.599581 4654.371777 12426.502147 C 4645.59156 12421.501461 4637.482475 12412.600138 4629.918369 12404.001581 C 4625.129619 12398.597206 4620.578036 12393.2988 4616.051683 12389.70093 C 4613.750661 12387.899471 4611.75745 12386.198935 4609.451382 12386.900343 C 4607.528818 12387.601751 4605.848466 12389.398164 4603.870394 12392.19875 C 4600.812457 12396.402152 4597.739381 12402.598765 4594.499784 12411.101446 C 4588.378863 12427.097587 4580.400977 12434.999782 4572.377675 12438.799496 C 4560.337677 12444.501591 4547.142122 12440.898674 4535.990238 12436.902162 C 4533.189652 12435.897988 4530.570725 12434.89886 4528.188966 12434.202498 C 4527.608664 12434.101576 4526.851749 12433.899732 4526.231078 12433.79881 C 4524.459897 12440.000468 4523.14791 12445.399797 4521.311129 12449.401355 C 4519.141306 12453.998353 4516.169152 12457.101706 4512.399714 12458.802242 C 4507.520134 12461.002342 4499.890429 12461.002342 4487.991722 12453.998353 C 4486.018696 12452.898303 4477.642168 12445.001155 4466.99994 12439.500904 C 4459.688139 12435.70119 4451.07949 12432.597837 4443.348863 12436.599396 C 4437.919258 12439.399982 4433.337398 12445.500719 4429.527591 12455.799812 C 4426.560484 12463.898804 4425.031515 12473.501535 4421.559797 12481.201886 C 4418.481675 12488.099907 4414.051198 12493.802001 4407.238962 12497.298949 C 4400.578108 12500.800944 4391.278143 12502.299636 4377.719268 12499.398128 C 4374.298012 12498.701766 4371.981851 12498.398999 4370.457929 12499.599972 C 4368.83813 12500.901866 4368.439488 12503.197842 4367.899555 12505.700708 C 4367.082087 12509.500423 4366.688491 12513.799701 4366.168742 12518.098979 C 4364.781065 12529.599044 4362.091492 12540.998187 4354.037915 12548.198974 C 4348.350958 12553.19966 4339.939107 12556.600733 4326.829336 12555.798403 C 4325.199445 12555.702527 4324.361792 12556.600733 4323.917736 12557.801705 C 4323.059898 12560.198603 4322.878239 12563.201033 4322.9287 12566.198418 C 4323.059898 12575.402507 4325.739378 12585.202035 4326.148112 12586.700728 C 4329.271649 12598.200793 4325.340736 12607.798477 4318.250964 12611.800036 C 4314.289774 12614.101058 4308.400974 12614.999264 4301.068988 12612.501444 C 4306.019214 12635.799294 4305.171469 12662.498216 4297.879852 12683.101448 C 4291.330013 12701.600456 4279.607919 12715.199699 4263.218182 12719.5999 C 4257.127538 12721.199514 4251.420397 12722.198642 4246.07153 12722.698206 C 4243.39205 12784.200089 4253.781972 12855.40058 4281.222672 12937.798369 C 4350.889147 13103.300402 4502.070345 13142.200798 4634.172233 13128.399711 C 4701.557871 13121.50169 4764.099251 13100.898458 4808.499897 13076.197792 L 4872.24225 12852.201352 C 4870.612359 12852.700916 4868.891639 12852.998636 4867.069996 12853.301402 C 4852.890451 12855.501502 4842.399606 12848.598435 4836.20804 12835.100114 C 4829.26965 12819.901257 4828.482459 12794.701026 4834.578149 12769.001232 C 4842.611543 12735.101523 4841.420663 12689.000341 4842.081702 12682.097274 L 4843.161568 12677.898918 L 4844.680444 12675.698818 L 4847.319555 12673.599639 L 4850.967886 12672.499589 L 4854.858431 12672.999153 L 4858.239319 12674.901534 L 4860.550433 12677.99984 C 4860.732093 12678.29756 4860.87843 12678.701248 4860.999536 12679.09989 C 4883.081276 12743.70008 4898.820066 12787.999804 4898.880619 12814.401006 C 4898.880619 12817.701157 4898.658591 12820.799463 4898.21958 12823.600049 Z M 4360.401049 12596.99982 L 4362.722255 12593.901514 L 4366.098097 12591.999134 L 4369.988641 12591.49957 L 4373.642019 12592.59962 L 4376.28113 12594.698798 L 4377.800006 12596.898898 L 4378.879872 12601.097255 C 4379.530819 12608.000321 4378.350031 12654.101504 4386.368286 12688.001213 C 4392.479115 12713.701007 4391.691923 12738.901237 4384.748488 12754.100095 C 4378.561967 12767.598416 4368.071123 12774.501483 4353.881486 12772.301382 C 4342.588311 12770.499924 4334.812268 12766.099724 4329.670291 12759.600345 C 4324.689789 12753.201889 4322.06077 12744.598286 4322.080955 12733.400987 C 4322.131416 12706.999784 4337.870206 12662.70006 4359.951946 12598.099871 C 4360.078098 12597.701229 4360.229481 12597.29754 4360.401049 12596.99982 Z M 4486.149895 13002.398559 C 4462.271743 13002.600403 4448.430287 12994.001847 4441.759341 12982.002217 C 4435.270055 12970.300308 4435.471899 12954.198199 4442.082292 12936.698319 C 4451.518501 12911.599011 4473.948422 12883.09863 4502.691015 12862.601367 C 4531.907942 12841.902259 4567.498095 12829.498942 4602.169858 12836.402008 C 4631.891395 12842.300901 4661.340443 12862.298601 4685.390162 12904.201426 C 4707.850359 12943.399542 4718.94169 12981.800373 4716.327809 13006.899682 C 4714.708011 13022.598103 4707.981558 13033.800448 4696.991149 13039.401621 C 4686.888854 13044.498183 4672.209745 13044.997747 4652.560226 13037.398318 C 4543.221302 12995.000975 4595.680571 13001.798073 4486.149895 13002.398559 Z M 4628.490323 12596.101614 C 4639.652299 12590.39952 4648.997679 12590.899084 4656.511324 12594.698798 C 4666.220023 12599.497641 4673.572192 12611.401394 4676.488839 12626.998893 C 4680.101848 12646.401153 4677.54852 12671.500461 4669.36879 12689.898547 C 4662.879504 12704.501964 4652.741886 12714.801057 4640.419306 12717.899363 C 4625.770474 12721.50228 4611.888649 12714.498291 4602.47767 12700.202686 C 4584.589241 12672.999153 4584.38235 12618.698056 4628.490323 12596.101614 Z M 4607.377434 12533.999245 C 4603.719011 12537.097551 4598.238945 12536.597987 4595.150731 12533.000117 C 4592.047378 12529.301324 4592.51162 12523.801074 4596.170043 12520.697721 C 4600.792272 12516.802131 4622.768044 12494.801129 4651.611559 12498.701766 C 4670.292226 12501.300508 4692.691871 12514.501109 4714.667642 12552.997816 C 4717.049402 12557.201219 4715.591079 12562.499625 4711.428045 12564.90157 C 4707.270057 12567.202592 4701.971651 12565.799776 4699.589891 12561.601419 C 4681.651001 12530.19953 4664.539671 12517.998057 4649.28026 12515.898879 C 4627.228797 12513.002417 4610.919798 12531.00186 4607.377434 12533.999245 Z M 4383.330533 12558.901755 C 4378.718397 12560.198603 4373.919554 12557.498939 4372.61766 12552.90194 C 4371.320812 12548.299896 4374.020476 12543.501054 4378.627567 12542.199159 C 4396.758209 12537.097551 4410.201023 12535.497937 4421.968531 12526.399816 C 4433.720902 12517.402617 4443.490154 12500.997742 4455.42923 12467.597597 C 4457.049028 12463.10152 4462.019438 12460.800498 4466.530653 12462.400112 C 4471.041867 12463.999726 4473.388305 12468.899491 4471.778598 12473.501535 C 4458.10871 12511.700523 4445.987974 12529.800888 4432.540114 12540.200903 C 4419.107392 12550.499996 4404.039733 12553.098738 4383.330533 12558.901755 Z M 4477.188019 12598.700357 C 4486.901764 12590.702286 4496.16136 12589.29947 4504.290629 12591.398648 C 4514.801659 12594.098312 4524.469989 12604.200607 4530.611094 12618.8999 C 4538.190338 12637.000266 4540.97074 12662.099574 4536.817799 12681.799554 C 4533.537833 12697.497976 4525.792067 12709.699449 4514.387878 12715.300621 C 4500.818912 12721.900922 4485.771437 12717.899363 4473.569964 12705.899734 C 4450.388174 12683.101448 4438.812418 12630.097199 4477.188019 12598.700357 Z M 4732.122107 13344.599924 L 4756.827819 13257.801934 C 4746.680109 13260.002035 4736.360832 13262.000291 4725.859895 13263.801749 L 4725.12821 13293.301258 C 4725.027288 13297.201894 4722.272117 13300.59792 4718.421941 13301.501172 L 4683.770363 13309.600165 L 4722.509284 13386.401828 C 4726.480565 13368.801027 4730.017882 13353.299403 4732.041369 13344.90269 C 4732.061553 13344.801768 4732.09183 13344.700846 4732.122107 13344.599924 Z M 4228.697802 12722.400486 C 4219.448299 12721.098592 4211.55115 12718.101207 4204.789374 12713.801929 C 4193.798965 12706.898862 4185.78071 12696.599769 4180.00797 12684.998782 C 4161.720899 12798.500741 4186.779838 12969.497978 4243.240667 13090.402567 C 4263.591594 13133.899961 4288.009678 13170.897977 4316.131601 13196.098207 C 4341.427707 13218.800617 4369.701013 13231.698452 4400.638661 13230.300682 L 4403.000236 13196.199129 C 4403.26768 13192.202617 4406.219649 13188.902466 4410.150562 13188.201058 L 4512.091902 13170.201615 C 4516.608163 13169.399284 4520.978087 13172.300793 4522.04786 13176.700993 C 4522.04786 13176.700993 4525.14112 13189.497906 4533.280482 13201.699379 C 4538.831193 13210.101138 4546.839356 13218.301053 4558.228407 13221.101639 C 4558.450436 13198.202431 4558.662372 13173.799485 4558.879354 13147.600126 C 4442.117614 13140.601184 4324.982463 13086.900573 4265.090286 12944.201872 C 4264.999456 12944.000028 4264.92881 12943.798184 4264.858165 12943.601386 C 4236.650458 12858.99845 4226.028415 12785.799704 4228.697802 12722.400486 Z M 4936.731425 13517.201822 C 4935.979556 13518.301872 4934.919875 13519.301 4933.617981 13519.901486 C 4935.121719 13519.200078 4936.130939 13518.301872 4936.791979 13517.201822 C 4936.771794 13517.201822 4936.75161 13517.201822 4936.731425 13517.201822 Z M 4801.980334 13099.102046 C 4757.181046 13121.299846 4698.62104 13139.198368 4635.968645 13145.697746 C 4616.349403 13147.701048 4596.341611 13148.700177 4576.227851 13148.301535 C 4576.010868 13174.198127 4575.798932 13198.500151 4575.592042 13221.202561 C 4611.949202 13214.799059 4623.721757 13184.401344 4623.721757 13184.401344 C 4625.260818 13180.298863 4629.580281 13177.997841 4633.819006 13179.002015 L 4720.561488 13199.297435 C 4724.558001 13200.301609 4727.358587 13203.89948 4727.247573 13208.00196 L 4726.298906 13246.100025 C 4738.540748 13244.000847 4750.520192 13241.497981 4762.252378 13238.702441 Z M 4801.980334 13099.102046 " stroke="#fdf6ed" stroke-width="28.26" stroke-opacity="1" stroke-miterlimit="2"/><path stroke-linecap="round" transform="matrix(2.296933, 0, 0, 2.503754, -1606.503812, -2094.68516)" fill-opacity="1" fill="#ffffff" fill-rule="evenodd" stroke-linejoin="round" d="M 878.491316 1056.459471 C 817.367014 888.424307 1003.870794 866.472896 1053.299814 880.331772 C 1120.930754 899.295482 1173.269565 1016.820559 1072.87925 1092.970269 C 1036.949888 1120.229334 918.595743 1144.110659 878.491316 1056.459471 Z M 878.491316 1056.459471 " stroke="#000000" stroke-width="5.59" stroke-opacity="1" stroke-miterlimit="1.5"/><path stroke-linecap="round" transform="matrix(0.774111, 0, 0, 0.774111, -2896.510253, -9467.208885)" fill="none" stroke-linejoin="round" d="M 4601.771255 12527.39858 C 4608.56837 12521.600595 4657.228045 12469.898114 4707.129064 12557.30185 " stroke="#000000" stroke-width="17.360001" stroke-opacity="1" stroke-miterlimit="1.5"/><path stroke-linecap="round" transform="matrix(0.774111, 0, 0, 0.774111, -2896.510253, -9467.208885)" fill="none" stroke-linejoin="round" d="M 4380.978548 12550.600611 C 4419.818486 12539.600083 4437.999633 12542.097909 4463.608661 12470.498602 " stroke="#000000" stroke-width="17.360001" stroke-opacity="1" stroke-miterlimit="1.5"/><path stroke-linecap="round" transform="matrix(1.055047, 0, 0, 1.055047, -367.624915, -417.09644)" fill-opacity="1" fill="#000000" fill-rule="evenodd" stroke-linejoin="round" d="M 1002.920604 671.573355 C 964.019066 691.544317 981.257627 751.397964 1005.819615 745.318558 C 1034.098853 738.317243 1035.239204 654.979018 1002.920604 671.573355 Z M 1002.920604 671.573355 " stroke="#000000" stroke-width="16.790001" stroke-opacity="1" stroke-miterlimit="1.5"/><path stroke-linecap="round" transform="matrix(1.031613, -0.221132, 0.221132, 1.031613, -608.189506, -178.59875)" fill-opacity="1" fill="#000000" fill-rule="evenodd" stroke-linejoin="round" d="M 1002.919293 671.575223 C 964.019087 691.541195 981.257354 751.398367 1005.821198 745.319263 C 1034.100521 738.317498 1035.239718 654.977461 1002.919293 671.575223 Z M 1002.919293 671.575223 " stroke="#000000" stroke-width="16.790001" stroke-opacity="1" stroke-miterlimit="1.5"/><path stroke-linecap="round" transform="matrix(-1.055047, 0, 0, 1.055047, 1699.191919, -389.253738)" fill="none" stroke-linejoin="round" d="M 1006.031221 1125.948908 C 834.711911 1140.081122 711.531728 1061.67825 639.578506 995.134294 " stroke="#000000" stroke-width="12.74" stroke-opacity="1" stroke-miterlimit="1.5"/><path stroke-linecap="round" transform="matrix(0.969451, 0, 0, 0.969451, -260.054505, -592.671305)" fill="none" stroke-linejoin="round" d="M 927.715145 1339.062048 C 925.507067 1609.789401 923.830861 1650.219802 907.757822 1680.999933 C 874.161182 1745.340441 813.934631 2005.780887 799.698972 2054.45129 C 780.628104 2119.670193 752.015757 2132.249794 689.62948 2132.141002 C 657.273877 2132.080562 630.551291 2095.389388 653.03904 2072.619586 C 684.508188 2040.771679 754.453508 2047.279064 799.698972 2054.45129 " stroke="#000000" stroke-width="13.86" stroke-opacity="1" stroke-miterlimit="1.5"/><path stroke-linecap="round" transform="matrix(0.969451, 0, 0, 0.969451, -260.054505, -592.671305)" fill="none" stroke-linejoin="round" d="M 920.756475 1649.998188 C 957.177682 1635.158128 1014.519226 1968.779454 1033.291923 2079.670931 C 1036.648363 2099.511403 1047.628316 2113.501273 1055.308239 2122.708316 C 1091.608566 2166.249368 1236.068478 2106.139668 1179.540862 2074.718872 C 1143.38962 2054.628581 1077.380965 2066.740778 1033.291923 2079.670931 " stroke="#000000" stroke-width="13.86" stroke-opacity="1" stroke-miterlimit="1.5"/><path fill="#000000" d="M 741.667969 1423.464844 C 784.414062 1410.929688 848.402344 1399.199219 883.449219 1418.675781 C 938.25 1449.136719 798.214844 1507.40625 763.015625 1465.191406 C 755.566406 1456.265625 748.375 1441.792969 741.667969 1423.464844 Z M 741.667969 1423.464844 " fill-opacity="1" fill-rule="evenodd"/><path fill="#000000" d="M 515.214844 1399.019531 C 496.726562 1462.25 468.988281 1474.445312 408.507812 1474.328125 C 377.140625 1474.277344 351.234375 1438.710938 373.035156 1416.640625 C 403.542969 1385.757812 471.351562 1392.066406 515.214844 1399.019531 Z M 515.214844 1399.019531 " fill-opacity="1" fill-rule="evenodd"/><path stroke-linecap="round" transform="matrix(1.055043, 0, 0, 1.055043, -296.536084, -558.805988)" fill-opacity="1" fill="#0057b7" fill-rule="evenodd" stroke-linejoin="round" d="M 758.982344 1476.230068 L 1009.190684 1488.459283 L 1074.93151 1741.229723 L 885.635992 1732.510437 L 858.778369 1641.259682 L 830.898868 1729.981659 L 678.450202 1702.479808 Z M 758.982344 1476.230068 " stroke="#000000" stroke-width="12.74" stroke-opacity="1" stroke-miterlimit="1.5"/><path stroke-linecap="round" transform="matrix(1.055043, 0, 0, 1.055043, -387.356681, -379.277447)" fill-opacity="1" fill="#00b1e2" fill-rule="evenodd" stroke-linejoin="round" d="M 976.557498 1093.661459 C 943.494558 1097.530527 933.486816 1055.759407 933.486816 1055.759407 L 858.686078 1068.988286 L 854.287559 1132.848264 L 894.481432 1129.860381 L 790.257268 1332.010829 L 1141.720402 1331.251826 L 1049.010879 1147.39892 L 1082.318182 1139.63857 L 1083.880619 1077.070749 L 1020.239086 1062.131335 C 1020.239086 1062.131335 1009.790752 1089.781284 976.557498 1093.661459 Z M 976.557498 1093.661459 " stroke="#000000" stroke-width="12.74" stroke-opacity="1" stroke-miterlimit="1.5"/><path stroke-linecap="round" transform="matrix(-0.832207, 0, 0, 0.946132, 35418.176983, -13391.962387)" fill-opacity="1" fill="#00b1e2" fill-rule="evenodd" stroke-linejoin="round" d="M 41526.697242 14524.597627 C 41493.300557 14610.799718 41474.999268 14651.499953 41514.0004 14656.80114 C 41536.399413 14659.901757 41542.801814 14629.201113 41534.198001 14597.402248 C 41525.800718 14566.098821 41528.00213 14522.297969 41526.697242 14524.597627 Z M 41526.697242 14524.597627 " stroke="#000000" stroke-width="16.67" stroke-opacity="1" stroke-miterlimit="1.5"/><path stroke-linecap="round" transform="matrix(0.832207, 0, 0, 0.946132, -34073.142152, -13454.662381)" fill-opacity="1" fill="#00b1e2" fill-rule="evenodd" stroke-linejoin="round" d="M 41526.697633 14524.598447 C 41493.300948 14610.800538 41474.999659 14651.500773 41514.000791 14656.797832 C 41536.399804 14659.898448 41542.802205 14629.201933 41534.198392 14597.398939 C 41525.801109 14566.099641 41527.997827 14522.298789 41526.697633 14524.598447 Z M 41526.697633 14524.598447 " stroke="#000000" stroke-width="16.67" stroke-opacity="1" stroke-miterlimit="1.5"/><path stroke-linecap="round" transform="matrix(0.832207, 0, 0, 0.946132, -31607.142364, -12967.837303)" fill-opacity="1" fill="#000000" fill-rule="evenodd" stroke-linejoin="round" d="M 38672.396128 14330.501428 C 38553.801519 14331.100083 38751.39818 14110.398949 38850.100286 14261.899774 C 38889.603659 14322.500104 38890.800589 14380.202121 38830.498803 14359.699244 C 38726.699184 14324.300196 38776.500846 14330.001862 38672.396128 14330.501428 Z M 38672.396128 14330.501428 " stroke="#000000" stroke-width="16.67" stroke-opacity="1" stroke-miterlimit="1.5"/><path fill="#ffffff" d="M 1040.484375 920.105469 C 1027.71875 961.03125 1018.125 1012.09375 1010.964844 1014.914062 C 1009.003906 1015.710938 961.53125 1012.179688 961.53125 1012.179688 C 961.53125 1012.179688 917.421875 994.675781 920.175781 993.398438 L 846.433594 995.753906 L 748.375 970.902344 C 748.375 970.902344 767.015625 886.625 772.335938 864.667969 L 870.691406 908.0625 L 946.496094 896.039062 L 988.847656 925.742188 Z M 1040.484375 920.105469 " fill-opacity="1" fill-rule="evenodd"/><path fill="#00b1e2" d="M 1098.292969 746.628906 L 1040.484375 920.105469 L 988.847656 925.742188 L 946.496094 896.039062 L 937.191406 897.511719 C 939.496094 895.628906 942.050781 893.519531 944.847656 891.191406 C 988.101562 855.386719 1018.324219 809.109375 981.519531 804.453125 C 935.019531 798.621094 982.09375 748.960938 941.316406 727.625 C 923.15625 718.050781 888.507812 731.84375 863.15625 717.480469 C 843.363281 706.371094 841.0625 695.128906 820.785156 694.210938 L 835.441406 642.878906 C 840.402344 640.585938 846.523438 638.296875 854.5625 635.777344 C 892.046875 624.050781 883.910156 588.707031 947.855469 567.296875 C 973.300781 558.742188 978.546875 530.390625 975.464844 502.621094 L 986.765625 507.796875 L 1026.847656 507.773438 C 1027.691406 531.511719 1035.507812 545.328125 1025.261719 576.863281 C 1010.460938 622.597656 974.523438 634.917969 1011.277344 689.597656 C 1019.332031 701.617188 1006.636719 706.074219 1019.070312 746.34375 C 1024.996094 765.445312 1069.894531 745.058594 1098.292969 746.628906 Z M 1098.292969 746.628906 " fill-opacity="1" fill-rule="evenodd"/><path fill="#66de69" d="M 937.191406 897.511719 L 870.691406 908.0625 L 772.335938 864.667969 L 820.785156 694.210938 C 841.0625 695.128906 843.363281 706.371094 863.15625 717.480469 C 888.507812 731.84375 923.15625 718.050781 941.316406 727.625 C 982.09375 748.960938 935.019531 798.621094 981.519531 804.453125 C 1018.324219 809.109375 988.101562 855.386719 944.847656 891.191406 C 942.050781 893.519531 939.496094 895.628906 937.191406 897.511719 Z M 937.191406 897.511719 " fill-opacity="1" fill-rule="evenodd"/><path fill="#66de69" d="M 835.441406 642.878906 L 886.785156 462.371094 L 975.464844 502.621094 C 978.546875 530.390625 973.300781 558.742188 947.855469 567.296875 C 883.910156 588.707031 892.046875 624.050781 854.5625 635.777344 C 846.523438 638.296875 840.402344 640.585938 835.441406 642.878906 Z M 835.441406 642.878906 " fill-opacity="1" fill-rule="evenodd"/><path fill="#66de69" d="M 1026.847656 507.773438 L 1061.175781 507.800781 L 1117.222656 543.640625 L 1171.992188 525.664062 L 1098.292969 746.628906 C 1069.894531 745.058594 1024.996094 765.445312 1019.070312 746.34375 C 1006.636719 706.074219 1019.332031 701.617188 1011.277344 689.597656 C 974.523438 634.917969 1010.460938 622.597656 1025.261719 576.863281 C 1035.507812 545.328125 1027.691406 531.511719 1026.847656 507.773438 Z M 1026.847656 507.773438 " fill-opacity="1" fill-rule="evenodd"/><path stroke-linecap="round" transform="matrix(-0.60605, -0.264346, 0.312819, -0.689368, 19624.483463, 20709.236276)" fill="none" stroke-linejoin="round" d="M 37966.498149 14147.49893 L 38034.099556 14113.39971 L 38111.000124 14126.998761 L 38207.898641 14072.400609 L 38370.496699 14072.998751 L 38464.302759 14620.60145 L 38298.196824 14618.401905 L 38195.701655 14657.699238 L 38096.101482 14643.902669 L 38031.897737 14694.599251 Z M 37966.498149 14147.49893 " stroke="#000000" stroke-width="16.67" stroke-opacity="1" stroke-miterlimit="1.5"/><path stroke-linecap="round" transform="matrix(-0.60605, -0.264346, 0.312819, -0.689368, 19624.483463, 20709.236276)" fill="none" stroke-linejoin="round" d="M 38122.895964 14120.300916 C 38120.898302 14123.798161 38118.697897 14127.701802 38116.300629 14131.998252 C 38079.101694 14198.201078 38066.397786 14270.202678 38120.00296 14256.401511 C 38187.697381 14238.903247 38153.896459 14323.901874 38223.398928 14328.200332 C 38254.396971 14330.202169 38293.500756 14295.199209 38337.397579 14299.201891 C 38371.604183 14302.200271 38381.80002 14314.598526 38410.303842 14305.000004 " stroke="#000000" stroke-width="16.67" stroke-opacity="1" stroke-miterlimit="1.5"/><path stroke-linecap="round" transform="matrix(-0.60605, -0.264346, 0.312819, -0.689368, 19624.483463, 20709.236276)" fill="none" stroke-linejoin="round" d="M 37995.300972 14388.100067 C 38035.398545 14375.002076 38084.499395 14326.600696 38104.600681 14346.601435 C 38146.896515 14388.797764 38132.195751 14400.900338 38150.802897 14411.200795 C 38235.604407 14458.001255 38193.804606 14491.901793 38202.003452 14555.100348 C 38207.600961 14598.698964 38227.003003 14611.301163 38243.002387 14639.600871 " stroke="#000000" stroke-width="16.67" stroke-opacity="1" stroke-miterlimit="1.5"/><path stroke-linecap="round" transform="matrix(-0.60605, -0.264346, 0.312819, -0.689368, 19624.483463, 20709.236276)" fill="none" stroke-linejoin="round" d="M 38316.99758 14618.700543 C 38295.395519 14586.701499 38284.900848 14549.598895 38314.602323 14525.800038 C 38389.298703 14466.099143 38356.000169 14427.598053 38400.301752 14393.599473 C 38409.799987 14386.302417 38416.800458 14380.297478 38422.200484 14374.900582 " stroke="#000000" stroke-width="16.67" stroke-opacity="1" stroke-miterlimit="1.5"/><path stroke-linecap="round" transform="matrix(-0.60605, -0.264346, 0.312819, -0.689368, 19624.483463, 20709.236276)" fill="none" stroke-linejoin="round" d="M 37966.498149 14147.49893 C 37958.501602 14091.198169 37939.800326 14024.297892 37947.899955 14017.100834 C 37950.102882 14015.100145 38017.698979 13994.30206 38017.698979 13994.30206 C 38017.698979 13994.30206 38089.395851 13992.200286 38086.400996 13995.20162 L 38186.501417 13953.400061 L 38337.100598 13931.700797 C 38337.100598 13931.700797 38364.101049 14043.600266 38370.496699 14072.998751 " stroke="#000000" stroke-width="16.67" stroke-opacity="1" stroke-miterlimit="1.5"/><path stroke-linecap="butt" transform="matrix(-84.225953, -16.679107, 15.840878, -59.69957, 964.302718, 945.362467)" fill-opacity="1" fill="#000000" fill-rule="nonzero" stroke-linejoin="round" d="M 0.570004 -0.652031 C 0.575023 -0.542984 0.580004 -0.444003 0.584022 -0.342987 C 0.588994 -0.21397 0.592009 -0.0840142 0.607 0.0450164 C 0.61202 0.0869952 0.622986 0.0940081 0.668018 0.0750145 C 0.647013 -0.193996 0.627988 -0.467027 0.617013 -0.733998 C 0.564997 -0.744984 0.543992 -0.723019 0.524977 -0.688001 C 0.482001 -0.607029 0.449021 -0.52198 0.411987 -0.438022 C 0.384012 -0.370009 0.357009 -0.302006 0.32701 -0.228978 C 0.257994 -0.356983 0.185981 -0.478982 0.124986 -0.606021 C 0.110998 -0.636007 0.0880246 -0.643984 0.0539831 -0.623022 C 0.0489838 -0.421012 0.0389785 -0.217014 0.0470147 -0.0139994 C 0.073005 -0.00699657 0.0739771 -0.00700643 0.0959806 -0.0179958 C 0.0929917 -0.187022 0.0889868 -0.356025 0.09602 -0.527001 C 0.100998 -0.520998 0.103007 -0.516979 0.107001 -0.511028 C 0.163981 -0.392027 0.226983 -0.276017 0.291002 -0.160029 C 0.302986 -0.138971 0.319008 -0.128006 0.347979 -0.134006 C 0.42101 -0.303987 0.493013 -0.474008 0.570004 -0.652031 Z M 0.570004 -0.652031 " stroke="#000000" stroke-width="0.06" stroke-opacity="1" stroke-miterlimit="2"/><path stroke-linecap="butt" transform="matrix(-84.225953, -16.679107, 15.840878, -59.69957, 897.101668, 932.054732)" fill-opacity="1" fill="#000000" fill-rule="nonzero" stroke-linejoin="round" d="M 0.367004 -0.0499927 C 0.316005 -0.222028 0.286991 -0.396019 0.246986 -0.570014 C 0.238022 -0.612004 0.231985 -0.652979 0.214027 -0.692978 C 0.210983 -0.701027 0.20299 -0.709001 0.197013 -0.707985 C 0.188019 -0.706978 0.180997 -0.696968 0.176991 -0.685968 C 0.169974 -0.669024 0.165014 -0.652982 0.158981 -0.635003 C 0.0940056 -0.418985 0.0569989 -0.198021 0.00199816 0.0199881 C -0.000983405 0.0339729 0.00301471 0.0359966 0.0160044 0.0389761 C 0.0439947 0.0460091 0.0580218 0.0350235 0.0649829 0.00101707 C 0.0739781 -0.0349971 0.0760149 -0.0729931 0.0879821 -0.108987 C 0.151019 -0.123981 0.211022 -0.144998 0.274996 -0.156983 L 0.316002 -0.00800033 C 0.327001 0.0309994 0.349974 0.038976 0.385004 0.00897067 C 0.381009 -0.0120289 0.374006 -0.0300291 0.367004 -0.0499927 Z M 0.264986 -0.205027 C 0.208998 -0.19102 0.153983 -0.177024 0.0960065 -0.162986 C 0.120988 -0.295987 0.153016 -0.42703 0.194015 -0.556982 C 0.216991 -0.439997 0.240995 -0.322971 0.264986 -0.205027 Z M 0.264986 -0.205027 " stroke="#000000" stroke-width="0.06" stroke-opacity="1" stroke-miterlimit="2"/><path stroke-linecap="butt" transform="matrix(-84.225953, -16.679107, 15.840878, -59.69957, 855.73772, 923.863484)" fill-opacity="1" fill="#000000" fill-rule="nonzero" stroke-linejoin="round" d="M 0.125008 -0.241032 C 0.179998 -0.249002 0.23 -0.265981 0.276013 -0.298008 C 0.341979 -0.346995 0.371991 -0.453004 0.334006 -0.527976 C 0.294993 -0.60397 0.22698 -0.629985 0.147 -0.638 C 0.114014 -0.64102 0.0800222 -0.642974 0.0449823 -0.632007 C 0.0450064 -0.424987 0.0409874 -0.218997 0.0489878 -0.0119818 C 0.0710158 -0.011004 0.0930097 -0.00798829 0.113996 -0.0179738 C 0.118996 -0.0919999 0.108009 -0.163981 0.109021 -0.238005 C 0.116026 -0.23898 0.120987 -0.239974 0.125008 -0.241032 Z M 0.110004 -0.287026 L 0.0929816 -0.596016 C 0.16901 -0.592982 0.23398 -0.575997 0.283014 -0.517983 C 0.309011 -0.488997 0.30702 -0.452976 0.296998 -0.417984 C 0.280014 -0.365016 0.243002 -0.329026 0.191993 -0.309017 C 0.166974 -0.299017 0.140983 -0.289007 0.110004 -0.287026 Z M 0.110004 -0.287026 " stroke="#000000" stroke-width="0.06" stroke-opacity="1" stroke-miterlimit="2"/><path stroke-linecap="round" transform="matrix(-0.60605, -0.264346, 0.312819, -0.689368, 19624.483463, 20709.236276)" fill="none" stroke-linejoin="round" d="M 38120.600849 14538.598188 C 38118.398661 14528.200457 38097.603776 14428.098784 38129.105257 14406.301246 C 38159.503466 14385.300754 38233.397364 14450.903244 38263.895431 14415.698399 C 38297.198908 14377.100218 38262.197755 14309.701613 38270.200521 14268.401488 " stroke="#e50000" stroke-width="16.67" stroke-opacity="1" stroke-miterlimit="1.5"/><path stroke-linecap="round" transform="matrix(-0.60605, -0.264346, 0.312819, -0.689368, 19624.483463, 20709.236276)" fill="none" stroke-linejoin="round" d="M 38240.602962 14279.802024 C 38254.997235 14199.89921 38276.102432 14177.702438 38318.300571 14143.39983 " stroke="#e50000" stroke-width="16.67" stroke-opacity="1" stroke-miterlimit="1.5"/><path stroke-linecap="round" transform="matrix(-0.60605, -0.264346, 0.312819, -0.689368, 19624.483463, 20709.236276)" fill="none" stroke-linejoin="round" d="M 38210.497826 14162.599361 C 38280.897796 14194.098153 38296.898334 14245.601429 38310.299406 14273.599879 " stroke="#e50000" stroke-width="16.67" stroke-opacity="1" stroke-miterlimit="1.5"/><path stroke-linecap="round" transform="matrix(0.774112, 0, 0, 0.774112, -2896.507229, -9467.211765)" fill-opacity="1" fill="#ffffff" fill-rule="evenodd" stroke-linejoin="round" d="M 5204.422058 13050.500948 C 5146.719888 13033.500632 5132.47979 13158.800376 5166.798326 13171.900055 C 5223.688073 13193.502415 5263.900455 13067.899905 5204.422058 13050.500948 Z M 5204.422058 13050.500948 " stroke="#000000" stroke-width="17.360001" stroke-opacity="1" stroke-miterlimit="1.5"/><path stroke-linecap="round" transform="matrix(0.774112, 0, 0, 0.774112, -2896.507229, -9467.211765)" fill-opacity="1" fill="#0057b7" fill-rule="evenodd" stroke-linejoin="round" d="M 4255.800413 12561.200681 C 4211.081863 12526.801408 4222.622296 12511.597505 4237.331682 12510.901143 C 4291.900222 12508.201478 4245.688026 12464.098552 4275.338918 12442.798959 C 4293.651219 12429.699279 4320.859798 12447.501925 4332.612168 12403.499921 C 4341.750658 12369.297446 4340.822175 12347.498288 4370.589127 12366.698704 C 4373.389713 12368.500162 4410.771233 12406.199585 4426.131565 12355.900047 C 4432.151564 12336.200067 4434.568647 12293.499957 4470.809747 12314.098143 C 4508.070159 12335.402783 4507.520134 12260.599376 4538.649534 12290.199807 C 4544.639256 12295.901901 4560.519337 12326.198694 4576.909074 12305.898228 C 4581.228537 12300.599822 4589.998661 12276.398719 4612.887777 12301.402152 C 4684.608016 12379.798383 4681.050515 12239.501626 4733.640983 12257.198304 C 4760.970668 12266.301471 4752.18036 12358.998353 4804.669906 12337.002397 C 4809.458656 12334.999095 4839.952247 12315.697757 4855.191473 12325.69913 C 4862.942285 12330.699816 4855.549746 12374.399054 4880.411888 12358.402913 C 4884.398308 12355.799125 4923.182643 12326.001896 4923.702392 12347.700132 C 4923.722576 12348.40154 4908.220953 12398.201515 4936.030017 12391.298448 C 4937.392465 12391.000728 4978.361762 12369.100648 4980.269188 12387.998298 C 4982.459196 12409.600658 4936.499305 12453.198973 5007.578689 12443.798087 C 5068.172274 12435.900938 5055.92034 12541.798421 4974.042299 12512.298913 C 4929.152181 12496.100927 4940.379757 12537.902831 4916.521789 12538.997835 C 4872.010129 12541.102059 4892.300503 12453.900382 4884.080404 12443.298523 C 4862.901916 12416.100036 4830.652282 12477.798718 4808.621004 12435.401374 C 4806.799361 12431.89938 4802.661558 12358.700633 4764.699737 12422.700337 C 4756.797542 12436.00186 4732.768008 12425.001359 4725.582359 12409.101093 C 4699.181157 12350.89936 4688.039365 12419.299264 4675.797523 12422.099851 C 4637.638904 12430.597485 4616.238389 12329.998408 4586.390699 12408.001043 C 4565.530116 12462.498938 4524.631464 12408.101965 4518.031163 12430.900251 C 4513.338289 12447.199159 4512.778172 12458.502426 4492.38183 12446.497751 C 4487.371051 12443.601289 4441.421252 12398.398312 4421.38823 12452.901253 C 4414.44984 12471.697981 4415.812288 12498.598748 4379.510634 12490.898397 C 4340.317565 12482.698482 4377.507332 12550.301102 4327.369269 12547.101874 C 4306.079767 12545.79998 4316.868332 12585.598581 4317.771584 12588.898732 C 4321.520837 12602.800741 4312.039213 12612.998912 4293.242485 12598.097775 C 4277.54911 12585.699503 4278.659252 12584.902219 4255.800413 12561.200681 Z M 4255.800413 12561.200681 " stroke="#000000" stroke-width="17.360001" stroke-opacity="1" stroke-miterlimit="1.5"/><path fill="#ffffff" d="M 337.804688 326.628906 C 346.21875 294.734375 360.554688 271.277344 381.558594 261.757812 C 432.757812 238.6875 446.351562 360.996094 401.992188 372.6875 C 358.316406 384.144531 343.074219 353.023438 337.804688 326.628906 Z M 337.804688 326.628906 " fill-opacity="1" fill-rule="evenodd"/><path stroke-linecap="round" transform="matrix(0.774112, 0, 0, 0.774112, -2896.507229, -9467.211765)" fill="none" stroke-linejoin="round" d="M 4407.501359 13238.498501 C 4228.980384 13256.80071 4128.608382 12839.700063 4178.090452 12651.70251 C 4184.897643 12685.799017 4204.58753 12726.001306 4261.00799 12711.201091 C 4318.311517 12696.098109 4300.751084 12538.099629 4234.611833 12567.901904 C 4207.478946 12580.199253 4188.959754 12610.501092 4178.090452 12651.70251 " stroke="#000000" stroke-width="17.360001" stroke-opacity="1" stroke-miterlimit="1.5"/></svg>