<svg xmlns="http://www.w3.org/2000/svg" xmlns:xlink="http://www.w3.org/1999/xlink" width="2000" zoomAndPan="magnify" viewBox="0 0 1500 1499.999933" height="2000" preserveAspectRatio="xMidYMid meet" version="1.0"><path stroke-linecap="butt" transform="matrix(1.029315, 0.088227, -0.088227, 1.029315, -155.424709, -443.392494)" fill-opacity="1" fill="#fdf6ed" fill-rule="evenodd" stroke-linejoin="round" d="M 817.374533 1444.438286 L 835.597283 1374.96102 L 799.365552 1378.138701 C 797.105805 1378.339984 794.903214 1377.348533 793.55871 1375.520736 C 792.210117 1373.689495 791.917127 1371.289603 792.784472 1369.18873 L 874.936731 1169.619176 L 846.615622 1174.190875 C 844.755211 1174.490753 842.853897 1173.959238 841.406923 1172.75122 C 839.959626 1171.539434 839.108857 1169.760397 839.079579 1167.869201 L 838.458617 1130.739019 C 796.556422 1117.659201 757.725024 1097.989908 723.019705 1076.47172 C 664.210416 1040.010399 617.3543 998.312069 587.658442 975.244975 C 587.117455 998.907629 580.67512 1013.448198 571.985631 1021.828551 C 559.26091 1034.091721 541.084983 1034.249303 525.055784 1028.769465 C 509.3594 1023.409104 496.166993 1012.638762 492.438421 1004.78013 C 486.496709 992.26498 482.756835 976.570641 484.565257 963.577149 C 485.938608 953.698694 490.390505 945.290678 498.759987 940.083809 C 510.919932 932.521718 533.183511 931.793657 570.215528 948.224453 C 574.669363 950.19939 579.48174 953.080961 584.637911 956.741398 C 612.953315 976.852867 663.82701 1024.468583 729.871278 1065.421628 C 762.543859 1085.67195 798.968153 1104.310397 838.230317 1117.051048 L 838.011382 1103.870804 C 837.960685 1100.888485 839.950907 1098.251144 842.837321 1097.480028 L 916.23637 1077.909976 C 919.561192 1077.029176 922.998604 1078.878716 924.083378 1082.148105 C 924.083378 1082.148105 926.950094 1090.710581 933.209983 1098.879749 C 941.448254 1109.630716 954.629036 1112.561584 954.629036 1112.561584 C 954.629036 1112.561584 950.083816 1066.750847 950.623727 1058.439059 C 865.426612 1060.128864 773.751425 1028.169599 721.416978 928.357429 C 721.34034 928.215993 721.270591 928.066376 721.204609 927.916437 C 692.969933 862.5237 680.81946 805.554802 680.614087 756.138738 L 680.145217 756.247236 L 677.931647 756.190296 L 675.465343 755.354274 L 672.90604 753.300438 C 671.887141 752.127832 670.879005 750.328128 670.153204 747.881845 C 666.85626 736.779441 668.35716 705.144704 673.465541 683.143654 C 675.872429 672.793314 679.273351 664.520922 682.873404 660.652636 L 683.551199 659.92662 C 685.04435 654.235165 686.721669 648.611415 688.575299 643.052248 C 689.888587 639.114321 691.288631 635.214497 692.771341 631.349333 C 731.186181 531.397987 827.004452 456.066625 944.665439 445.981398 C 961.124867 444.57059 977.383658 444.493844 993.323195 445.651273 C 992.608696 441.344471 992.145853 436.697318 992.131215 431.833383 C 990.436028 416.218051 975.234132 402.724366 964.012357 396.039308 C 961.532599 394.559288 960.714552 391.346732 962.194248 388.863206 C 963.6705 386.38377 966.887147 385.569168 969.366905 387.049187 C 977.91302 392.138192 988.087049 400.723272 994.934963 411.103858 C 1000.211689 392.837838 1013.929906 373.924161 1044.371371 359.732554 C 1045.95849 358.989315 1050.961277 356.875524 1058.319072 354.609211 C 1076.52137 349.003545 1109.261655 342.5047 1140.389849 353.282253 C 1152.33032 357.416189 1164.030545 364.060237 1174.620593 374.222533 C 1184.160097 383.374326 1192.810836 395.395418 1199.870043 411.074688 C 1209.200515 398.749519 1204.530866 402.713279 1228.531718 381.476134 C 1230.690393 379.56438 1234.001761 379.766308 1235.921373 381.928105 C 1237.830006 384.094638 1237.631522 387.401916 1235.461545 389.314639 C 1209.831272 411.996928 1218.131543 404.875722 1204.411065 422.301952 C 1206.319805 427.56899 1208.069242 433.191233 1209.630851 439.190101 C 1210.088742 440.945888 1210.500025 443.574725 1210.731447 446.894489 C 1237.979084 434.536382 1265.318752 442.511587 1270.27913 443.976321 C 1273.051556 444.79749 1274.629418 447.709629 1273.811694 450.477965 C 1273.001504 453.245655 1270.078709 454.83202 1267.310373 454.014296 C 1262.700356 452.652355 1235.918897 444.636894 1210.670631 458.626251 C 1209.470686 468.933858 1203.700118 481.925412 1194.290748 493.020174 C 1186.328998 502.40834 1175.831518 510.416158 1163.589661 514.41038 C 1181.201566 529.234468 1196.961241 546.092048 1210.471286 564.641478 C 1218.580607 569.327703 1226.731046 574.272259 1234.929491 579.466964 C 1238.461409 581.710673 1243.60122 589.076433 1248.491203 599.283291 C 1258.57191 620.327764 1269.449136 653.675664 1270.451458 667.096155 C 1270.631859 669.555032 1270.498711 671.54364 1270.180534 672.967472 L 1269.149795 675.685756 L 1267.539642 677.709884 L 1265.358686 679.096043 L 1262.819403 679.666631 L 1260.18949 679.356957 L 1257.431057 678.079189 L 1256.129394 677.238215 C 1278.569175 772.030376 1258.650593 884.062123 1160.799259 980.170801 C 1131.179286 1009.259475 1072.28012 1039.711704 1005.318563 1052.52135 C 1002.54054 1053.051682 999.755843 1053.54843 996.953817 1054.020099 C 981.894972 1056.540437 959.967869 1054.951273 961.815363 1058.219801 C 962.919942 1060.170628 967.735117 1110.990396 967.735117 1110.990396 C 973.368554 1115.968535 1008.071291 1078.349461 1004.280289 1076.359454 L 1070.511201 1086.150938 C 1073.558426 1086.591822 1075.881464 1089.12131 1076.068646 1092.1906 L 1077.680306 1118.829977 C 1230.589214 1079.389995 1322.081201 969.30294 1359.240338 914.384433 C 1374.708315 888.611218 1409.829224 880.974749 1437.109368 881.304336 C 1457.919837 881.554701 1479.231037 889.462202 1490.608778 896.904276 C 1497.258424 901.252626 1500.701756 906.137658 1501.251785 909.411138 C 1501.968544 913.744311 1501.12122 918.735259 1498.600989 923.911343 C 1495.487998 930.318481 1489.718399 937.211388 1481.980105 943.36224 C 1464.601666 957.1628 1437.25963 967.312717 1410.160963 960.732391 C 1394.301724 956.881219 1378.43129 947.365073 1364.739013 929.301842 C 1323.391798 988.002417 1230.101184 1093.841441 1078.48027 1132.059088 L 1079.848131 1154.658712 C 1080.029715 1157.618427 1078.190079 1160.330145 1075.368678 1161.2399 L 1057.938357 1166.908427 C 1072.371074 1194.5399 1087.359739 1223.698646 1102.070699 1252.539645 L 1154.439698 1337.480045 C 1155.628987 1339.400841 1155.72823 1341.798364 1154.72031 1343.808822 C 1153.780201 1345.680643 1152.011498 1347.050441 1149.950342 1347.310602 C 1129.938976 1349.830401 1115.419073 1351.2002 1115.419073 1351.2002 L 1156.108837 1466.7996 L 1194.749716 1576.028245 C 1195.439781 1577.969061 1195.158201 1580.129781 1193.999157 1581.838208 C 1192.840437 1583.550402 1190.938801 1584.609019 1188.870003 1584.69147 L 1080.588786 1588.959522 C 1094.35953 1638.089485 1106.330033 1683.74953 1114.279405 1714.418649 C 1137.318083 1705.908915 1165.721319 1697.690772 1192.030248 1695.101761 C 1212.201456 1693.118536 1231.188649 1694.500497 1245.969251 1701.130983 C 1256.759613 1705.970699 1261.608048 1712.549304 1262.770644 1719.250292 C 1263.921184 1725.899184 1261.381794 1733.331141 1255.388738 1740.539211 C 1241.910338 1756.760652 1209.881216 1772.92892 1180.440783 1777.14875 C 1159.630421 1780.131716 1140.239264 1776.958985 1128.718149 1765.320545 C 1120.371379 1756.890033 1108.489247 1743.961877 1103.510032 1724.700207 C 1095.510716 1693.758334 1082.448336 1643.550594 1067.290895 1589.488346 L 999.520978 1592.158731 C 996.748875 1592.271105 994.211853 1590.610039 993.205009 1588.028455 L 966.417631 1519.331455 L 950.861822 1589.240457 C 950.148399 1592.428687 947.170493 1594.611796 943.91036 1594.299216 L 921.722128 1592.231495 C 911.956154 1650.259225 904.070182 1701.131629 900.347637 1719.598393 L 900.344839 1719.610018 C 893.767203 1752.230179 883.399319 1772.021749 867.427598 1784.479743 C 851.611951 1796.810509 829.982897 1802.019208 799.839804 1804.549772 C 779.301551 1806.279833 759.74926 1793.78901 752.057896 1777.951405 C 746.532097 1766.569466 746.767285 1753.551432 756.12542 1742.301672 C 767.492182 1728.629309 785.34638 1720.290719 805.724253 1715.671229 C 832.539294 1709.600567 863.74757 1709.889467 888.669264 1711.438267 C 892.693516 1689.761637 899.979839 1643.449092 908.833691 1591.028858 L 789.667175 1579.919027 C 787.765754 1579.740456 786.036661 1578.738779 784.942093 1577.170389 C 783.84817 1575.609534 783.493396 1573.639978 783.980134 1571.791838 L 812.58799 1462.711626 L 811.322493 1462.691067 C 811.322493 1462.691067 813.514643 1456.078234 817.374533 1444.438286 Z M 989.936158 1041.969083 C 994.281064 1041.300652 998.59314 1040.559136 1002.868297 1039.741089 C 1066.899631 1027.501384 1123.37135 998.703117 1151.68148 970.891781 C 1250.121162 874.208963 1266.539256 760.742942 1240.021511 667.165582 C 1144.960578 609.51975 1052.549903 585.627181 962.793252 596.948628 C 870.183124 608.628509 780.540031 657.757396 693.776678 745.264956 C 692.092147 795.522317 703.596148 854.246787 733.050682 922.536809 L 733.054773 922.540254 C 783.631172 1018.799194 869.386605 1048.461362 951.591606 1045.601104 C 953.575908 1039.928271 955.393479 1034.789644 957.0215 1030.228925 C 965.36052 1030.068222 973.675214 1029.579439 981.921666 1028.78152 C 984.37796 1032.688555 987.059647 1037.099981 989.936158 1041.969083 Z M 1448.308431 895.251176 C 1444.560054 894.68823 1440.740312 894.355307 1436.94888 894.308376 C 1429.681609 894.22162 1421.701561 894.67413 1413.759724 896.015188 C 1425.040054 895.059688 1435.08115 896.161038 1444.088815 895.521777 C 1445.52987 895.421028 1446.929806 895.327598 1448.308431 895.251176 Z M 879.2318 656.550346 C 885.877247 650.090896 892.609774 648.455018 898.735654 649.482097 C 906.629161 650.809271 914.382309 657.582915 919.826412 668.011722 C 926.518359 680.823091 930.133588 699.047993 928.331732 713.756262 C 926.904563 725.441956 921.968188 734.927533 913.936258 739.733559 C 904.370383 745.460426 893.039787 743.482905 883.308795 735.417716 C 864.868402 720.137136 853.048485 681.989669 879.2318 656.550346 Z M 835.240894 857.213176 C 834.224471 853.767153 836.195103 850.148587 839.637358 849.132487 C 843.079614 848.116386 846.69818 850.087018 847.71428 853.529274 C 860.401328 896.52453 886.037197 922.698589 915.926265 934.515923 C 985.619669 962.078616 1077.438875 912.171186 1076.96839 820.080302 C 1076.94923 816.491874 1079.851575 813.560037 1083.440325 813.544645 C 1087.028753 813.525485 1089.948965 816.425031 1089.968125 820.013459 C 1090.498779 922.148345 988.439347 977.176319 911.145534 946.6143 C 878.038958 933.520597 849.291927 904.831474 835.240894 857.213176 Z M 986.336859 644.493302 C 994.191724 639.569628 1001.120475 639.381801 1006.891688 641.672655 C 1014.328381 644.621499 1020.48892 652.871287 1023.631297 664.20705 C 1027.489142 678.134192 1027.199597 696.716559 1022.35805 710.717649 C 1018.511077 721.844164 1011.699652 730.08631 1002.838911 733.103827 C 992.28546 736.695268 981.620388 732.387497 973.794477 722.46265 C 958.964685 703.658226 955.403059 663.876925 986.336859 644.493302 Z M 986.336859 644.493302 " stroke="#fdf6ed" stroke-width="21.17" stroke-opacity="1" stroke-miterlimit="2"/><path stroke-linecap="round" transform="matrix(2.249124, 0, 0, 2.45164, -1464.408825, -2016.825542)" fill-opacity="1" fill="#ffffff" fill-rule="evenodd" stroke-linejoin="round" d="M 878.490703 1056.459981 C 817.366213 888.425164 1003.869373 866.472388 1053.300074 880.332687 C 1120.930568 899.296393 1173.270388 1016.819749 1072.880613 1092.969338 C 1036.949959 1120.229467 918.594856 1144.110162 878.490703 1056.459981 Z M 878.490703 1056.459981 " stroke="#000000" stroke-width="5.71" stroke-opacity="1" stroke-miterlimit="1.5"/><path stroke-linecap="round" transform="matrix(1.029313, 0.0882272, -0.0882272, 1.029313, -155.424973, -443.39295)" fill="none" stroke-linejoin="round" d="M 841.47543 855.371011 C 886.044465 1006.398395 1084.179902 958.782007 1083.468154 820.04449 " stroke="#000000" stroke-width="13.01" stroke-opacity="1" stroke-miterlimit="1.5"/><path fill="#ffffff" d="M 1168.320312 621.804688 C 1172 618.839844 1175.5 616.398438 1178.828125 614.570312 C 1210.089844 597.359375 1232.929688 605.511719 1251.980469 605.789062 C 1284.160156 606.253906 1301.703125 610.757812 1302.890625 625.65625 C 1305.101562 653.269531 1211.96875 705.234375 1168.320312 621.804688 Z M 1168.320312 621.804688 " fill-opacity="1" fill-rule="evenodd"/><path fill="#ffffff" d="M 357.597656 598.105469 C 355.269531 698.425781 276.960938 652.992188 269.09375 631.9375 C 256.410156 597.992188 260.554688 542.566406 344.609375 588.816406 C 348.675781 591.058594 352.996094 594.210938 357.597656 598.105469 Z M 357.597656 598.105469 " fill-opacity="1" fill-rule="evenodd"/><path stroke-linecap="round" transform="matrix(1.033087, 0, 0, 1.033087, -229.092062, -378.900719)" fill-opacity="1" fill="#000000" fill-rule="evenodd" stroke-linejoin="round" d="M 1002.919797 671.57461 C 964.019409 691.54282 981.257635 751.398297 1005.819933 745.318221 C 1034.099094 738.315546 1035.240999 654.979178 1002.919797 671.57461 Z M 1002.919797 671.57461 " stroke="#000000" stroke-width="17.15" stroke-opacity="1" stroke-miterlimit="1.5"/><path stroke-linecap="round" transform="matrix(1.01014, -0.216529, 0.216529, 1.01014, -461.242679, -144.390915)" fill-opacity="1" fill="#000000" fill-rule="evenodd" stroke-linejoin="round" d="M 1002.919156 671.573873 C 964.021052 691.542567 981.256905 751.398132 1005.820525 745.317589 C 1034.100433 738.316686 1035.239433 654.978712 1002.919156 671.573873 Z M 1002.919156 671.573873 " stroke="#000000" stroke-width="17.15" stroke-opacity="1" stroke-miterlimit="1.5"/><path stroke-linecap="round" transform="matrix(1.033087, 0, 0, 1.033087, -251.316245, -374.154715)" fill="none" stroke-linejoin="round" d="M 955.142766 1150.868467 C 776.366594 1148.679186 642.521731 986.124113 589.411812 941.11718 C 584.957626 937.343601 580.775683 934.299781 576.839515 932.133187 C 495.476902 887.364467 491.465111 941.011308 503.742479 973.869432 C 511.357699 994.249787 587.158251 1038.228249 589.411812 941.11718 " stroke="#000000" stroke-width="13.01" stroke-opacity="1" stroke-miterlimit="1.5"/><path stroke-linecap="round" transform="matrix(-1.033087, 0, 0, 1.033087, 1774.754184, -348.407071)" fill="none" stroke-linejoin="round" d="M 1006.029799 1125.949241 C 780.851453 1144.529772 638.835543 1003.239842 587.007431 939.13058 C 544.756951 1019.88821 454.606965 969.602803 456.74331 942.870129 C 457.344511 935.315408 484.731322 918.050714 512.397938 915.343416 C 537.538751 912.885674 570.763645 916.500446 587.007431 939.13058 " stroke="#000000" stroke-width="13.01" stroke-opacity="1" stroke-miterlimit="1.5"/><path stroke-linecap="round" transform="matrix(0.949273, 0, 0, 0.949273, -145.984831, -546.075141)" fill="none" stroke-linejoin="round" d="M 928.515293 1338.381239 C 926.305543 1609.110616 923.828318 1650.219376 907.755163 1680.999509 C 874.160376 1745.34151 813.933367 2005.779294 799.699613 2054.451408 C 780.630744 2119.669901 752.015096 2132.249429 689.631832 2132.138324 C 657.271542 2132.080714 630.54879 2095.391454 653.041331 2072.619094 C 684.508668 2040.769063 754.455286 2047.278979 799.699613 2054.451408 " stroke="#000000" stroke-width="14.16" stroke-opacity="1" stroke-miterlimit="1.5"/><path stroke-linecap="round" transform="matrix(0.949273, 0, 0, 0.949273, -145.984831, -546.075141)" fill="none" stroke-linejoin="round" d="M 920.75442 1650.001282 C 957.176206 1635.158509 1014.518606 1968.781409 1033.291195 2079.668073 C 1036.649028 2099.51056 1047.631939 2113.50153 1055.310513 2122.71088 C 1091.608849 2166.2516 1236.069725 2106.139811 1179.542093 2074.721854 C 1143.391896 2054.628353 1077.37921 2066.738771 1033.291195 2079.668073 " stroke="#000000" stroke-width="14.16" stroke-opacity="1" stroke-miterlimit="1.5"/><path fill="#000000" d="M 834.886719 1428.097656 C 876.742188 1415.824219 939.398438 1404.335938 973.71875 1423.40625 C 1027.378906 1453.230469 890.253906 1510.289062 855.789062 1468.957031 C 848.5 1460.214844 841.453125 1446.042969 834.886719 1428.097656 Z M 834.886719 1428.097656 " fill-opacity="1" fill-rule="evenodd"/><path fill="#000000" d="M 613.148438 1404.160156 C 595.042969 1466.074219 567.886719 1478.015625 508.660156 1477.902344 C 477.945312 1477.851562 452.578125 1443.023438 473.929688 1421.414062 C 503.800781 1391.175781 570.199219 1397.351562 613.148438 1404.160156 Z M 613.148438 1404.160156 " fill-opacity="1" fill-rule="evenodd"/><path stroke-linecap="round" transform="matrix(1.033086, 0, 0, 1.033086, -181.706757, -512.915016)" fill-opacity="1" fill="#6a3fa0" fill-rule="evenodd" stroke-linejoin="round" d="M 758.985333 1476.228271 L 1009.191307 1488.460277 L 1074.930306 1741.229868 L 885.634808 1732.510546 L 858.77733 1641.260157 L 830.898943 1729.98096 L 678.45071 1702.480687 Z M 758.985333 1476.228271 " stroke="#000000" stroke-width="13.01" stroke-opacity="1" stroke-miterlimit="1.5"/><path stroke-linecap="round" transform="matrix(1.033086, 0, 0, 1.033086, -270.637297, -337.122589)" fill-opacity="1" fill="#e4189a" fill-rule="evenodd" stroke-linejoin="round" d="M 976.557064 1093.660034 C 943.494726 1097.528146 933.489814 1055.76161 933.489814 1055.76161 L 858.687408 1068.991839 L 854.286155 1132.851609 L 894.479734 1129.860723 L 790.260014 1332.008335 L 1141.72129 1331.248325 L 1049.011378 1147.401458 L 1082.319491 1139.638766 L 1083.881104 1077.068366 L 1020.24064 1062.12906 C 1020.24064 1062.12906 1009.789553 1089.780578 976.557064 1093.660034 Z M 976.557064 1093.660034 " stroke="#000000" stroke-width="13.01" stroke-opacity="1" stroke-miterlimit="1.5"/><path stroke-linecap="round" transform="matrix(0.75, 0, 0, 0.75, -8529.749232, -6607.222011)" fill-opacity="1" fill="#ffffff" fill-rule="evenodd" stroke-linejoin="round" d="M 12209.401069 10138.802096 L 12266.000032 9983.999999 L 12438.401089 9981.999999 L 12467.00005 10143.302097 Z M 12209.401069 10138.802096 " stroke="#000000" stroke-width="16.67" stroke-opacity="1" stroke-miterlimit="1.5"/><path stroke-linecap="butt" transform="matrix(1.036725, 0, 0, 1.036725, -12052.348929, -9491.324322)" fill-opacity="1" fill="#000000" fill-rule="nonzero" stroke-linejoin="round" d="M 12290.301498 10030.901537 C 12290.599161 10046.101146 12290.599161 10061.300755 12290.599161 10076.500363 C 12290.599161 10083.700773 12290.998555 10091.198844 12292.00081 10098.500987 C 12292.098775 10099.299776 12292.200508 10100.000601 12293.398692 10100.599693 C 12295.301469 10099.499474 12298.798057 10099.299776 12298.198965 10096.10085 C 12297.098745 10089.299835 12297.098745 10082.400856 12296.699351 10075.799538 C 12295.798828 10062.201277 12296.299956 10048.501283 12295.501166 10034.899253 L 12294.902074 10022.600908 C 12292.7996 10022.800606 12290.399463 10022.201514 12289.201279 10023.799093 C 12285.59919 10028.900796 12282.200567 10033.900766 12279.401035 10039.499829 C 12278.500513 10041.398838 12278.700211 10042.698755 12281.401777 10043.301615 C 12284.800401 10039.499829 12286.899107 10034.801288 12290.301498 10030.901537 Z M 12290.301498 10030.901537 " stroke="#000000" stroke-width="3.01" stroke-opacity="1" stroke-miterlimit="2"/><path stroke-linecap="butt" transform="matrix(1.036725, 0, 0, 1.036725, -12052.348929, -9491.324322)" fill-opacity="1" fill="#000000" fill-rule="nonzero" stroke-linejoin="round" d="M 12315.097885 10088.599011 L 12315.501048 10085.599782 C 12316.89893 10074.499622 12320.301321 10063.798856 12323.198817 10053.000126 C 12325.097826 10046.199111 12327.2003 10039.300131 12327.098568 10032.001757 C 12327.000603 10025.799834 12323.598212 10023.098268 12319.201101 10025.901567 C 12313.198876 10029.801318 12309.69852 10036.101205 12307.599814 10043.70101 C 12308.89973 10044.801229 12310.199647 10044.597764 12311.499564 10044.899194 C 12314.69849 10040.200654 12317.298324 10035.000986 12321.40154 10031.101235 C 12321.800935 10032.499117 12321.40154 10033.301674 12321.201843 10034.198428 C 12318.598241 10044.300102 12316.10014 10054.100345 12313.797968 10064.100286 C 12311.898959 10072.49888 12309.201161 10080.901242 12308.500336 10089.499533 C 12307.999208 10094.299806 12310.599042 10097.001372 12314.400828 10095.200328 C 12321.40154 10092.099367 12328.198787 10088.700743 12334.999802 10085.400085 C 12335.097767 10083.399343 12334.800105 10081.899728 12333.801618 10080.400114 C 12327.50173 10082.400856 12321.601238 10085.799479 12315.097885 10088.599011 Z M 12315.097885 10088.599011 " stroke="#000000" stroke-width="3.01" stroke-opacity="1" stroke-miterlimit="2"/><path stroke-linecap="butt" transform="matrix(1.036725, 0, 0, 1.036725, -12052.348929, -9491.324322)" fill-opacity="1" fill="#000000" fill-rule="nonzero" stroke-linejoin="round" d="M 12359.498527 10048.900677 C 12362.998883 10043.599277 12365.900147 10038.199912 12368.597945 10032.600849 C 12371.099814 10027.800576 12371.00185 10027.299449 12365.301055 10023.000303 C 12357.39982 10025.70187 12349.600319 10028.799063 12342.501642 10032.902279 C 12343.598093 10035.498345 12344.999743 10036.19917 12347.701309 10034.899253 C 12350.500841 10033.501371 12353.300372 10032.401152 12356.499298 10031.1992 C 12358.699737 10030.298677 12361.099874 10029.198458 12364.200835 10027.898541 C 12358.300342 10038.301644 12352.70128 10047.90219 12346.699055 10057.201306 C 12348.500099 10059.601443 12350.700538 10059.100316 12352.799245 10058.700921 C 12355.798473 10058.199793 12358.699737 10057.099574 12361.698966 10056.500482 C 12367.599458 10055.400262 12369.999595 10057.201306 12370.598687 10062.299242 C 12371.898604 10072.80031 12370.70042 10082.099426 12362.501523 10090.298322 C 12359.901689 10092.901924 12355.700508 10094.898898 12351.60106 10094.401538 C 12347.701309 10093.798678 12346.699055 10091.300577 12345.798532 10088.301348 C 12344.600348 10088.900441 12342.000514 10088.399313 12340.998259 10089.401568 C 12341.499387 10094.100108 12345.50087 10098.798649 12350.301143 10099.601206 C 12356.698995 10100.799391 12363.50001 10097.299034 12367.900888 10092.901924 C 12378.300224 10082.400856 12380.300966 10070.400173 12376.600912 10057.401004 C 12375.70039 10053.798915 12370.500722 10051.398779 12366.099844 10051.199081 C 12363.300313 10051.101116 12360.598746 10051.798173 12357.39982 10052.001639 C 12358.19861 10050.599989 12358.80147 10049.699467 12359.498527 10048.900677 Z M 12359.498527 10048.900677 " stroke="#000000" stroke-width="3.01" stroke-opacity="1" stroke-miterlimit="2"/><path stroke-linecap="round" transform="matrix(0.67667, 0, 0, 0.619378, -25887.627737, -6895.258466)" fill-opacity="1" fill="#e4189a" fill-rule="evenodd" stroke-linejoin="round" d="M 39006.399267 11568.403548 C 39076.601697 11410.596647 39229.400657 11301.099269 39406.497127 11301.099269 C 39434.997201 11301.099269 39462.798772 11303.899455 39489.803704 11309.298013 C 39506.498501 11312.697338 39522.898888 11316.998525 39538.895182 11322.302482 C 39551.000642 11326.300946 39562.800146 11330.797642 39574.299467 11335.798876 C 39443.102144 11352.902717 39202.395725 11433.698185 39006.399267 11568.403548 Z M 39006.399267 11568.403548 " stroke="#000000" stroke-width="16.67" stroke-opacity="1" stroke-miterlimit="1.5"/><path stroke-linecap="round" transform="matrix(0.67667, 0, 0, 0.619378, -25887.627737, -6895.258466)" fill-opacity="1" fill="#e4189a" fill-rule="evenodd" stroke-linejoin="round" d="M 38998.600279 11586.901176 C 39001.099881 11580.600757 39003.697619 11574.502153 39006.399267 11568.403548 C 39172.302372 11379.100857 39410.999873 11311.700875 39574.299467 11335.798876 C 39585.400468 11340.497387 39596.201286 11345.801343 39606.800058 11351.401716 C 39611.198895 11353.697364 39615.499594 11356.201135 39619.800294 11358.597691 C 39426.60362 11443.297022 39294.199792 11582.599989 38998.600279 11586.901176 Z M 38998.600279 11586.901176 " stroke="#000000" stroke-width="16.67" stroke-opacity="1" stroke-miterlimit="1.5"/><path stroke-linecap="round" transform="matrix(0.67667, 0, 0, 0.619378, -25887.627737, -6895.258466)" fill-opacity="1" fill="#e4189a" fill-rule="evenodd" stroke-linejoin="round" d="M 38987.100958 11619.601551 C 38990.501109 11608.501713 38994.397716 11597.597384 38998.600279 11586.901176 C 39006.601313 11586.800269 39014.4003 11586.497546 39022.101151 11586.20113 C 39251.700796 11577.201431 39380.6987 11484.902495 39523.7013 11406.598183 C 39554.700976 11389.601556 39586.301017 11373.298669 39619.800294 11358.597691 C 39635.196223 11367.597389 39649.997557 11377.498949 39664.302436 11388.201463 C 39654.604213 11398.998578 39644.201715 11410.300231 39632.898667 11421.999208 C 39628.395921 11426.502211 39623.898948 11431.099814 39619.101791 11435.798325 C 39598.897161 11455.796954 39576.002429 11476.401028 39550.302139 11496.897888 C 39532.799157 11510.797912 39513.997305 11524.597029 39493.700311 11538.099729 C 39356.499326 11521.998658 39218.801885 11562.897777 39080.700351 11662.499902 C 39044.701473 11657.397761 39012.997521 11647.698016 38981.801572 11637.600947 C 38983.498761 11631.596944 38985.201723 11625.49834 38987.100958 11619.601551 Z M 38987.100958 11619.601551 " stroke="#000000" stroke-width="16.67" stroke-opacity="1" stroke-miterlimit="1.5"/><path stroke-linecap="round" transform="matrix(0.67667, 0, 0, 0.619378, -25887.627737, -6895.258466)" fill-opacity="1" fill="#e4189a" fill-rule="evenodd" stroke-linejoin="round" d="M 39632.898667 11421.999208 C 39637.101231 11426.798627 39640.997838 11431.598045 39644.698171 11436.302863 C 39649.102781 11441.903236 39653.201434 11447.402701 39656.999905 11452.902166 C 39666.802037 11466.701283 39675.103254 11479.901261 39683.698881 11492.697608 C 39710.103446 11532.102033 39739.198113 11568.302641 39823.001147 11610.29913 C 39832.803279 11639.801995 39839.89799 11670.597738 39843.898507 11702.497159 C 39753.497219 11628.298526 39662.80152 11578.500617 39572.001912 11553.500755 C 39561.397367 11530.601032 39554.498929 11510.602404 39550.302139 11496.897888 C 39576.002429 11476.401028 39598.897161 11455.796954 39619.101791 11435.798325 C 39623.898948 11431.099814 39628.395921 11426.502211 39632.898667 11421.999208 Z M 39632.898667 11421.999208 " stroke="#000000" stroke-width="16.67" stroke-opacity="1" stroke-miterlimit="1.5"/><path stroke-linecap="round" transform="matrix(0.67667, 0, 0, 0.619378, -25887.627737, -6895.258466)" fill-opacity="1" fill="#e4189a" fill-rule="evenodd" stroke-linejoin="round" d="M 39713.099504 11430.998906 C 39762.000482 11480.5004 39800.002505 11541.70087 39823.001147 11610.29913 C 39739.198113 11568.302641 39710.103446 11532.102033 39683.698881 11492.697608 C 39671.80124 11474.799119 39660.400056 11456.301492 39644.698171 11436.302863 C 39640.997838 11431.598045 39637.101231 11426.798627 39632.898667 11421.999208 C 39644.201715 11410.300231 39654.604213 11398.998578 39664.302436 11388.201463 C 39668.799409 11391.600788 39673.198246 11395.101021 39677.602855 11398.702162 C 39690.002725 11408.799231 39701.802229 11419.602652 39713.099504 11430.998906 Z M 39713.099504 11430.998906 " stroke="#000000" stroke-width="16.67" stroke-opacity="1" stroke-miterlimit="1.5"/><path stroke-linecap="round" transform="matrix(0.67667, 0, 0, 0.619378, -25887.627737, -6895.258466)" fill-opacity="1" fill="#e4189a" fill-rule="evenodd" stroke-linejoin="round" d="M 39759.697154 11211.701426 C 39774.602398 11230.199054 39787.198542 11254.997101 39795.799942 11287.596568 C 39798.501589 11297.699943 39800.701008 11308.597966 39802.600243 11320.296943 C 39803.298746 11325.102668 39803.500792 11334.001459 39802.30006 11345.397713 C 39798.899909 11377.801672 39761.301979 11429.901536 39713.099504 11430.998906 C 39701.802229 11419.602652 39690.002725 11408.799231 39677.602855 11398.702162 C 39696.89539 11374.79967 39714.196327 11349.099761 39728.102885 11320.101434 C 39743.30254 11288.49843 39754.397768 11252.903268 39759.697154 11211.701426 Z M 39759.697154 11211.701426 " stroke="#000000" stroke-width="16.67" stroke-opacity="1" stroke-miterlimit="1.5"/><path stroke-linecap="round" transform="matrix(0.67667, 0, 0, 0.619378, -25887.627737, -6895.258466)" fill-opacity="1" fill="#e4189a" fill-rule="evenodd" stroke-linejoin="round" d="M 39592.997409 11165.302842 C 39620.302524 11158.800607 39669.001455 11152.702003 39713.099504 11174.201632 C 39729.696164 11182.299469 39745.698232 11194.301168 39759.697154 11211.701426 C 39754.397768 11252.903268 39743.30254 11288.49843 39728.102885 11320.101434 C 39714.196327 11349.099761 39696.89539 11374.79967 39677.602855 11398.702162 C 39673.198246 11395.101021 39668.799409 11391.600788 39664.302436 11388.201463 C 39649.997557 11377.498949 39635.196223 11367.597389 39619.800294 11358.597691 C 39615.499594 11356.201135 39611.198895 11353.697364 39606.800058 11351.401716 C 39596.201286 11345.801343 39585.400468 11340.497387 39574.299467 11335.798876 C 39562.800146 11330.797642 39551.000642 11326.300946 39538.895182 11322.302482 C 39542.399242 11250.500405 39560.895138 11202.399005 39592.997409 11165.302842 Z M 39592.997409 11165.302842 " stroke="#000000" stroke-width="16.67" stroke-opacity="1" stroke-miterlimit="1.5"/><path stroke-linecap="round" transform="matrix(0.67667, 0, 0, 0.619378, -25887.627737, -6895.258466)" fill-opacity="1" fill="#e4189a" fill-rule="evenodd" stroke-linejoin="round" d="M 39489.803704 11309.298013 C 39488.395152 11299.49736 39487.604285 11288.101106 39488.602971 11275.897591 C 39491.396983 11239.400567 39509.696605 11196.401308 39572.198186 11171.502354 C 39574.59965 11170.499584 39582.104227 11167.800305 39592.997409 11165.302842 C 39560.895138 11202.399005 39542.399242 11250.500405 39538.895182 11322.302482 C 39522.898888 11316.998525 39506.498501 11312.697338 39489.803704 11309.298013 Z M 39489.803704 11309.298013 " stroke="#000000" stroke-width="16.67" stroke-opacity="1" stroke-miterlimit="1.5"/><path stroke-linecap="round" transform="matrix(0.67667, 0, 0, 0.619378, -25852.2071, -6930.793583)" fill="none" stroke-linejoin="round" d="M 39611.899227 11445.598914 C 39602.299141 11456.402336 39591.896643 11467.697682 39580.599369 11479.302058 C 39576.102395 11483.899662 39571.501512 11488.497265 39566.802492 11493.202083 C 39546.603635 11513.099804 39523.697357 11533.697571 39498.00284 11554.200738 C 39480.499858 11568.100762 39461.698006 11582.000786 39441.395239 11595.49718 M 39028.395279 11719.802752 C 38992.396401 11714.801518 38960.698223 11705.101774 38929.502274 11694.998398 " stroke="#000000" stroke-width="16.67" stroke-opacity="1" stroke-miterlimit="1.5"/><path stroke-linecap="round" transform="matrix(0.67667, 0, 0, 0.619378, -25852.2071, -6930.793583)" fill="none" stroke-linejoin="round" d="M 39519.69684 11610.797298 C 39509.103841 11587.897575 39502.199631 11567.898947 39498.00284 11554.200738 " stroke="#000000" stroke-width="16.67" stroke-opacity="1" stroke-miterlimit="1.5"/><path stroke-linecap="round" transform="matrix(0.67667, 0, 0, 0.619378, -25852.2071, -6930.793583)" fill="none" stroke-linejoin="round" d="M 39580.599369 11479.302058 C 39584.801932 11484.202385 39588.698539 11488.900895 39592.398873 11493.599406 C 39608.00262 11513.598035 39619.501941 11532.202877 39631.399582 11550.101366 C 39657.798374 11589.499484 39686.898814 11625.700092 39770.603711 11667.702888 " stroke="#000000" stroke-width="16.67" stroke-opacity="1" stroke-miterlimit="1.5"/><path stroke-linecap="round" transform="matrix(0.67667, 0, 0, 0.619378, -25852.2071, -6930.793583)" fill="none" stroke-linejoin="round" d="M 39437.400495 11366.70177 C 39431.800926 11327.202745 39436.696219 11262.098411 39519.80075 11228.798897 C 39522.300351 11227.903342 39529.799155 11225.197756 39540.69811 11222.599385 C 39567.997452 11216.198058 39616.60402 11210.099454 39660.800205 11231.599083 C 39677.396866 11239.703226 39693.398933 11251.698619 39707.299718 11268.997969 C 39722.303099 11287.596505 39734.899243 11312.299951 39743.500643 11345.000326 C 39746.104154 11355.097394 39748.395936 11366.001724 39750.300944 11377.700701 C 39750.999447 11382.500119 39751.201493 11391.39891 39750.000761 11402.700563 C 39746.60061 11435.199123 39708.89877 11487.198079 39660.800205 11488.402664 " stroke="#000000" stroke-width="16.67" stroke-opacity="1" stroke-miterlimit="1.5"/><path stroke-linecap="round" transform="matrix(0.67667, 0, 0, 0.619378, -25852.2071, -6930.793583)" fill="none" stroke-linejoin="round" d="M 39486.601656 11379.699933 C 39490.099943 11307.897856 39508.601612 11259.701855 39540.69811 11222.599385 " stroke="#000000" stroke-width="16.67" stroke-opacity="1" stroke-miterlimit="1.5"/><path stroke-linecap="round" transform="matrix(0.67667, 0, 0, 0.619378, -25852.2071, -6930.793583)" fill="none" stroke-linejoin="round" d="M 39554.500759 11408.799167 C 39554.899079 11324.497159 39582.002147 11285.401764 39666.301637 11234.897501 " stroke="#000000" stroke-width="16.67" stroke-opacity="1" stroke-miterlimit="1.5"/><path stroke-linecap="round" transform="matrix(0.67667, 0, 0, 0.619378, -25852.2071, -6930.793583)" fill="none" stroke-linejoin="round" d="M 39625.303556 11456.099613 C 39644.601864 11432.197121 39661.897028 11406.497212 39675.803586 11377.498885 C 39690.997468 11345.80128 39702.104242 11310.300719 39707.299718 11268.997969 " stroke="#000000" stroke-width="16.67" stroke-opacity="1" stroke-miterlimit="1.5"/><path stroke-linecap="round" transform="matrix(0.67667, 0, 0, 0.619378, -25852.2071, -6930.793583)" fill="none" stroke-linejoin="round" d="M 39743.500643 11345.000326 C 39771.498488 11312.798182 39754.601644 11326.099067 39799.196149 11289.999367 " stroke="#000000" stroke-width="16.67" stroke-opacity="1" stroke-miterlimit="1.5"/><path stroke-linecap="round" transform="matrix(0.67667, 0, 0, 0.619378, -25852.2071, -6930.793583)" fill="none" stroke-linejoin="round" d="M 39750.000761 11402.700563 C 39794.398993 11378.501655 39839.299454 11397.699329 39846.798258 11400.903146 " stroke="#000000" stroke-width="16.67" stroke-opacity="1" stroke-miterlimit="1.5"/><path stroke-linecap="round" transform="matrix(0.67667, 0, 0, 0.619378, -25852.2071, -6930.793583)" fill="none" stroke-linejoin="round" d="M 39436.199763 11333.301349 C 39435.89958 11304.296715 39412.698891 11276.502973 39394.803362 11262.401134 " stroke="#000000" stroke-width="16.67" stroke-opacity="1" stroke-miterlimit="1.5"/><path stroke-linecap="round" transform="matrix(0.72686, 0, 0, 0.75, -8238.149257, -6616.97201)" fill-opacity="1" fill="#6a3fa0" fill-rule="evenodd" stroke-linejoin="round" d="M 11994.398113 9338.999943 C 11975.701473 9354.802028 11992.898727 9242.598893 12012.998018 9224.999933 C 12273.498802 8996.44783 12524.901163 8981.197829 12793.000983 9178.999929 C 12809.90266 9191.442638 12841.400506 9316.088483 12823.999034 9302.99994 C 12549.401876 9096.432214 12272.902272 9103.291589 11994.398113 9338.999943 Z M 11994.398113 9338.999943 " stroke="#000000" stroke-width="17.92" stroke-opacity="1" stroke-miterlimit="1.5"/></svg>